<svg width="1440" height="235" viewBox="0 0 1440 235" fill="none" xmlns="http://www.w3.org/2000/svg">
<path d="M1648 179.229V195.509H1338.67V179.229H1648ZM-21 235H1648V218.721H-21V235ZM1030.51 194.496C1030.51 194.496 1030.51 195.197 1030.51 195.587H1197.89C1197.89 195.587 1197.89 194.886 1197.89 194.496C1197.89 194.496 1197.89 194.34 1197.89 194.263V194.107C1197.66 147.839 1160.27 110.451 1114.2 110.451C1068.12 110.451 1030.66 147.917 1030.51 194.107C1030.51 194.107 1030.51 194.263 1030.51 194.34V194.496ZM888.329 179.229H-21V195.509H888.329V179.229ZM969.074 194.496C969.074 194.496 969.074 195.197 969.074 195.587H985.285C985.285 195.197 985.285 194.73 985.285 194.34C985.363 122.991 1043.23 65.0398 1114.2 65.0398C1185.17 65.0398 1243.03 122.991 1243.11 194.34C1243.11 194.73 1243.11 195.197 1243.11 195.587H1259.32C1259.32 195.587 1259.32 194.886 1259.32 194.496C1259.32 194.496 1259.32 194.34 1259.32 194.263C1259.32 194.185 1259.32 194.107 1259.32 194.029C1259.09 113.8 1194.09 48.6046 1114.12 48.6046C1034.15 48.6046 969.152 113.8 968.919 194.029C968.919 194.029 968.919 194.185 968.919 194.263C968.919 194.263 968.919 194.418 968.919 194.496H969.074ZM936.885 195.587C936.885 195.197 936.885 194.73 936.885 194.34C936.962 96.1966 1016.54 16.3573 1114.28 16.3573C1212.01 16.3573 1291.59 96.1966 1291.67 194.34C1291.67 194.73 1291.67 195.197 1291.67 195.587H1307.72V185.928C1303.22 82.6434 1218.21 0 1114.28 0C1010.34 0 925.327 82.6434 920.829 185.928V195.587H936.885Z" fill="url(#paint0_linear_1337_1926)"/>
<defs>
<linearGradient id="paint0_linear_1337_1926" x1="1119.5" y1="311.5" x2="1108.5" y2="-10.0001" gradientUnits="userSpaceOnUse">
<stop stop-color="#AED68A"/>
<stop offset="0.25" stop-color="#AED68A"/>
<stop offset="0.41" stop-color="#CCD86E"/>
<stop offset="0.53" stop-color="#D5D865"/>
<stop offset="0.64" stop-color="#E1D95B"/>
<stop offset="0.75" stop-color="#ECD952"/>
<stop offset="0.84" stop-color="#F6DA48"/>
<stop offset="1" stop-color="#FDDA43"/>
</linearGradient>
</defs>
</svg>
