<svg width="1440" height="371" viewBox="0 0 1440 371" fill="none" xmlns="http://www.w3.org/2000/svg">
<rect y="2" width="1440" height="368" fill="#F7D365"/>
<path opacity="0.8" d="M269.671 98.4094C192.353 120.613 0 98.4094 0 98.4094V131.357C0 131.357 267.785 164.304 375.277 131.357C482.768 98.4094 545 1 545 1H435.623C435.623 1 346.99 76.2058 269.671 98.4094Z" fill="#FFF4CC" stroke="#FFEEA9"/>
<path opacity="0.8" d="M1072.24 88.2342C1106 39.1891 1208.36 3 1208.36 3H1440V370H0C0 370 152.836 353.798 222.09 337.597C291.343 321.395 198.209 274.2 382.09 257.998C565.97 241.797 681.485 323.159 798.5 302.731C915.515 282.303 975.761 218.432 1012.5 198.421C1049.24 178.411 1038.48 137.279 1072.24 88.2342Z" fill="#FDF0C2" stroke="#FFEEA9"/>
<path opacity="0.8" d="M1231.76 194.215C1279.09 148.873 1440 84 1440 84V370H183C183 370 302.264 291.176 436.672 282.805C571.08 274.434 687.685 301.527 736.5 282.805C785.315 264.083 806.5 221.864 919 194.215C1031.5 166.565 1184.44 239.556 1231.76 194.215Z" fill="#F6CB46" stroke="#FFF4CC"/>
</svg>
