<svg width="16" height="15" viewBox="0 0 16 15" fill="none" xmlns="http://www.w3.org/2000/svg">
<path d="M7.85344 5.355C8.80611 5.4 9.05172 6.2175 9.0666 6.6H10.3989C10.3393 5.115 9.28989 4.2075 7.83111 4.2075C6.18626 4.2075 4.96565 5.25 4.96565 7.605C4.96565 9.06 5.65782 10.785 7.82366 10.785C9.47595 10.785 10.3616 9.5475 10.384 8.5725H9.05172C9.02939 9.015 8.71679 9.6075 7.83855 9.6525C6.86355 9.6225 6.4542 8.8575 6.4542 7.605C6.4542 5.4375 7.40687 5.37 7.85344 5.355ZM7.94275 0C3.83435 0 0.5 3.36 0.5 7.5C0.5 11.64 3.83435 15 7.94275 15C12.0511 15 15.3855 11.64 15.3855 7.5C15.3855 3.36 12.0511 0 7.94275 0ZM7.94275 13.5C4.6605 13.5 1.98855 10.8075 1.98855 7.5C1.98855 4.1925 4.6605 1.5 7.94275 1.5C11.225 1.5 13.8969 4.1925 13.8969 7.5C13.8969 10.8075 11.225 13.5 7.94275 13.5Z" fill="black"/>
</svg>
