<svg width="1440" height="905" viewBox="0 0 1440 905" fill="none" xmlns="http://www.w3.org/2000/svg">
<rect x="9" y="93" width="1421" height="706" fill="white" stroke="#FFF4CA" stroke-width="20"/>
<g opacity="0.2" filter="url(#filter0_f_137_1146)">
<path d="M990.578 234.994C986.998 150.012 1194.06 125.951 1194.06 125.951C1194.06 125.951 1415.42 83.1988 1428.66 109.618C1441.89 136.038 1070.44 512.164 688.128 685.576C305.813 858.987 1 790.776 1 790.776C1 790.776 8.43893 704.405 116.782 685.576C225.124 666.746 208.625 568.655 346.454 538.584C484.284 508.514 372.163 455.234 459.873 417.319C547.583 379.405 828.011 359.976 828.011 284.147C828.011 208.318 994.158 319.975 990.578 234.994Z" fill="#FFEEA9"/>
<path d="M990.578 234.994C986.998 150.012 1194.06 125.951 1194.06 125.951C1194.06 125.951 1415.42 83.1988 1428.66 109.618C1441.89 136.038 1070.44 512.164 688.128 685.576C305.813 858.987 1 790.776 1 790.776C1 790.776 8.43893 704.405 116.782 685.576C225.124 666.746 208.625 568.655 346.454 538.584C484.284 508.514 372.163 455.234 459.873 417.319C547.583 379.405 828.011 359.976 828.011 284.147C828.011 208.318 994.158 319.975 990.578 234.994Z" stroke="#FFEEA9"/>
</g>
<defs>
<filter id="filter0_f_137_1146" x="-99.5357" y="0.5" width="1629.04" height="904" filterUnits="userSpaceOnUse" color-interpolation-filters="sRGB">
<feFlood flood-opacity="0" result="BackgroundImageFix"/>
<feBlend mode="normal" in="SourceGraphic" in2="BackgroundImageFix" result="shape"/>
<feGaussianBlur stdDeviation="50" result="effect1_foregroundBlur_137_1146"/>
</filter>
</defs>
</svg>
