<svg width="70" height="83" viewBox="0 0 70 83" fill="none" xmlns="http://www.w3.org/2000/svg">
<path d="M19.8218 75.1015V67.2029H67.8612C69.0431 67.2029 70 68.1541 70 69.3291V75.1015C70 79.4657 66.44 83 62.0544 83H16.7636C18.349 81.2562 19.4278 79.0321 19.7326 76.5469V76.5096C19.7936 76.048 19.8218 75.5724 19.8218 75.0968V75.1015ZM27.2326 8.69587C26.9559 8.929 26.7261 9.22741 26.5431 9.60509C26.3602 9.98276 26.2664 10.3325 26.2664 10.6449C26.2664 11.1065 26.3555 11.4608 26.5431 11.7266C26.7261 11.9877 26.9559 12.2208 27.2326 12.426V8.69121V8.69587ZM31.6041 21.7979C31.9981 21.3503 32.1904 20.7302 32.1904 19.9329C32.1904 19.4107 31.9934 18.9537 31.6041 18.5621C31.2148 18.1751 30.7223 17.8254 30.1219 17.5036V22.8097C30.7223 22.5813 31.2148 22.2456 31.6041 21.8026V21.7979ZM9.32458 51.4711C8.24109 51.4711 7.35929 52.3477 7.35929 53.4248C7.35929 54.5018 8.2364 55.3784 9.32458 55.3784H47.9878C49.0713 55.3784 49.9531 54.5065 49.9531 53.4248C49.9531 52.343 49.076 51.4711 47.9878 51.4711H9.32458ZM9.32458 42.1598C8.24109 42.1598 7.35929 43.0364 7.35929 44.1134C7.35929 45.1905 8.2364 46.0671 9.32458 46.0671H47.9878C49.0713 46.0671 49.9531 45.1952 49.9531 44.1134C49.9531 43.0317 49.076 42.1598 47.9878 42.1598H9.32458ZM9.32458 32.8531C8.24109 32.8531 7.35929 33.7297 7.35929 34.8068C7.35929 35.8838 8.2364 36.7604 9.32458 36.7604H47.9878C49.0713 36.7604 49.9531 35.8885 49.9531 34.8068C49.9531 33.725 49.076 32.8531 47.9878 32.8531H9.32458ZM22.3077 19.5039C21.9653 19.7883 21.7917 20.208 21.7917 20.7535C21.7917 21.3503 21.9278 21.9332 22.2045 22.502C22.4812 23.0708 22.8565 23.5977 23.3396 24.078C23.8227 24.5582 24.3949 24.9779 25.061 25.3276C25.727 25.6819 26.4493 25.9384 27.2326 26.0969V26.7823C27.2326 27.7382 27.7158 28.2231 28.6773 28.2231C29.6388 28.2231 30.1219 27.7428 30.1219 26.7823V26.1296C30.8114 26.013 31.4728 25.7985 32.106 25.4814C32.7392 25.1597 33.2927 24.7447 33.7758 24.2319C34.2542 23.7143 34.6435 23.0942 34.9296 22.3621C35.2158 21.6347 35.3565 20.8001 35.3565 19.8629C35.3565 19.1122 35.2204 18.4268 34.9437 17.8114C34.667 17.1912 34.2964 16.641 33.8227 16.1515C33.349 15.6572 32.7955 15.2143 32.1529 14.8133C31.5103 14.4123 30.8349 14.0533 30.1219 13.7362V8.80777C30.5394 8.99428 30.8114 9.25072 30.9522 9.59576C31.0882 9.93614 31.2101 10.2718 31.3133 10.5889C31.4165 10.906 31.5572 11.1857 31.7401 11.4235C31.9231 11.666 32.2561 11.7825 32.7392 11.7825C33.2223 11.7825 33.5788 11.624 33.8931 11.3023C34.1979 10.9852 34.3574 10.5842 34.3574 10.104C34.3574 9.50717 34.2448 8.95698 34.015 8.43942C33.7852 7.92653 33.4756 7.46959 33.0863 7.07326C32.6923 6.67227 32.242 6.33656 31.7261 6.06147C31.2101 5.78637 30.6801 5.5952 30.1219 5.47863V5.1709C30.1219 4.07517 29.6295 3.52964 28.6445 3.52964C27.6595 3.52964 27.2326 4.07517 27.2326 5.1709V5.47863C26.6839 5.61385 26.1632 5.833 25.6801 6.12674C25.2017 6.42515 24.7702 6.78884 24.3902 7.22247C24.0103 7.66076 23.7101 8.15966 23.4944 8.72851C23.2786 9.29735 23.166 9.9408 23.166 10.6449C23.166 11.3489 23.2692 11.9877 23.4756 12.5472C23.682 13.1067 23.9728 13.6103 24.3386 14.0533C24.7045 14.5009 25.136 14.8925 25.6285 15.2329C26.1257 15.5733 26.6557 15.8857 27.2326 16.1561V22.7631C26.0835 22.3062 25.3377 21.4949 24.9953 20.3339C24.7655 19.4899 24.2401 19.0656 23.4146 19.0656C23.0206 19.0656 22.6548 19.2102 22.3124 19.4946L22.3077 19.5039ZM7.89869 83C3.49906 82.972 0 79.3025 0 74.9336V4.32229C0 1.93035 1.95591 -0.00465425 4.35741 8.40881e-06L50.53 0.111912C52.9268 0.111912 54.864 2.05158 54.864 4.4342V63.2956H17.7251C16.6417 63.2956 15.7598 64.1675 15.7598 65.2493V75.232C15.7598 75.5817 15.7786 75.9174 15.8068 76.2485C15.2392 80.1231 11.8668 83.0233 7.89869 83Z" fill="url(#paint0_linear_1570_614)"/>
<defs>
<linearGradient id="paint0_linear_1570_614" x1="35" y1="0" x2="35" y2="83.0001" gradientUnits="userSpaceOnUse">
<stop offset="0.095" stop-color="#264D70"/>
<stop offset="1" stop-color="#264D70"/>
</linearGradient>
</defs>
</svg>
