<svg width="77" height="84" viewBox="0 0 77 84" fill="none" xmlns="http://www.w3.org/2000/svg">
<path d="M58.3864 20.054C58.3864 8.97769 49.4831 0 38.4985 0C27.5139 0 18.6106 8.97769 18.6106 20.054C18.6106 31.1303 27.5139 40.108 38.4985 40.108C49.4831 40.108 58.3864 31.1303 58.3864 20.054ZM46.868 19.285L36.8748 32.7964C36.0042 33.9723 34.1581 33.1393 34.4472 31.7039L36.1916 23.0209H31.2221C30.1004 23.0209 29.4586 21.7329 30.129 20.8262L40.1222 7.3148C40.9928 6.13892 42.8389 6.97196 42.5498 8.41057L40.8054 17.0935H45.7749C46.8966 17.0935 47.5384 18.3815 46.868 19.2882V19.285ZM73.991 56.6344L64.9606 67.5794H45.2157L46.9856 53.6611C47.3319 51.1779 48.6665 48.9127 50.6683 47.4388L61.4558 39.4448C61.7895 39.1981 62.1739 39.0827 62.5584 39.0827C63.0319 39.0827 63.5085 39.2622 63.8675 39.6274C64.5475 40.3003 64.6111 41.3736 64.0328 42.1234L56.6419 51.6553C55.873 52.639 56.0509 54.0616 57.0264 54.8241C58.0019 55.5995 59.4127 55.4201 60.1689 54.4364L67.5598 44.9173C69.5489 42.3573 69.3169 38.695 67.0196 36.4042C66.4794 35.8595 65.8789 35.4462 65.2243 35.1354L66.3396 20.2719C66.4032 19.3651 66.8544 18.5641 67.5852 18.0355C68.316 17.5164 69.2153 17.3498 70.0859 17.5837C71.2139 17.8817 72.0623 18.8108 72.2656 19.9771L76.7935 45.9522C77.4608 49.7682 76.4345 53.6611 73.9846 56.6376L73.991 56.6344ZM67.1785 74.1829V81.9302C67.1785 83.074 66.257 84.0032 65.1226 84.0032H43.7223C42.5879 84.0032 41.6665 83.074 41.6665 81.9302V74.1829C41.6665 73.039 42.5879 72.1098 43.7223 72.1098H65.1226C66.257 72.1098 67.1785 73.039 67.1785 74.1829ZM12.0396 67.5794L3.00917 56.6344C0.559325 53.6578 -0.467003 49.765 0.200269 45.949L4.72819 19.9739C4.93472 18.8076 5.77993 17.8785 6.90794 17.5805C7.76904 17.3466 8.6778 17.5164 9.40862 18.0323C10.1394 18.5609 10.5875 19.3651 10.6542 20.2687L11.7695 35.1322C11.1149 35.443 10.5112 35.8563 9.97421 36.401C7.67689 38.6918 7.44811 42.3508 9.43404 44.9141L16.8249 54.4332C17.5811 55.4169 18.9919 55.5995 19.9674 54.8209C20.9429 54.0584 21.1208 52.6358 20.3519 51.6521L12.961 42.1202C12.3827 41.3704 12.4463 40.2971 13.1263 39.6242C13.7808 38.9642 14.7945 38.8873 15.538 39.4416L26.3256 47.4356C28.3274 48.9095 29.6619 51.1747 30.0083 53.6322L31.7781 67.5761H12.0332L12.0396 67.5794ZM35.3337 74.1829V81.9302C35.3337 83.074 34.4123 84.0032 33.2779 84.0032H11.8775C10.7432 84.0032 9.82169 83.074 9.82169 81.9302V74.1829C9.82169 73.039 10.7432 72.1098 11.8775 72.1098H33.2779C34.4123 72.1098 35.3337 73.039 35.3337 74.1829Z" fill="url(#paint0_linear_1570_618)"/>
<defs>
<linearGradient id="paint0_linear_1570_618" x1="38.4969" y1="0" x2="38.4969" y2="84.0032" gradientUnits="userSpaceOnUse">
<stop stop-color="#264D70"/>
<stop offset="1" stop-color="#264D70"/>
</linearGradient>
</defs>
</svg>
