<svg width="39" height="39" viewBox="0 0 39 39" fill="none" xmlns="http://www.w3.org/2000/svg">
<circle cx="19.5" cy="19.5" r="19.5" fill="#FFC700"/>
<path d="M24 11V13H22C21.4696 13 20.9609 13.2107 20.5858 13.5858C20.2107 13.9609 20 14.4696 20 15V18C20 18.5523 20.4477 19 21 19H23.7192L23.2192 21H21C20.4477 21 20 21.4477 20 22V29H18V22C18 21.4477 17.5523 21 17 21H15V19H17C17.5523 19 18 18.5523 18 18V15C18 13.9391 18.4214 12.9217 19.1716 12.1716C19.9217 11.4214 20.9391 11 22 11H24Z" fill="white" stroke="white" stroke-width="2" stroke-linecap="round" stroke-linejoin="round"/>
</svg>
