<svg width="554" height="536" viewBox="0 0 554 536" fill="none" xmlns="http://www.w3.org/2000/svg">
<g clip-path="url(#clip0_3018_3705)">
<path d="M88.8412 259.005C88.8412 155.259 173.249 70.8506 276.995 70.8506L276.995 48.0127C160.65 48.0127 66.0033 142.668 66.0033 259.005C66.0033 375.35 160.659 469.997 276.995 469.997L276.995 447.159C173.249 447.159 88.8412 362.751 88.8412 259.005Z" fill="url(#paint0_linear_3018_3705)"/>
<path d="M465.149 259.005C465.149 362.751 380.741 447.159 276.995 447.159L276.995 469.997C393.341 469.997 487.987 375.341 487.987 259.005C487.987 142.659 393.332 48.0127 276.995 48.0127L276.995 70.8506C380.741 70.8506 465.149 155.259 465.149 259.005Z" fill="url(#paint1_linear_3018_3705)"/>
<path d="M22.838 259.005C22.838 118.86 136.85 4.84728 276.995 4.84728L276.995 -18C124.26 -18 -0.00928278 106.26 -0.00928945 259.005C-0.00929613 411.74 124.251 536.009 276.995 536.009L276.995 513.171C136.85 513.171 22.838 399.159 22.838 259.014L22.838 259.005Z" fill="url(#paint2_linear_3018_3705)"/>
<path d="M531.162 259.005C531.162 399.15 417.15 513.162 277.005 513.162L277.005 536C429.74 536 554 411.74 554 259.005C554 106.26 429.74 -18 276.995 -18L276.995 4.83794C417.14 4.83794 531.162 118.86 531.162 259.005Z" fill="url(#paint3_linear_3018_3705)"/>
<path d="M162.759 263.428C162.759 200.608 213.867 149.5 276.687 149.5L276.687 126.662C201.267 126.662 139.912 188.018 139.912 263.438C139.912 338.858 201.267 400.214 276.687 400.214L276.687 377.376C213.867 377.376 162.759 326.268 162.759 263.447L162.759 263.428Z" fill="url(#paint4_linear_3018_3705)"/>
<path d="M390.625 263.438C390.625 326.259 339.517 377.366 276.697 377.366L276.697 400.204C352.117 400.204 413.472 338.849 413.472 263.429C413.472 188.008 352.117 126.653 276.697 126.653L276.697 149.491C339.517 149.491 390.625 200.599 390.625 263.419L390.625 263.438Z" fill="url(#paint5_linear_3018_3705)"/>
</g>
<defs>
<linearGradient id="paint0_linear_3018_3705" x1="171.504" y1="48.0034" x2="171.504" y2="469.997" gradientUnits="userSpaceOnUse">
<stop stop-color="#7FB4D8"/>
<stop offset="1" stop-color="#FAAA60"/>
</linearGradient>
<linearGradient id="paint1_linear_3018_3705" x1="382.496" y1="48.0034" x2="382.496" y2="469.997" gradientUnits="userSpaceOnUse">
<stop stop-color="#7FB4D8"/>
<stop offset="1" stop-color="#FAAA60"/>
</linearGradient>
<linearGradient id="paint2_linear_3018_3705" x1="138.502" y1="-18" x2="138.502" y2="536" gradientUnits="userSpaceOnUse">
<stop stop-color="#7FB4D8"/>
<stop offset="1" stop-color="#FAAA60"/>
</linearGradient>
<linearGradient id="paint3_linear_3018_3705" x1="415.498" y1="-18" x2="415.498" y2="536" gradientUnits="userSpaceOnUse">
<stop stop-color="#7FB4D8"/>
<stop offset="1" stop-color="#FAAA60"/>
</linearGradient>
<linearGradient id="paint4_linear_3018_3705" x1="208.304" y1="126.662" x2="208.304" y2="400.204" gradientUnits="userSpaceOnUse">
<stop stop-color="#7FB4D8"/>
<stop offset="1" stop-color="#FAAA60"/>
</linearGradient>
<linearGradient id="paint5_linear_3018_3705" x1="345.08" y1="126.662" x2="345.08" y2="400.204" gradientUnits="userSpaceOnUse">
<stop stop-color="#7FB4D8"/>
<stop offset="1" stop-color="#FAAA60"/>
</linearGradient>
<clipPath id="clip0_3018_3705">
<rect width="554" height="554" fill="white" transform="translate(554 -18) rotate(90)"/>
</clipPath>
</defs>
</svg>
