<svg width="389" height="556" viewBox="0 0 389 556" fill="none" xmlns="http://www.w3.org/2000/svg">
<g clip-path="url(#clip0_283_2925)">
<path d="M162.585 312.11H175.525L180.126 520.079H183.001V529.745H153.67V520.079H157.121L162.585 312.11Z" fill="#EAEAEA"/>
<path d="M180.126 520.079L175.525 312.11H162.585L157.121 520.079M180.126 520.079H157.121M180.126 520.079H183.001V529.745H153.67V520.079H157.121" stroke="#EAEAEA" stroke-width="2" stroke-linejoin="round"/>
<path d="M187.988 307.124C189.676 304.674 190.007 302.866 189.454 298.911C187.698 295.584 186.379 294.243 182.708 293.925C179.713 293.836 178.247 294.027 176.549 295.391C175.492 297.286 173.639 299.846 173.909 303.017C174.178 306.189 178.309 308.884 178.309 308.884L181.535 310.35L187.988 307.124Z" fill="#EAEAEA" stroke="#EAEAEA" stroke-width="2" stroke-linejoin="round"/>
<path d="M239.024 220.304L186.521 289.525L191.801 293.631L198.84 286.299L206.76 283.952L244.01 224.704L239.024 220.304Z" fill="#EAEAEA" stroke="#EAEAEA" stroke-width="2" stroke-linejoin="round"/>
<path d="M192.094 293.925L185.934 289.525L182.708 293.045C185.934 293.338 188.711 294.793 190.041 297.445L192.094 293.925Z" fill="#92A4B0"/>
<path d="M185.934 289.525L186.516 288.711C186.104 288.418 185.539 288.477 185.197 288.849L185.934 289.525ZM192.094 293.925L192.958 294.429C193.218 293.982 193.095 293.411 192.675 293.111L192.094 293.925ZM190.041 297.445L189.147 297.893L189.974 299.543L190.904 297.948L190.041 297.445ZM182.708 293.045L181.971 292.369L180.606 293.858L182.617 294.041L182.708 293.045ZM185.353 290.339L191.513 294.739L192.675 293.111L186.516 288.711L185.353 290.339ZM191.23 293.421L189.177 296.941L190.904 297.948L192.958 294.429L191.23 293.421ZM190.935 296.996C189.403 293.942 186.251 292.363 182.798 292.049L182.617 294.041C185.618 294.314 188.019 295.644 189.147 297.893L190.935 296.996ZM183.445 293.721L186.671 290.201L185.197 288.849L181.971 292.369L183.445 293.721Z" fill="#92A4B0"/>
<path d="M153.964 288.352L157.777 294.511H168.629L167.456 303.311L82.9829 292.165V286.005L153.964 288.352Z" fill="#EAEAEA"/>
<path d="M181.828 294.511H168.629M168.629 294.511H157.777L153.964 288.352L82.9829 286.005V292.165L167.456 303.311L168.629 294.511Z" stroke="#EAEAEA" stroke-width="2" stroke-linejoin="round"/>
<path d="M222.891 391.597L190.041 312.403L183.588 315.043L186.521 324.429L183.588 332.642L216.732 394.53L222.891 391.597Z" fill="#EAEAEA" stroke="#EAEAEA" stroke-width="2" stroke-linejoin="round"/>
<path d="M222.891 391.597L216.731 394.823C216.731 394.823 221.131 402.743 224.651 400.689C228.17 398.636 222.891 391.597 222.891 391.597Z" fill="#CA2222" stroke="#CA2222" stroke-width="2" stroke-linejoin="round"/>
<path d="M246.062 214.438C243.716 213.558 240.81 215.713 239.023 220.304L244.303 224.997C247.362 220.399 248.409 215.318 246.062 214.438Z" fill="#CA2222" stroke="#CA2222" stroke-width="2" stroke-linejoin="round"/>
<path d="M73.5974 288.059C73.5974 283.659 82.69 285.5 82.69 285.5V292.458C82.69 292.458 73.5974 292.458 73.5974 288.059Z" fill="#CA2222" stroke="#CA2222" stroke-width="2" stroke-linejoin="round"/>
<path d="M190.04 303.311H175.962H173.615C173.624 305.485 178.308 309.602 178.643 309.602C178.979 309.602 185.891 310.133 186.353 309.271C188.672 306.92 190.073 306.983 190.04 303.311Z" fill="#D2D2D2" stroke="#D1D3D2" stroke-linejoin="round"/>
<path d="M168.922 294.511L167.456 303.604L173.322 303.897C173.971 298.674 173.807 296.028 176.548 294.218L168.922 294.511Z" fill="#92A4B0"/>
<path d="M167.456 303.604L166.468 303.445C166.423 303.726 166.5 304.012 166.678 304.233C166.857 304.454 167.122 304.589 167.406 304.603L167.456 303.604ZM168.922 294.511L168.884 293.512C168.408 293.531 168.011 293.882 167.935 294.352L168.922 294.511ZM176.548 294.218L177.099 295.053L180.085 293.081L176.51 293.219L176.548 294.218ZM173.322 303.897L173.272 304.896C173.795 304.922 174.25 304.54 174.314 304.021L173.322 303.897ZM168.443 303.763L169.909 294.671L167.935 294.352L166.468 303.445L168.443 303.763ZM168.961 295.511L176.587 295.217L176.51 293.219L168.884 293.512L168.961 295.511ZM175.997 293.384C174.374 294.455 173.609 295.808 173.18 297.536C172.778 299.154 172.642 301.26 172.33 303.774L174.314 304.021C174.651 301.311 174.757 299.482 175.121 298.019C175.457 296.666 175.982 295.791 177.099 295.053L175.997 293.384ZM173.372 302.899L167.506 302.605L167.406 304.603L173.272 304.896L173.372 302.899Z" fill="#8FA2B0"/>
<path d="M179.188 309.763H148.977C148.977 309.763 147.804 310.057 146.631 306.244C145.458 302.431 145.458 300.671 145.458 300.671L173.322 303.897C174.343 306.953 175.595 308.262 179.188 309.763Z" fill="#CFD3D4" stroke="#CFD3D4" stroke-width="2" stroke-linejoin="round"/>
<path d="M173.322 302.137C174.251 306.067 174.202 308.884 181.535 310.937" stroke="#8FA2B0" stroke-width="2" stroke-linejoin="round"/>
<path d="M183.295 315.336L180.655 310.644C183.988 310.236 187.23 309.903 189.161 308.004L190.041 311.817L183.295 315.336Z" fill="#92A4B0"/>
<path d="M180.655 310.644L180.533 309.651L179.051 309.832L179.783 311.134L180.655 310.644ZM183.295 315.336L182.423 315.827C182.688 316.297 183.278 316.473 183.757 316.223L183.295 315.336ZM190.041 311.817L190.503 312.703C190.907 312.493 191.118 312.036 191.015 311.592L190.041 311.817ZM189.161 308.004L190.135 307.779L189.734 306.038L188.46 307.291L189.161 308.004ZM179.783 311.134L182.423 315.827L184.166 314.846L181.526 310.153L179.783 311.134ZM183.757 316.223L190.503 312.703L189.578 310.93L182.832 314.45L183.757 316.223ZM191.015 311.592L190.135 307.779L188.186 308.229L189.066 312.042L191.015 311.592ZM188.46 307.291C187.673 308.064 186.575 308.563 185.188 308.913C183.795 309.266 182.225 309.444 180.533 309.651L180.776 311.636C182.418 311.435 184.135 311.243 185.679 310.852C187.229 310.46 188.717 309.843 189.862 308.717L188.46 307.291Z" fill="#92A4B0"/>
<path d="M172.149 312.11H170.389L171.802 517.426H174.788L172.149 312.11Z" fill="url(#paint0_linear_283_2925)" stroke="#E4E3E3"/>
<path d="M167.163 312.403H162.177L156.604 516.253H167.75L167.163 312.403Z" fill="url(#paint1_linear_283_2925)" stroke="#E7E7E7"/>
<path d="M157.19 519.186V516.253H179.481V519.186H157.19Z" fill="#B4B4B4" stroke="#B3B3B3"/>
<path d="M167.749 519.773H154.782H153.67V530.332H167.749V519.773Z" fill="url(#paint2_linear_283_2925)" stroke="url(#paint3_linear_283_2925)" stroke-linejoin="round"/>
<path d="M177.135 519.773H173.029V530.332H177.135V519.773Z" fill="#D6D6D6" stroke="#D8D8D8" stroke-linejoin="round"/>
<path d="M162.763 312.11V310.35H175.668V312.11H162.763Z" fill="#B0B1B3" stroke="#B0B1B3" stroke-width="2" stroke-linejoin="round"/>
<path d="M24.8096 311.132H81.8427V311.507C81.8427 312.059 81.395 312.507 80.8427 312.507H25.8096C25.2573 312.507 24.8096 312.059 24.8096 311.507V311.132Z" fill="#F0FFFF"/>
<path d="M24.8096 309.384C24.8096 308.832 25.2573 308.384 25.8096 308.384H80.8427C81.395 308.384 81.8427 308.832 81.8427 309.384V309.758H24.8096V309.384Z" fill="#EBFFFF"/>
<rect x="26.1837" y="310.445" width="54.2845" height="1.03072" fill="#94C3E3"/>
<rect x="26.1837" y="309.071" width="54.2845" height="1.03072" fill="#ABF0FF"/>
<rect x="26.1837" y="309.758" width="55.6588" height="1.03072" fill="#3884B4"/>
<rect x="25.4967" y="309.071" width="0.687146" height="0.687146" fill="#C0F5FF"/>
<rect x="24.8096" y="309.071" width="0.687146" height="0.687146" fill="#E4F9FF"/>
<rect x="25.4967" y="310.445" width="0.687146" height="1.03072" fill="#98BCD6"/>
<rect x="24.8096" y="310.445" width="0.687146" height="1.03072" fill="#E0ECFA"/>
<rect x="25.4967" y="309.758" width="0.687146" height="1.03072" fill="#407AA0"/>
<rect x="24.8096" y="309.758" width="0.687146" height="1.03072" fill="#C7DCF1"/>
<rect x="80.4683" y="309.071" width="0.687146" height="0.687146" fill="#C0F5FF"/>
<rect x="80.4683" y="310.445" width="0.687146" height="1.03072" fill="#98BCD6"/>
<rect x="80.4683" y="309.758" width="0.687146" height="1.03072" fill="#407AA0"/>
<rect x="81.1554" y="309.071" width="0.687146" height="0.687146" fill="#E4F9FF"/>
<rect x="81.1554" y="310.445" width="0.687146" height="1.03072" fill="#E0ECFA"/>
<rect x="81.1554" y="309.758" width="0.687146" height="1.03072" fill="#C7DCF1"/>
<path d="M20 341.367H77.0331V341.741C77.0331 342.293 76.5854 342.741 76.0331 342.741H21C20.4477 342.741 20 342.293 20 341.741V341.367Z" fill="#F0FFFF"/>
<path d="M20 339.618C20 339.066 20.4477 338.618 21 338.618H76.0331C76.5854 338.618 77.0331 339.066 77.0331 339.618V339.992H20V339.618Z" fill="#EBFFFF"/>
<rect x="21.3741" y="340.68" width="54.2845" height="1.03072" fill="#94C3E3"/>
<rect x="21.3741" y="339.305" width="54.2845" height="1.03072" fill="#ABF0FF"/>
<rect x="21.3741" y="339.993" width="55.6588" height="1.03072" fill="#3884B4"/>
<rect x="20.6871" y="339.305" width="0.687146" height="0.687146" fill="#C0F5FF"/>
<rect x="20" y="339.305" width="0.687146" height="0.687146" fill="#E4F9FF"/>
<rect x="20.6871" y="340.68" width="0.687146" height="1.03072" fill="#98BCD6"/>
<rect x="20" y="340.68" width="0.687146" height="1.03072" fill="#E0ECFA"/>
<rect x="20.6871" y="339.993" width="0.687146" height="1.03072" fill="#407AA0"/>
<rect x="20" y="339.993" width="0.687146" height="1.03072" fill="#C7DCF1"/>
<rect x="75.6587" y="339.305" width="0.687146" height="0.687146" fill="#C0F5FF"/>
<rect x="75.6587" y="340.68" width="0.687146" height="1.03072" fill="#98BCD6"/>
<rect x="75.6587" y="339.993" width="0.687146" height="1.03072" fill="#407AA0"/>
<rect x="76.3458" y="339.305" width="0.687146" height="0.687146" fill="#E4F9FF"/>
<rect x="76.3458" y="340.68" width="0.687146" height="1.03072" fill="#E0ECFA"/>
<rect x="76.3458" y="339.993" width="0.687146" height="1.03072" fill="#C7DCF1"/>
<path d="M28.2454 322.814H103.831V323.188C103.831 323.74 103.384 324.188 102.831 324.188H29.2454C28.6931 324.188 28.2454 323.74 28.2454 323.188V322.814Z" fill="#F0FFFF"/>
<path d="M28.2454 321.065C28.2454 320.513 28.6931 320.065 29.2454 320.065H102.831C103.384 320.065 103.831 320.513 103.831 321.065V321.439H28.2454V321.065Z" fill="#EBFFFF"/>
<rect x="30.0667" y="322.127" width="71.9433" height="1.03072" fill="#94C3E3"/>
<rect x="30.0667" y="320.752" width="71.9433" height="1.03072" fill="#ABF0FF"/>
<rect x="30.0667" y="321.439" width="73.7647" height="1.03072" fill="#3884B4"/>
<rect x="29.156" y="320.752" width="0.910675" height="0.687146" fill="#C0F5FF"/>
<rect x="28.2454" y="320.752" width="0.910675" height="0.687146" fill="#E4F9FF"/>
<rect x="29.156" y="322.127" width="0.910675" height="1.03072" fill="#98BCD6"/>
<rect x="28.2454" y="322.127" width="0.910675" height="1.03072" fill="#E0ECFA"/>
<rect x="29.156" y="321.439" width="0.910675" height="1.03072" fill="#407AA0"/>
<rect x="28.2454" y="321.439" width="0.910675" height="1.03072" fill="#C7DCF1"/>
<rect x="102.01" y="320.752" width="0.910675" height="0.687146" fill="#C0F5FF"/>
<rect x="102.01" y="322.127" width="0.910675" height="1.03072" fill="#98BCD6"/>
<rect x="102.01" y="321.439" width="0.910675" height="1.03072" fill="#407AA0"/>
<rect x="102.921" y="320.752" width="0.910675" height="0.687146" fill="#E4F9FF"/>
<rect x="102.921" y="322.127" width="0.910675" height="1.03072" fill="#E0ECFA"/>
<rect x="102.921" y="321.439" width="0.910675" height="1.03072" fill="#C7DCF1"/>
<path d="M-1 530H394V550H-1V530Z" fill="#FEE69C"/>
<path d="M-1 536H394V556H-1V536Z" fill="#FFC700"/>
<path d="M343.568 95H348.018H352.469C352.469 95 363.347 186.839 362.358 188.814C361.369 190.789 354.446 197.701 354.446 197.701V209.552L355.396 217.452C358.324 218.933 359.895 222.205 360.835 226.339L366.808 232.758C363.733 236.163 362.984 237.698 362.358 240.165L354.446 237.202H343.568C341.911 237.354 339.224 232.341 338.129 229.302C336.198 230.459 331.701 232.758 331.701 232.758L336.646 240.165L342.085 237.202V242.14L347.03 511.237V516.175H351.974V530H312.911V516.175H317.362V511.237L322.801 253.002V248.183L237.811 297.407C238.292 298.173 237.753 297.44 237.753 297.44L236.213 294.981C236.211 294.978 236.209 294.975 236.207 294.972C233.437 290.835 232.808 289.54 232.808 289.54L305.494 237.202C298.077 232.758 302.033 218.933 305.494 217.452C308.956 215.97 343.568 217.452 343.568 217.452V209.552V95Z" fill="#EBE9EA"/>
<path d="M343.568 95H352.469M343.568 95C343.568 95 342.58 95 348.018 95M343.568 95V209.552M343.568 95H348.018M352.469 95C352.469 95 353.457 95 348.018 95M352.469 95C352.469 95 363.347 186.839 362.358 188.814C361.369 190.789 354.446 197.701 354.446 197.701V209.552M352.469 95H348.018M343.568 209.552H354.446M343.568 209.552V217.452M354.446 209.552L355.396 217.452M343.568 217.452C348.262 216.692 351.564 215.584 355.396 217.452M343.568 217.452C338.336 220.034 337.6 223.498 338.129 229.302M343.568 217.452C343.568 217.452 308.956 215.97 305.494 217.452C302.033 218.933 298.077 232.758 305.494 237.202M355.396 217.452C358.324 218.933 359.895 222.205 360.835 226.339M338.129 229.302C339.224 232.341 341.911 237.354 343.568 237.202H354.446M338.129 229.302C336.198 230.459 331.701 232.758 331.701 232.758M354.446 237.202C357.417 234.583 359.21 230.619 360.835 226.339M354.446 237.202L362.358 240.165C362.984 237.698 363.733 236.163 366.808 232.758L360.835 226.339M305.494 237.202H319.834L331.701 232.758M305.494 237.202L232.808 289.54M331.701 232.758L336.646 240.165M336.646 240.165L342.085 237.202V242.14M336.646 240.165L322.801 248.183M237.753 297.44L232.808 289.54M237.753 297.44L322.801 248.183M237.753 297.44C237.753 297.44 238.943 299.058 236.207 294.972C233.437 290.835 232.808 289.54 232.808 289.54M322.801 248.183V253.002M322.801 253.002L342.085 242.14M322.801 253.002L317.362 511.237M342.085 242.14L347.03 511.237M317.362 511.237H347.03M317.362 511.237V516.175M347.03 511.237V516.175M317.362 516.175H347.03M317.362 516.175H312.911V530H351.974V516.175H347.03" stroke="#EBE9EA"/>
<path d="M464.808 287.734L367.222 233L362.808 240.75C362.808 240.75 372.616 244.625 372.616 246.562C372.616 248.5 372.125 253.344 374.577 254.797C377.029 256.25 460.885 295 460.885 295L464.808 287.734Z" fill="#EBE9EA" stroke="#EBE9EA"/>
<path d="M360.807 228H338.522H334.808C334.821 231.033 342.236 236.774 342.767 236.774C343.298 236.774 354.24 237.515 354.971 236.313C358.642 233.034 360.86 233.122 360.807 228Z" fill="#D2D2D2" stroke="#D1D3D2" stroke-linejoin="round"/>
<path d="M301.006 226H335.5C336.013 226 334.293 228.497 331.298 230.5C327.203 233.166 324.426 234.312 318.976 236C312.749 232.957 309.566 233.76 304.5 236.5C301.704 233.142 300.92 229.527 301.006 226Z" fill="#D3D1D2" stroke="#D3D1D2" stroke-linejoin="round"/>
<path d="M342.82 207H353.926L354.973 216.5C354.973 216.5 347.456 213.424 342.82 216.323C338.69 218.631 336.812 220.417 335.791 226.209C337.404 231.302 338.288 234.223 342.137 237L334.423 240.632L328.808 233C331.033 231.203 334.114 229.695 335.791 226.209C336.812 220.417 338.69 218.631 342.82 216.323V207Z" fill="#92A4AE"/>
<path d="M367.808 232.226L360.897 227C360.953 229.609 358.996 235.62 353.985 238L362.255 241L367.808 232.226Z" fill="#92A4AE"/>
<path d="M342.82 207V206.5C342.544 206.5 342.32 206.724 342.32 207H342.82ZM353.926 207L354.423 206.945C354.395 206.692 354.181 206.5 353.926 206.5V207ZM354.973 216.5L354.783 216.963L355.562 217.281L355.47 216.445L354.973 216.5ZM342.82 216.323L343.064 216.759C343.071 216.755 343.078 216.751 343.085 216.747L342.82 216.323ZM360.897 227L361.198 226.601C361.045 226.486 360.84 226.468 360.669 226.555C360.499 226.642 360.393 226.819 360.397 227.011L360.897 227ZM367.808 232.226L368.231 232.493C368.37 232.273 368.317 231.984 368.11 231.827L367.808 232.226ZM362.255 241L362.085 241.47C362.305 241.55 362.552 241.466 362.678 241.267L362.255 241ZM353.985 238L353.771 237.548L352.69 238.062L353.815 238.47L353.985 238ZM342.137 237L342.35 237.452C342.51 237.377 342.619 237.222 342.635 237.046C342.651 236.87 342.573 236.698 342.43 236.594L342.137 237ZM328.808 233L328.494 232.611C328.286 232.779 328.247 233.081 328.405 233.296L328.808 233ZM334.423 240.632L334.02 240.928C334.162 241.12 334.419 241.186 334.636 241.084L334.423 240.632ZM342.82 207.5H353.926V206.5H342.82V207.5ZM353.429 207.055L354.476 216.555L355.47 216.445L354.423 206.945L353.429 207.055ZM354.973 216.5C355.162 216.037 355.162 216.037 355.162 216.037C355.162 216.037 355.161 216.037 355.161 216.037C355.161 216.037 355.16 216.037 355.16 216.036C355.158 216.036 355.157 216.035 355.155 216.034C355.15 216.032 355.144 216.03 355.136 216.027C355.12 216.021 355.098 216.012 355.068 216C355.009 215.977 354.923 215.944 354.812 215.904C354.591 215.823 354.272 215.712 353.875 215.588C353.082 215.339 351.974 215.039 350.716 214.831C348.226 214.419 345.033 214.35 342.555 215.899L343.085 216.747C345.243 215.397 348.126 215.416 350.553 215.818C351.754 216.016 352.815 216.304 353.576 216.542C353.957 216.661 354.261 216.767 354.469 216.843C354.573 216.881 354.653 216.912 354.706 216.932C354.733 216.943 354.753 216.95 354.766 216.956C354.772 216.958 354.777 216.96 354.78 216.961C354.781 216.962 354.782 216.962 354.783 216.963C354.783 216.963 354.783 216.963 354.783 216.963C354.783 216.963 354.783 216.963 354.783 216.963C354.783 216.963 354.783 216.963 354.973 216.5ZM343.32 216.323V207H342.32V216.323H343.32ZM360.595 227.399L367.507 232.625L368.11 231.827L361.198 226.601L360.595 227.399ZM367.386 231.958L361.833 240.733L362.678 241.267L368.231 232.493L367.386 231.958ZM362.426 240.53L354.156 237.53L353.815 238.47L362.085 241.47L362.426 240.53ZM354.2 238.452C356.831 237.202 358.642 235.009 359.785 232.817C360.923 230.633 361.427 228.395 361.397 226.989L360.397 227.011C360.423 228.213 359.976 230.285 358.898 232.355C357.823 234.416 356.15 236.418 353.771 237.548L354.2 238.452ZM342.43 236.594C338.731 233.926 337.885 231.162 336.267 226.058L335.314 226.36C336.924 231.441 337.846 234.521 341.845 237.406L342.43 236.594ZM335.34 225.992C334.543 227.648 333.411 228.843 332.187 229.852C331.573 230.359 330.939 230.815 330.311 231.264C329.688 231.709 329.064 232.15 328.494 232.611L329.122 233.389C329.664 232.951 330.26 232.53 330.893 232.078C331.52 231.629 332.179 231.155 332.823 230.624C334.115 229.558 335.361 228.256 336.241 226.426L335.34 225.992ZM328.405 233.296L334.02 240.928L334.825 240.335L329.211 232.704L328.405 233.296ZM334.636 241.084L342.35 237.452L341.924 236.548L334.21 240.179L334.636 241.084ZM336.283 226.296C336.787 223.44 337.492 221.633 338.537 220.263C339.586 218.889 341.011 217.906 343.064 216.759L342.576 215.886C340.499 217.047 338.921 218.112 337.742 219.656C336.561 221.204 335.816 223.187 335.298 226.122L336.283 226.296Z" fill="#92A4AE"/>
<path d="M335.99 246L333.808 247.97L335.444 513H339.808L335.99 246Z" fill="url(#paint4_linear_283_2925)" stroke="#E4E3E3"/>
<path d="M330.776 249L322.002 253.925L315.808 511H331.808L330.776 249Z" fill="url(#paint5_linear_283_2925)" stroke="#E7E7E7"/>
<path d="M341.808 237L322.808 246.29V253L341.808 242.161V237Z" fill="#B1B1B1"/>
<path d="M341.808 237L322.808 246.29V253L341.808 242.161V237Z" stroke="#B1B1B1"/>
<path d="M341.808 237L322.808 246.29V253L341.808 242.161V237Z" stroke="#B1B1B1"/>
<path d="M341.808 237L322.808 246.29V253L341.808 242.161V237Z" stroke="#B1B1B1"/>
<path d="M316.808 515V511H346.808V515H316.808Z" fill="#B4B4B4" stroke="#B3B3B3"/>
<path d="M242.188 168.749H299.221V169.123C299.221 169.675 298.773 170.123 298.221 170.123H243.188C242.636 170.123 242.188 169.675 242.188 169.123V168.749Z" fill="#F0FFFF"/>
<path d="M242.188 167C242.188 166.448 242.636 166 243.188 166H298.221C298.773 166 299.221 166.448 299.221 167V167.374H242.188V167Z" fill="#EBFFFF"/>
<rect x="243.562" y="168.061" width="54.2845" height="1.03072" fill="#94C3E3"/>
<rect x="243.562" y="166.687" width="54.2845" height="1.03072" fill="#ABF0FF"/>
<rect x="243.562" y="167.374" width="55.6588" height="1.03072" fill="#3884B4"/>
<rect x="242.875" y="166.687" width="0.687146" height="0.687146" fill="#C0F5FF"/>
<rect x="242.188" y="166.687" width="0.687146" height="0.687146" fill="#E4F9FF"/>
<rect x="242.875" y="168.061" width="0.687146" height="1.03072" fill="#98BCD6"/>
<rect x="242.188" y="168.061" width="0.687146" height="1.03072" fill="#E0ECFA"/>
<rect x="242.875" y="167.374" width="0.687146" height="1.03072" fill="#407AA0"/>
<rect x="242.188" y="167.374" width="0.687146" height="1.03072" fill="#C7DCF1"/>
<rect x="297.847" y="166.687" width="0.687146" height="0.687146" fill="#C0F5FF"/>
<rect x="297.847" y="168.061" width="0.687146" height="1.03072" fill="#98BCD6"/>
<rect x="297.847" y="167.374" width="0.687146" height="1.03072" fill="#407AA0"/>
<rect x="298.534" y="166.687" width="0.687146" height="0.687146" fill="#E4F9FF"/>
<rect x="298.534" y="168.061" width="0.687146" height="1.03072" fill="#E0ECFA"/>
<rect x="298.534" y="167.374" width="0.687146" height="1.03072" fill="#C7DCF1"/>
<path d="M237.378 198.983H294.411V199.357C294.411 199.91 293.963 200.357 293.411 200.357H238.378C237.826 200.357 237.378 199.91 237.378 199.357V198.983Z" fill="#F0FFFF"/>
<path d="M237.378 197.234C237.378 196.682 237.826 196.234 238.378 196.234H293.411C293.963 196.234 294.411 196.682 294.411 197.234V197.609H237.378V197.234Z" fill="#EBFFFF"/>
<rect x="238.752" y="198.296" width="54.2845" height="1.03072" fill="#94C3E3"/>
<rect x="238.752" y="196.922" width="54.2845" height="1.03072" fill="#ABF0FF"/>
<rect x="238.752" y="197.609" width="55.6588" height="1.03072" fill="#3884B4"/>
<rect x="238.065" y="196.922" width="0.687146" height="0.687146" fill="#C0F5FF"/>
<rect x="237.378" y="196.922" width="0.687146" height="0.687146" fill="#E4F9FF"/>
<rect x="238.065" y="198.296" width="0.687146" height="1.03072" fill="#98BCD6"/>
<rect x="237.378" y="198.296" width="0.687146" height="1.03072" fill="#E0ECFA"/>
<rect x="238.065" y="197.609" width="0.687146" height="1.03072" fill="#407AA0"/>
<rect x="237.378" y="197.609" width="0.687146" height="1.03072" fill="#C7DCF1"/>
<rect x="293.037" y="196.922" width="0.687146" height="0.687146" fill="#C0F5FF"/>
<rect x="293.037" y="198.296" width="0.687146" height="1.03072" fill="#98BCD6"/>
<rect x="293.037" y="197.609" width="0.687146" height="1.03072" fill="#407AA0"/>
<rect x="293.724" y="196.922" width="0.687146" height="0.687146" fill="#E4F9FF"/>
<rect x="293.724" y="198.296" width="0.687146" height="1.03072" fill="#E0ECFA"/>
<rect x="293.724" y="197.609" width="0.687146" height="1.03072" fill="#C7DCF1"/>
<path d="M245.624 180.43H321.21V180.804C321.21 181.357 320.762 181.804 320.21 181.804H246.624C246.071 181.804 245.624 181.357 245.624 180.804V180.43Z" fill="#F0FFFF"/>
<path d="M245.624 178.682C245.624 178.129 246.071 177.682 246.624 177.682H320.21C320.762 177.682 321.21 178.129 321.21 178.682V179.056H245.624V178.682Z" fill="#EBFFFF"/>
<rect x="247.445" y="179.743" width="71.9433" height="1.03072" fill="#94C3E3"/>
<rect x="247.445" y="178.369" width="71.9433" height="1.03072" fill="#ABF0FF"/>
<rect x="247.445" y="179.056" width="73.7647" height="1.03072" fill="#3884B4"/>
<rect x="246.534" y="178.369" width="0.910675" height="0.687146" fill="#C0F5FF"/>
<rect x="245.624" y="178.369" width="0.910675" height="0.687146" fill="#E4F9FF"/>
<rect x="246.534" y="179.743" width="0.910675" height="1.03072" fill="#98BCD6"/>
<rect x="245.624" y="179.743" width="0.910675" height="1.03072" fill="#E0ECFA"/>
<rect x="246.534" y="179.056" width="0.910675" height="1.03072" fill="#407AA0"/>
<rect x="245.624" y="179.056" width="0.910675" height="1.03072" fill="#C7DCF1"/>
<rect x="319.388" y="178.369" width="0.910675" height="0.687146" fill="#C0F5FF"/>
<rect x="319.388" y="179.743" width="0.910675" height="1.03072" fill="#98BCD6"/>
<rect x="319.388" y="179.056" width="0.910675" height="1.03072" fill="#407AA0"/>
<rect x="320.299" y="178.369" width="0.910675" height="0.687146" fill="#E4F9FF"/>
<rect x="320.299" y="179.743" width="0.910675" height="1.03072" fill="#E0ECFA"/>
<rect x="320.299" y="179.056" width="0.910675" height="1.03072" fill="#C7DCF1"/>
<path d="M381.679 309.071H438.712V309.445C438.712 309.998 438.264 310.445 437.712 310.445H382.679C382.126 310.445 381.679 309.998 381.679 309.445V309.071Z" fill="#F0FFFF"/>
<path d="M381.679 307.322C381.679 306.77 382.126 306.322 382.679 306.322H437.712C438.264 306.322 438.712 306.77 438.712 307.322V307.697H381.679V307.322Z" fill="#EBFFFF"/>
<rect x="383.053" y="308.384" width="54.2845" height="1.03072" fill="#94C3E3"/>
<rect x="383.053" y="307.01" width="54.2845" height="1.03072" fill="#ABF0FF"/>
<rect x="383.053" y="307.697" width="55.6588" height="1.03072" fill="#3884B4"/>
<rect x="382.366" y="307.01" width="0.687146" height="0.687146" fill="#C0F5FF"/>
<rect x="381.679" y="307.01" width="0.687146" height="0.687146" fill="#E4F9FF"/>
<rect x="382.366" y="308.384" width="0.687146" height="1.03072" fill="#98BCD6"/>
<rect x="381.679" y="308.384" width="0.687146" height="1.03072" fill="#E0ECFA"/>
<rect x="382.366" y="307.697" width="0.687146" height="1.03072" fill="#407AA0"/>
<rect x="381.679" y="307.697" width="0.687146" height="1.03072" fill="#C7DCF1"/>
<path d="M376.868 339.305H433.902V339.68C433.902 340.232 433.454 340.68 432.902 340.68H377.868C377.316 340.68 376.868 340.232 376.868 339.68V339.305Z" fill="#F0FFFF"/>
<path d="M376.868 337.557C376.868 337.004 377.316 336.557 377.868 336.557H432.902C433.454 336.557 433.902 337.004 433.902 337.557V337.931H376.868V337.557Z" fill="#EBFFFF"/>
<rect x="378.243" y="338.618" width="54.2845" height="1.03072" fill="#94C3E3"/>
<rect x="378.243" y="337.244" width="54.2845" height="1.03072" fill="#ABF0FF"/>
<rect x="378.243" y="337.931" width="55.6588" height="1.03072" fill="#3884B4"/>
<rect x="377.556" y="337.244" width="0.687146" height="0.687146" fill="#C0F5FF"/>
<rect x="376.868" y="337.244" width="0.687146" height="0.687146" fill="#E4F9FF"/>
<rect x="377.556" y="338.618" width="0.687146" height="1.03072" fill="#98BCD6"/>
<rect x="376.868" y="338.618" width="0.687146" height="1.03072" fill="#E0ECFA"/>
<rect x="377.556" y="337.931" width="0.687146" height="1.03072" fill="#407AA0"/>
<rect x="376.868" y="337.931" width="0.687146" height="1.03072" fill="#C7DCF1"/>
<path d="M385.114 320.752H460.7V321.127C460.7 321.679 460.253 322.127 459.7 322.127H386.114C385.562 322.127 385.114 321.679 385.114 321.127V320.752Z" fill="#F0FFFF"/>
<path d="M385.114 319.004C385.114 318.451 385.562 318.004 386.114 318.004H459.7C460.253 318.004 460.7 318.451 460.7 319.004V319.378H385.114V319.004Z" fill="#EBFFFF"/>
<rect x="386.936" y="320.065" width="71.9433" height="1.03072" fill="#94C3E3"/>
<rect x="386.936" y="318.691" width="71.9433" height="1.03072" fill="#ABF0FF"/>
<rect x="386.936" y="319.378" width="73.7647" height="1.03072" fill="#3884B4"/>
<rect x="386.025" y="318.691" width="0.910675" height="0.687146" fill="#C0F5FF"/>
<rect x="385.114" y="318.691" width="0.910675" height="0.687146" fill="#E4F9FF"/>
<rect x="386.025" y="320.065" width="0.910675" height="1.03072" fill="#98BCD6"/>
<rect x="385.114" y="320.065" width="0.910675" height="1.03072" fill="#E0ECFA"/>
<rect x="386.025" y="319.378" width="0.910675" height="1.03072" fill="#407AA0"/>
<rect x="385.114" y="319.378" width="0.910675" height="1.03072" fill="#C7DCF1"/>
<path d="M346.89 83.0173C341.78 83.5619 343.174 95 343.174 95H352.5C352.5 95 352 82.4726 346.89 83.0173Z" fill="#CA2222" stroke="#CA2222"/>
<path d="M238 297.5L233 289C233 289 221.166 296.01 224.387 300.587C227.608 305.164 238 297.5 238 297.5Z" fill="#CA2222"/>
<path d="M233 289L233.431 288.746C233.364 288.632 233.253 288.549 233.125 288.516C232.996 288.483 232.859 288.502 232.745 288.57L233 289ZM238 297.5L238.297 297.902L238.659 297.635L238.431 297.246L238 297.5ZM224.387 300.587L224.796 300.3L224.796 300.3L224.387 300.587ZM232.569 289.254L237.569 297.754L238.431 297.246L233.431 288.746L232.569 289.254ZM238 297.5C237.703 297.098 237.703 297.098 237.703 297.098C237.703 297.098 237.703 297.098 237.703 297.098C237.703 297.098 237.703 297.098 237.702 297.098C237.701 297.099 237.699 297.1 237.697 297.102C237.693 297.105 237.686 297.111 237.676 297.117C237.657 297.131 237.629 297.152 237.592 297.178C237.517 297.232 237.406 297.31 237.263 297.409C236.977 297.606 236.565 297.884 236.059 298.203C235.046 298.843 233.668 299.645 232.197 300.304C230.718 300.966 229.183 301.466 227.847 301.537C226.522 301.606 225.468 301.255 224.796 300.3L223.978 300.875C224.916 302.209 226.369 302.615 227.899 302.535C229.417 302.456 231.084 301.898 232.606 301.216C234.135 300.531 235.557 299.703 236.593 299.049C237.112 298.721 237.536 298.436 237.831 298.232C237.979 298.13 238.094 298.048 238.173 297.992C238.213 297.963 238.243 297.941 238.264 297.926C238.274 297.919 238.282 297.913 238.288 297.909C238.291 297.907 238.293 297.905 238.294 297.904C238.295 297.904 238.296 297.903 238.296 297.903C238.296 297.903 238.296 297.903 238.296 297.903C238.297 297.902 238.297 297.902 238 297.5ZM224.796 300.3C224.137 299.363 224.21 298.28 224.82 297.071C225.436 295.852 226.56 294.595 227.822 293.447C229.077 292.305 230.436 291.3 231.485 290.579C232.008 290.219 232.452 289.93 232.765 289.733C232.921 289.634 233.045 289.558 233.129 289.507C233.17 289.481 233.202 289.462 233.224 289.449C233.234 289.442 233.242 289.438 233.248 289.434C233.25 289.433 233.252 289.432 233.253 289.431C233.254 289.431 233.254 289.43 233.255 289.43C233.255 289.43 233.255 289.43 233.255 289.43C233.255 289.43 233.255 289.43 233 289C232.745 288.57 232.745 288.57 232.745 288.57C232.745 288.57 232.745 288.57 232.744 288.57C232.744 288.571 232.743 288.571 232.742 288.571C232.741 288.572 232.738 288.574 232.735 288.576C232.729 288.579 232.72 288.585 232.709 288.592C232.685 288.606 232.651 288.626 232.607 288.653C232.519 288.707 232.392 288.786 232.231 288.888C231.909 289.091 231.454 289.386 230.918 289.755C229.848 290.491 228.45 291.524 227.149 292.707C225.856 293.884 224.625 295.238 223.927 296.62C223.224 298.013 223.027 299.523 223.978 300.875L224.796 300.3Z" fill="#CA2222"/>
</g>
<defs>
<linearGradient id="paint0_linear_283_2925" x1="170.682" y1="316.803" x2="176.282" y2="316.803" gradientUnits="userSpaceOnUse">
<stop stop-color="#D4D5D7"/>
<stop offset="0.95775" stop-color="#D4D5D7" stop-opacity="0"/>
</linearGradient>
<linearGradient id="paint1_linear_283_2925" x1="162.177" y1="318.563" x2="170.985" y2="318.563" gradientUnits="userSpaceOnUse">
<stop stop-color="#D9D9D9"/>
<stop offset="0.858804" stop-color="#D9D9D9" stop-opacity="0"/>
</linearGradient>
<linearGradient id="paint2_linear_283_2925" x1="160.709" y1="519.773" x2="171.836" y2="519.773" gradientUnits="userSpaceOnUse">
<stop stop-color="#D9D9D9"/>
<stop offset="0.858804" stop-color="#D9D9D9" stop-opacity="0"/>
</linearGradient>
<linearGradient id="paint3_linear_283_2925" x1="153.3" y1="519.773" x2="168.12" y2="520.137" gradientUnits="userSpaceOnUse">
<stop stop-color="#D9D9D9"/>
<stop offset="1" stop-color="#EBE9EA" stop-opacity="0"/>
</linearGradient>
<linearGradient id="paint4_linear_283_2925" x1="333.808" y1="246" x2="341.99" y2="246" gradientUnits="userSpaceOnUse">
<stop stop-color="#D4D5D7"/>
<stop offset="0.95775" stop-color="#D4D5D7" stop-opacity="0"/>
</linearGradient>
<linearGradient id="paint5_linear_283_2925" x1="323.808" y1="249" x2="336.453" y2="249" gradientUnits="userSpaceOnUse">
<stop stop-color="#D9D9D9"/>
<stop offset="0.858804" stop-color="#D9D9D9" stop-opacity="0"/>
</linearGradient>
<clipPath id="clip0_283_2925">
<rect width="390" height="556" fill="white"/>
</clipPath>
</defs>
</svg>
