<svg width="1440" height="718" viewBox="0 0 1440 718" fill="none" xmlns="http://www.w3.org/2000/svg">
<rect x="1" y="1" width="1440" height="717" fill="#FFFBED"/>
<path opacity="0.8" d="M270.671 189.101C193.353 231.977 1 189.101 1 189.101V252.723C1 252.723 268.785 316.346 376.277 252.723C483.768 189.101 546 1 546 1H436.623C436.623 1 347.99 146.225 270.671 189.101Z" fill="#FFEEA9" stroke="#FFEEA9"/>
<path opacity="0.8" d="M1149.34 166.591C1145.56 77.6372 1257.3 1 1257.3 1H1441V714H299C299 714 420.207 682.524 475.129 651.048C530.051 619.572 456.191 527.881 602.018 496.405C747.846 464.929 997.836 661.996 1090.64 622.309C1183.43 582.622 1257.3 459.455 1257.3 380.081C1257.3 300.706 1153.13 255.545 1149.34 166.591Z" fill="#FFEEA9" stroke="#FFEEA9"/>
<path d="M1353.18 333.181C1462.62 194.738 1436.2 231.655 1436.2 308.129V705H606C606 705 647.51 603.473 739.964 612.704C832.418 621.935 898.457 653.578 898.457 653.578C898.457 653.578 1307.9 724.776 1353.18 637.756C1398.46 550.736 1243.74 471.624 1353.18 333.181Z" fill="#FFE680" stroke="#FFE681"/>
<path opacity="0.8" d="M1231.93 373.493C1279.22 285.663 1440 160 1440 160V714H184C184 714 303.169 561.312 437.47 545.098C571.771 528.883 827.133 603.2 870.639 616.712C914.145 630.224 1137.35 642.385 1180.86 603.2C1224.36 564.015 1184.64 461.322 1231.93 373.493Z" fill="#FEF2C2" fill-opacity="0.5" stroke="#FFF4CC"/>
</svg>
