<svg width="39" height="39" viewBox="0 0 39 39" fill="none" xmlns="http://www.w3.org/2000/svg">
<circle cx="19.5" cy="19.5" r="19.5" fill="#FFC700"/>
<path d="M24 16.3586C25.3603 16.3586 26.6453 16.8423 27.5765 17.674C28.5041 18.5024 29 19.6001 29 20.7173V25.969H27V20.7173C27 19.9395 26.6531 19.2199 26.0803 18.7084C25.5113 18.2002 24.7614 17.9311 24 17.9311C23.2386 17.9311 22.4887 18.2002 21.9197 18.7084L22.5858 19.4542L21.9197 18.7084C21.3469 19.2199 21 19.9395 21 20.7173V25.969H19V20.7173C19 19.6001 19.4959 18.5024 20.4235 17.674C21.3547 16.8423 22.6397 16.3586 24 16.3586Z" fill="white" stroke="white" stroke-width="2" stroke-linecap="round" stroke-linejoin="round"/>
<path d="M11 25.969V17.2517H13V25.969H11Z" fill="white" stroke="white" stroke-width="2" stroke-linecap="round" stroke-linejoin="round"/>
<path d="M13 11.7862C13 12.1171 12.6616 12.5724 12 12.5724C11.3384 12.5724 11 12.1171 11 11.7862C11 11.4553 11.3384 11 12 11C12.6616 11 13 11.4553 13 11.7862Z" fill="white" stroke="white" stroke-width="2" stroke-linecap="round" stroke-linejoin="round"/>
</svg>
