<svg width="114" height="79" viewBox="0 0 114 79" fill="none" xmlns="http://www.w3.org/2000/svg">
<path d="M18 39.5C18 29.0239 22.1616 18.977 29.5693 11.5693C36.977 4.1616 47.0239 0 57.5 0C67.976 0 78.023 4.16159 85.4307 11.5693C92.8384 18.977 97 29.0239 97 39.5L94.0965 39.5C94.0965 29.794 90.2408 20.4855 83.3776 13.6224C76.5145 6.75917 67.206 2.90348 57.5 2.90348C47.794 2.90348 38.4855 6.75918 31.6224 13.6224C24.7592 20.4855 20.9035 29.794 20.9035 39.5H18Z" fill="#FFC700"/>
<path d="M27 40C27 31.7783 30.2134 23.8933 35.9332 18.0797C41.6531 12.2661 49.4109 9 57.5 9C65.5891 9 73.3469 12.2661 79.0668 18.0797C84.7866 23.8933 88 31.7783 88 40H85.7581C85.7581 32.3826 82.7809 25.0772 77.4815 19.691C72.1821 14.3047 64.9945 11.2787 57.5 11.2787C50.0055 11.2787 42.8179 14.3047 37.5185 19.691C32.2191 25.0773 29.2419 32.3826 29.2419 40H27Z" fill="#FFC700"/>
<path d="M80 39.5C80 33.7978 77.6821 28.3292 73.5564 24.2972C69.4305 20.2652 63.8348 18 58 18C52.1652 18 46.5695 20.2652 42.4437 24.2972C38.3179 28.3292 36 33.7978 36 39.5L58 39.5H80Z" fill="#FFC700"/>
<path d="M6.01136 55V43.3636H10.6023C11.4848 43.3636 12.2367 43.5322 12.858 43.8693C13.4792 44.2027 13.9527 44.6667 14.2784 45.2614C14.608 45.8523 14.7727 46.5341 14.7727 47.3068C14.7727 48.0795 14.6061 48.7614 14.2727 49.3523C13.9394 49.9432 13.4564 50.4034 12.8239 50.733C12.1951 51.0625 11.4337 51.2273 10.5398 51.2273H7.61364V49.2557H10.142C10.6155 49.2557 11.0057 49.1742 11.3125 49.0114C11.6231 48.8447 11.8542 48.6155 12.0057 48.3239C12.161 48.0284 12.2386 47.6894 12.2386 47.3068C12.2386 46.9205 12.161 46.5833 12.0057 46.2955C11.8542 46.0038 11.6231 45.7784 11.3125 45.6193C11.0019 45.4564 10.608 45.375 10.1307 45.375H8.47159V55H6.01136ZM27.0639 49.1818C27.0639 50.4508 26.8234 51.5303 26.3423 52.4205C25.8651 53.3106 25.2135 53.9905 24.3878 54.4602C23.5658 54.9261 22.6416 55.1591 21.6151 55.1591C20.581 55.1591 19.6529 54.9242 18.831 54.4545C18.009 53.9848 17.3594 53.3049 16.8821 52.4148C16.4048 51.5246 16.1662 50.447 16.1662 49.1818C16.1662 47.9129 16.4048 46.8333 16.8821 45.9432C17.3594 45.053 18.009 44.375 18.831 43.9091C19.6529 43.4394 20.581 43.2045 21.6151 43.2045C22.6416 43.2045 23.5658 43.4394 24.3878 43.9091C25.2135 44.375 25.8651 45.053 26.3423 45.9432C26.8234 46.8333 27.0639 47.9129 27.0639 49.1818ZM24.5696 49.1818C24.5696 48.3598 24.4465 47.6667 24.2003 47.1023C23.9579 46.5379 23.6151 46.1098 23.1719 45.8182C22.7287 45.5265 22.2098 45.3807 21.6151 45.3807C21.0204 45.3807 20.5014 45.5265 20.0582 45.8182C19.6151 46.1098 19.2704 46.5379 19.0241 47.1023C18.7817 47.6667 18.6605 48.3598 18.6605 49.1818C18.6605 50.0038 18.7817 50.697 19.0241 51.2614C19.2704 51.8258 19.6151 52.2538 20.0582 52.5455C20.5014 52.8371 21.0204 52.983 21.6151 52.983C22.2098 52.983 22.7287 52.8371 23.1719 52.5455C23.6151 52.2538 23.9579 51.8258 24.2003 51.2614C24.4465 50.697 24.5696 50.0038 24.5696 49.1818ZM31.0682 55L27.7386 43.3636H30.4261L32.3523 51.4489H32.4489L34.5739 43.3636H36.875L38.9943 51.4659H39.0966L41.0227 43.3636H43.7102L40.3807 55H37.983L35.767 47.392H35.6761L33.4659 55H31.0682ZM45.027 55V43.3636H52.8679V45.392H47.4872V48.1648H52.4645V50.1932H47.4872V52.9716H52.8906V55H45.027ZM54.8239 55V43.3636H59.4148C60.2936 43.3636 61.0436 43.5208 61.6648 43.8352C62.2898 44.1458 62.7652 44.5871 63.0909 45.1591C63.4205 45.7273 63.5852 46.3958 63.5852 47.1648C63.5852 47.9375 63.4186 48.6023 63.0852 49.1591C62.7519 49.7121 62.2689 50.1364 61.6364 50.4318C61.0076 50.7273 60.2462 50.875 59.3523 50.875H56.2784V48.8977H58.9545C59.4242 48.8977 59.8144 48.8333 60.125 48.7045C60.4356 48.5758 60.6667 48.3826 60.8182 48.125C60.9735 47.8674 61.0511 47.5473 61.0511 47.1648C61.0511 46.7784 60.9735 46.4527 60.8182 46.1875C60.6667 45.9223 60.4337 45.7216 60.1193 45.5852C59.8087 45.4451 59.4167 45.375 58.9432 45.375H57.2841V55H54.8239ZM61.108 49.7045L64 55H61.2841L58.4545 49.7045H61.108Z" fill="#FFC700"/>
<path d="M65.3239 55V43.3636H67.7841V52.9716H72.7727V55H65.3239ZM76.8622 43.3636V55H74.402V43.3636H76.8622ZM88.6193 43.3636V55H86.4943L81.4318 47.6761H81.3466V55H78.8864V43.3636H81.0455L86.0682 50.6818H86.1705V43.3636H88.6193ZM90.652 55V43.3636H98.4929V45.392H93.1122V48.1648H98.0895V50.1932H93.1122V52.9716H98.5156V55H90.652ZM106.761 46.7102C106.716 46.2519 106.521 45.8958 106.176 45.642C105.831 45.3883 105.364 45.2614 104.773 45.2614C104.371 45.2614 104.032 45.3182 103.756 45.4318C103.479 45.5417 103.267 45.6951 103.119 45.892C102.975 46.089 102.903 46.3125 102.903 46.5625C102.896 46.7708 102.939 46.9527 103.034 47.108C103.133 47.2633 103.267 47.3977 103.438 47.5114C103.608 47.6212 103.805 47.7178 104.028 47.8011C104.252 47.8807 104.491 47.9489 104.744 48.0057L105.79 48.2557C106.297 48.3693 106.763 48.5208 107.188 48.7102C107.612 48.8996 107.979 49.1326 108.29 49.4091C108.6 49.6856 108.841 50.0114 109.011 50.3864C109.186 50.7614 109.275 51.1913 109.278 51.6761C109.275 52.3883 109.093 53.0057 108.733 53.5284C108.377 54.0473 107.862 54.4508 107.188 54.7386C106.517 55.0227 105.708 55.1648 104.761 55.1648C103.822 55.1648 103.004 55.0208 102.307 54.733C101.614 54.4451 101.072 54.0189 100.682 53.4545C100.295 52.8864 100.093 52.1837 100.074 51.3466H102.455C102.481 51.7367 102.593 52.0625 102.79 52.3239C102.991 52.5814 103.258 52.7765 103.591 52.9091C103.928 53.0379 104.309 53.1023 104.733 53.1023C105.15 53.1023 105.511 53.0417 105.818 52.9205C106.129 52.7992 106.369 52.6307 106.54 52.4148C106.71 52.1989 106.795 51.9508 106.795 51.6705C106.795 51.4091 106.718 51.1894 106.562 51.0114C106.411 50.8333 106.188 50.6818 105.892 50.5568C105.6 50.4318 105.242 50.3182 104.818 50.2159L103.551 49.8977C102.57 49.6591 101.795 49.286 101.227 48.7784C100.659 48.2708 100.377 47.5871 100.381 46.7273C100.377 46.0227 100.564 45.4072 100.943 44.8807C101.326 44.3542 101.85 43.9432 102.517 43.6477C103.184 43.3523 103.941 43.2045 104.79 43.2045C105.653 43.2045 106.407 43.3523 107.051 43.6477C107.699 43.9432 108.203 44.3542 108.562 44.8807C108.922 45.4072 109.108 46.017 109.119 46.7102H106.761Z" fill="black"/>
<line y1="39.5" x2="114" y2="39.5" stroke="#FFC700"/>
</svg>
