<svg version="1.1" id="Layer_1" xmlns="http://www.w3.org/2000/svg" xmlns:xlink="http://www.w3.org/1999/xlink" x="0px" y="0px"
	 width="100%" viewBox="0 0 497 503" enable-background="new 0 0 497 503" xml:space="preserve">
<path fill="#000000" opacity="1.000000" stroke="none" 
	d="
M498.000000,196.000000 
	C498.000000,298.999969 498.000000,401.499969 498.000000,503.999939 
	C332.333405,503.999969 166.666794,503.999969 1.000144,504.000000 
	C1.000096,336.333435 1.000096,168.666870 1.000048,1.000234 
	C166.666519,1.000156 332.333038,1.000156 497.999786,1.000078 
	C498.000000,65.833336 498.000000,130.666672 498.000000,196.000000 
M478.952820,435.422089 
	C478.598022,435.375214 478.243256,435.328308 477.237274,435.299927 
	C476.823853,435.210663 476.410400,435.121399 475.721802,434.205414 
	C472.816895,434.019867 469.911957,433.834290 466.900726,433.641907 
	C466.900726,427.995270 467.134918,422.819763 466.797760,417.681763 
	C466.639069,415.263397 465.382355,412.917084 463.835510,410.503906 
	C459.618591,406.514740 454.343750,406.867645 449.085175,405.997498 
	C449.112518,369.693848 449.139893,333.390167 450.071686,297.012238 
	C455.024231,296.847900 459.976776,296.683563 464.929352,296.519226 
	C465.052887,293.304108 466.380402,291.590302 466.422699,289.845337 
	C466.635651,281.058258 466.822113,272.247528 466.380005,263.477264 
	C466.154968,259.013275 463.562103,255.451630 458.912781,253.490265 
	C458.585266,253.412643 458.257782,253.335022 457.511658,253.160965 
	C457.511658,253.160965 457.087769,253.230637 456.166931,252.987335 
	C416.838898,252.959579 377.510864,252.931824 338.042877,251.988617 
	C338.034485,238.990860 338.057434,225.992889 337.975616,212.995590 
	C337.966064,211.476807 337.378174,209.961685 337.141418,208.451721 
	C337.141418,208.451721 337.224762,208.452179 337.741608,207.845703 
	C342.105621,207.786453 346.469635,207.727203 351.593079,207.843521 
	C352.065918,207.231613 352.538788,206.619690 353.124237,205.374725 
	C356.285217,201.955399 357.213654,197.970123 356.931458,193.330490 
	C356.578156,187.522049 356.886353,181.675430 356.834686,175.845947 
	C356.787323,170.499496 352.245697,166.029160 346.923645,165.995758 
	C344.758301,165.982162 342.394073,166.534348 340.485870,165.833664 
	C338.737213,165.191559 336.302673,163.290375 336.199921,161.803726 
	C335.565430,152.620804 333.423096,143.936325 329.023956,135.865173 
	C325.625916,129.630722 322.566040,123.106209 318.378418,117.432007 
	C311.701599,108.384865 302.975006,101.513145 293.116882,95.916771 
	C282.377289,89.820023 271.515259,84.405823 259.054108,82.870430 
	C257.787415,82.714355 255.780304,81.236549 255.681778,80.220360 
	C255.290604,76.185806 255.520874,72.091003 255.520874,67.827065 
	C258.217255,67.827065 260.032318,67.827065 261.847412,67.827065 
	C280.669800,67.827057 299.492188,67.843124 318.314514,67.816200 
	C323.275391,67.809097 327.527893,64.339615 327.506287,60.599789 
	C327.417877,45.280178 327.316101,29.960123 327.352600,14.640550 
	C327.369415,7.581573 326.137970,6.028350 319.127869,6.013145 
	C295.475037,5.961843 271.822052,5.971078 248.169189,6.007610 
	C241.278320,6.018253 238.247726,9.183745 238.244019,16.180882 
	C238.233047,36.835526 238.156311,57.490852 238.321899,78.144173 
	C238.349731,81.616615 236.993210,82.441795 233.905380,83.105247 
	C226.833237,84.624763 219.656097,86.130295 212.950699,88.742828 
	C206.773376,91.149620 200.953613,94.681595 195.358246,98.307281 
	C191.070419,101.085701 187.413345,104.826538 183.411743,108.060135 
	C176.985992,113.252632 172.877670,120.123299 168.685303,127.102974 
	C162.000580,138.232086 158.423538,150.202194 156.802032,163.742935 
	C154.659897,164.117355 152.078384,165.166245 149.662399,164.869125 
	C144.273270,164.206375 141.106552,166.886765 138.288055,171.514557 
	C138.196060,171.696136 138.104050,171.877716 137.485611,172.073624 
	C137.371475,172.371475 137.257355,172.669312 136.977249,173.895645 
	C137.066193,182.734131 137.155151,191.572601 137.312119,201.250824 
	C139.148788,206.317078 142.394196,208.699203 148.049301,207.556778 
	C150.578842,207.045746 153.297409,207.470352 156.206116,207.470352 
	C156.206116,222.439224 156.217865,237.020218 156.173065,251.601059 
	C156.170715,252.368958 155.688934,253.135391 155.510788,253.909744 
	C155.510788,253.909744 155.449875,253.898438 155.223938,253.093582 
	C115.480675,253.098114 75.737404,253.102646 35.370056,252.978745 
	C34.724987,253.421417 34.079918,253.864090 32.675976,254.263123 
	C31.862787,254.817276 31.049597,255.371445 29.552902,256.004272 
	C28.711468,257.991516 27.204590,259.958588 27.143721,261.969452 
	C26.879314,270.704468 26.988628,279.452789 27.093410,288.194702 
	C27.108589,289.461212 27.836472,290.719116 28.378008,292.642181 
	C29.937666,293.990295 31.497324,295.338409 33.381855,297.501343 
	C37.122551,297.758667 40.863247,298.015961 44.903866,298.293884 
	C44.903866,334.608276 44.903866,370.769379 44.013847,407.022156 
	C40.742764,407.352631 37.471680,407.683105 33.432491,408.069275 
	C32.590225,408.682465 31.747961,409.295654 30.727016,410.377411 
	C30.443495,410.536407 30.159973,410.695435 29.060585,410.754700 
	C28.386343,412.632111 27.216959,414.487061 27.130737,416.391113 
	C26.872522,422.093262 27.037855,427.814545 27.037855,433.019989 
	C23.281528,433.885803 20.158087,434.605743 16.361317,435.361389 
	C16.017570,435.781128 15.673826,436.200867 14.741574,436.031433 
	C13.862927,437.049438 12.984281,438.067444 11.624622,439.385498 
	C11.556785,439.940521 11.488948,440.495544 10.516937,441.193054 
	C10.373870,451.065369 10.215697,460.937561 10.146002,470.810364 
	C10.143364,471.183899 10.997583,471.563446 11.470572,472.662750 
	C13.097359,478.233673 17.623367,478.622437 22.282644,478.622803 
	C172.026917,478.634918 321.771210,478.601685 471.515320,478.753815 
	C477.133606,478.759521 480.211914,476.329437 483.536011,471.868347 
	C483.682037,462.138458 483.934814,452.407562 483.843567,442.679932 
	C483.831665,441.415863 482.046295,440.168457 481.002869,438.483551 
	C481.002869,438.483551 480.905396,438.057556 481.095490,437.277405 
	C480.379211,436.873230 479.662933,436.469086 479.002502,436.005768 
	C479.002502,436.005768 478.935638,436.051239 478.952820,435.422089 
z"/>
<path fill="#FCFCFC" opacity="1.000000" stroke="none" 
	d="
M458.859375,254.069733 
	C463.562103,255.451630 466.154968,259.013275 466.380005,263.477264 
	C466.822113,272.247528 466.635651,281.058258 466.422699,289.845337 
	C466.380402,291.590302 465.052887,293.304108 464.929352,296.519226 
	C459.976776,296.683563 455.024231,296.847900 449.211975,297.126709 
	C447.904633,299.012878 447.070618,300.783661 447.066498,302.556366 
	C446.988708,335.908997 447.008362,369.261841 447.012604,402.614655 
	C447.012756,403.939697 446.968414,405.280029 447.179718,406.574890 
	C447.215179,406.792053 448.456879,406.812347 449.141235,406.923615 
	C454.343750,406.867645 459.618591,406.514740 464.006165,410.927277 
	C464.594666,419.492615 465.012482,427.634613 465.449310,436.146698 
	C469.209595,435.749359 472.603271,435.390747 475.996979,435.032135 
	C476.410400,435.121399 476.823853,435.210663 477.634705,435.551514 
	C478.333313,435.885803 478.634491,435.968506 478.935638,436.051239 
	C478.935638,436.051239 479.002502,436.005768 478.897888,436.355865 
	C479.497284,437.156494 480.201355,437.607025 480.905396,438.057556 
	C480.905396,438.057556 481.002869,438.483551 481.105896,439.123352 
	C481.488159,441.485779 481.963654,443.202759 482.013672,444.932007 
	C482.274078,453.935944 482.426239,462.943024 482.616058,471.949005 
	C480.211914,476.329437 477.133606,478.759521 471.515320,478.753815 
	C321.771210,478.601685 172.026917,478.634918 22.282644,478.622803 
	C17.623367,478.622437 13.097359,478.233673 11.679390,471.959229 
	C11.732512,461.187317 11.576813,451.118958 11.421112,441.050568 
	C11.488948,440.495544 11.556785,439.940521 12.179724,439.269592 
	C13.599905,438.309296 14.464985,437.464935 15.330072,436.620575 
	C15.673826,436.200867 16.017570,435.781128 17.028221,435.571930 
	C21.317587,435.782471 24.940048,435.782471 29.028269,435.782471 
	C29.028269,432.337097 28.928761,429.212433 29.050835,426.096466 
	C29.249994,421.012817 29.593714,415.934814 29.876446,410.854431 
	C30.159973,410.695435 30.443495,410.536407 31.149788,410.198822 
	C32.448566,409.351318 33.324577,408.682434 34.200592,408.013550 
	C37.471680,407.683105 40.742764,407.352631 44.785450,407.094025 
	C46.026936,405.738190 46.903748,404.311401 46.907032,402.882629 
	C46.984020,369.403046 46.967625,335.923309 46.962799,302.443573 
	C46.962608,301.112427 47.229561,299.657715 46.780773,298.487305 
	C46.387524,297.461731 45.167603,296.038940 44.302967,296.032043 
	C40.556282,296.002167 36.805973,296.427032 33.056980,296.686523 
	C31.497324,295.338409 29.937666,293.990295 28.563553,291.989655 
	C28.842138,289.182892 28.841066,287.019714 29.044409,284.875946 
	C29.956297,275.262115 26.843191,265.352753 31.157698,255.990555 
	C30.850601,255.968903 30.543507,255.947266 30.236408,255.925613 
	C31.049597,255.371445 31.862787,254.817276 33.426949,254.560699 
	C34.790447,254.870560 35.402969,254.882874 36.482193,254.925980 
	C76.627190,254.944260 116.305473,254.931732 156.249496,254.685989 
	C156.153610,254.269333 155.791977,254.085922 155.430359,253.902496 
	C155.688934,253.135391 156.170715,252.368958 156.173065,251.601059 
	C156.217865,237.020218 156.206116,222.439224 156.206116,207.470352 
	C153.297409,207.470352 150.578842,207.045746 148.049301,207.556778 
	C142.394196,208.699203 139.148788,206.317078 137.796967,200.622406 
	C138.351593,190.308868 138.421356,180.623749 138.491104,170.938644 
	C141.106552,166.886765 144.273270,164.206375 149.662399,164.869125 
	C152.078384,165.166245 154.659897,164.117355 156.802032,163.742935 
	C158.423538,150.202194 162.000580,138.232086 168.685303,127.102974 
	C172.877670,120.123299 176.985992,113.252632 183.411743,108.060135 
	C187.413345,104.826538 191.070419,101.085701 195.358246,98.307281 
	C200.953613,94.681595 206.773376,91.149620 212.950699,88.742828 
	C219.656097,86.130295 226.833237,84.624763 233.905380,83.105247 
	C236.993210,82.441795 238.349731,81.616615 238.321899,78.144173 
	C238.156311,57.490852 238.233047,36.835526 238.244019,16.180882 
	C238.247726,9.183745 241.278320,6.018253 248.169189,6.007610 
	C271.822052,5.971078 295.475037,5.961843 319.127869,6.013145 
	C326.137970,6.028350 327.369415,7.581573 327.352600,14.640550 
	C327.316101,29.960123 327.417877,45.280178 327.506287,60.599789 
	C327.527893,64.339615 323.275391,67.809097 318.314514,67.816200 
	C299.492188,67.843124 280.669800,67.827057 261.847412,67.827065 
	C260.032318,67.827065 258.217255,67.827065 255.520874,67.827065 
	C255.520874,72.091003 255.290604,76.185806 255.681778,80.220360 
	C255.780304,81.236549 257.787415,82.714355 259.054108,82.870430 
	C271.515259,84.405823 282.377289,89.820023 293.116882,95.916771 
	C302.975006,101.513145 311.701599,108.384865 318.378418,117.432007 
	C322.566040,123.106209 325.625916,129.630722 329.023956,135.865173 
	C333.423096,143.936325 335.565430,152.620804 336.199921,161.803726 
	C336.302673,163.290375 338.737213,165.191559 340.485870,165.833664 
	C342.394073,166.534348 344.758301,165.982162 346.923645,165.995758 
	C352.245697,166.029160 356.787323,170.499496 356.834686,175.845947 
	C356.886353,181.675430 356.578156,187.522049 356.931458,193.330490 
	C357.213654,197.970123 356.285217,201.955399 352.738312,205.687347 
	C351.846130,206.555969 351.339874,207.111954 350.833649,207.667938 
	C346.469635,207.727203 342.105621,207.786453 337.043213,208.103790 
	C336.235352,222.740204 336.115997,237.118484 336.058044,251.497040 
	C336.056061,251.991913 336.668396,252.489288 337.082184,253.394806 
	C338.466980,254.196640 339.763428,254.929962 341.061096,254.932098 
	C378.432129,254.993591 415.803314,254.999588 453.174255,254.908188 
	C454.480133,254.904999 455.783325,253.814407 457.087769,253.230621 
	C457.087769,253.230637 457.511658,253.160965 457.759277,253.454956 
	C458.006897,253.748932 458.361969,254.098511 458.361969,254.098511 
	C458.361969,254.098511 458.859375,254.069733 458.859375,254.069733 
M337.864594,361.144958 
	C337.134521,361.547882 336.404449,361.950806 335.451874,363.022217 
	C334.439728,363.889832 333.427551,364.757446 331.902222,365.692627 
	C331.858612,366.125275 331.815002,366.557953 331.648590,367.704193 
	C330.473022,369.623047 328.450958,371.477814 328.299866,373.474182 
	C327.994415,377.510315 328.877441,381.619904 328.957123,385.705322 
	C329.095367,392.788330 328.995514,399.875977 328.995514,406.692474 
	C342.119110,406.692474 354.536530,406.692474 367.069427,406.692474 
	C367.069427,397.031952 367.069397,387.707306 367.069458,378.382660 
	C367.069458,377.882690 367.110077,377.379059 367.064575,376.883301 
	C366.239349,367.897644 360.411804,359.596497 349.806519,359.135406 
	C345.604034,357.537628 341.673920,357.300812 338.517212,361.538483 
	C338.517212,361.538483 338.383545,361.666290 337.864594,361.144958 
M312.348755,22.919216 
	C312.189819,22.982582 312.030914,23.045946 311.440948,23.004713 
	C311.440948,23.004713 311.016388,22.876083 310.791992,22.105976 
	C309.776520,21.739182 308.762360,21.057156 307.745331,21.052790 
	C291.980164,20.985126 276.214294,20.966021 260.449738,21.085823 
	C259.289917,21.094635 258.138794,22.252445 256.497620,22.995430 
	C256.330902,22.990067 256.164154,22.984703 255.640488,22.361536 
	C255.210388,22.695820 254.408966,23.025028 254.404312,23.365116 
	C254.274185,32.886276 254.213806,42.408558 254.233612,51.930470 
	C254.234039,52.136787 255.305649,52.340874 256.826721,52.479019 
	C275.290039,52.365585 293.753357,52.252151 312.700012,52.308140 
	C312.812622,52.179821 312.925232,52.051502 313.786346,51.509312 
	C313.846405,42.467052 313.924713,33.424782 313.918701,24.382568 
	C313.918335,23.869869 313.226593,23.357635 312.348755,22.919216 
M126.495346,406.921631 
	C126.701218,406.926758 126.907089,406.931915 128.032562,407.023315 
	C140.272018,407.023315 152.511490,407.023315 165.038940,407.023315 
	C165.038940,396.397034 165.459076,386.264130 164.912262,376.183655 
	C164.434433,367.374939 158.756744,361.136383 151.033188,359.868408 
	C145.924011,359.029633 139.816666,358.443146 134.266373,362.556976 
	C128.804245,366.605469 125.851044,369.625244 126.399895,375.849609 
	C126.399895,375.849609 126.063927,375.927887 125.329353,376.393555 
	C125.228958,382.840973 125.011360,389.289490 125.073349,395.735352 
	C125.108994,399.440735 125.597618,403.141754 126.495346,406.921631 
M313.823090,406.431427 
	C313.871582,401.636566 314.048401,396.838745 313.937714,392.047546 
	C313.782379,385.324188 313.413269,378.605713 313.127441,371.128937 
	C315.954163,365.469086 317.722839,358.797546 321.899933,354.428802 
	C326.233246,349.896667 332.593475,346.804718 338.607391,344.480469 
	C351.321655,339.566589 368.854431,346.406921 376.775085,358.340881 
	C381.579529,365.579620 383.997253,373.438232 383.961792,382.102661 
	C383.928009,390.355591 383.954498,398.608826 383.954498,406.737305 
	C390.996796,406.737305 397.405609,406.737305 403.931671,406.737305 
	C403.931671,370.329498 403.931671,334.213562 404.078918,297.618011 
	C404.100769,297.452179 404.122620,297.286377 404.539001,296.523285 
	C402.756012,296.353180 400.973053,296.034637 399.190033,296.034210 
	C299.461914,296.010345 199.733795,296.013000 100.005669,296.013245 
	C97.008835,296.013275 94.010506,295.971008 91.016884,296.070099 
	C90.595978,296.084015 90.198196,296.796753 89.860703,297.642120 
	C89.860703,297.642120 90.044220,298.065643 89.940170,298.989594 
	C89.940170,334.905792 89.940170,370.821960 89.940170,406.795654 
	C96.865196,406.795654 103.274963,406.795654 110.020622,406.795654 
	C110.020622,397.441193 109.892365,388.313629 110.085159,379.192871 
	C110.159943,375.654541 110.658005,372.058502 111.489594,368.615906 
	C113.613289,359.824249 120.366814,354.237091 126.853058,348.990448 
	C130.536682,346.010773 135.776398,344.228333 140.561554,343.479004 
	C152.844467,341.555481 162.683365,346.963623 171.517273,355.116913 
	C177.170578,360.334686 179.606079,366.803375 180.296890,374.305237 
	C180.248032,374.914337 180.199173,375.523468 180.069824,377.046204 
	C180.051376,386.160126 180.001968,395.274292 180.062210,404.387695 
	C180.068253,405.302368 180.738876,406.212646 181.610580,407.074097 
	C181.774292,407.025787 181.937988,406.977509 183.022186,407.021454 
	C192.287582,407.021454 201.552963,407.021454 211.057602,407.021454 
	C211.057602,404.501343 211.025620,402.526978 211.062561,400.553925 
	C211.414703,381.747833 211.216019,362.905060 212.444794,344.156036 
	C212.873505,337.614563 216.062531,330.859894 221.927048,326.410706 
	C225.749985,323.510345 229.337921,320.028687 233.606644,318.047241 
	C241.147736,314.546753 249.333176,318.006439 257.200989,317.099396 
	C257.507874,317.063995 257.972290,317.141388 258.141449,317.347931 
	C262.662628,322.867920 270.618835,322.984161 274.860992,330.420013 
	C279.342377,338.275238 282.957031,345.531952 282.923859,354.537476 
	C282.874756,367.863464 282.911194,381.189789 282.911194,394.515961 
	C282.911194,398.614349 282.911163,402.712769 282.911163,406.941437 
	C292.962891,406.941437 302.432892,406.941437 312.513702,406.973175 
	C312.715729,406.945770 312.917755,406.918365 313.823090,406.431427 
M199.482071,253.956787 
	C199.654526,253.641052 199.826981,253.325333 200.453522,253.129700 
	C200.453522,253.129700 200.912292,253.230331 201.004517,254.049866 
	C209.167801,254.494171 217.331085,254.938477 225.494385,255.382782 
	C225.545303,255.042664 225.596222,254.702560 225.647156,254.362457 
	C225.137192,253.985077 224.627228,253.607697 224.958572,252.854645 
	C224.958572,237.832077 224.958572,222.809509 224.958572,207.469925 
	C219.541885,207.469925 214.086548,207.362549 208.638168,207.510956 
	C205.466248,207.597351 202.305481,208.093704 198.263275,208.359772 
	C198.174286,223.045090 198.076218,237.730362 198.036087,252.415817 
	C198.034760,252.901749 198.621216,253.389282 199.482071,253.956787 
M339.514130,179.155624 
	C339.017609,179.109131 338.521057,179.021988 338.024536,179.021927 
	C277.887299,179.013779 217.750046,179.006866 157.612839,179.048111 
	C156.440811,179.048920 155.269196,179.619370 153.933182,180.491104 
	C153.973862,180.683655 154.014542,180.876190 153.959579,181.985489 
	C153.959579,185.262207 153.959579,188.538910 153.959579,192.131912 
	C156.057343,192.131912 157.685989,192.131912 159.314651,192.131912 
	C186.102127,192.131912 212.889633,192.149246 239.677094,192.127518 
	C272.784332,192.100647 305.891602,192.041367 339.438995,192.533264 
	C339.635223,188.690887 339.831451,184.848495 340.092010,180.448013 
	C340.027252,180.272308 339.962494,180.096588 339.514130,179.155624 
M319.792969,207.455338 
	C316.980530,207.434494 314.168091,207.413651 310.519165,207.065903 
	C310.080719,208.436432 309.274109,209.803650 309.261810,211.177994 
	C309.159393,222.644104 309.203094,234.111511 309.202911,245.578537 
	C309.202789,255.516006 309.197540,255.423050 319.142303,254.849716 
	C322.152771,254.676147 323.125397,253.509003 323.100830,250.565842 
	C322.991241,237.437851 323.120117,224.307556 322.948090,211.180908 
	C322.931366,209.905167 321.439331,208.648743 319.792969,207.455338 
M44.898129,283.033783 
	C178.945786,283.044128 312.993439,283.054840 447.041077,283.057404 
	C448.036011,283.057434 449.030914,282.945312 450.653442,282.761749 
	C450.721191,282.146088 450.788940,281.530457 450.983154,280.021942 
	C450.986481,279.355316 450.995361,278.688660 450.992249,278.022064 
	C450.950378,269.010803 451.926270,269.965576 443.030426,269.965118 
	C311.533966,269.958160 180.037506,269.960327 48.541042,269.960327 
	C46.771652,269.960327 45.002258,269.960327 43.144825,269.960327 
	C43.144825,273.967102 43.144825,277.440216 43.038986,281.546356 
	C43.350414,281.991028 43.661846,282.435699 44.898129,283.033783 
M431.557281,407.171814 
	C432.032135,405.747742 432.918274,404.324646 432.921570,402.899506 
	C432.999390,369.307953 432.983582,335.716187 432.976257,302.124451 
	C432.975983,300.798401 432.946228,299.464508 432.764038,298.157440 
	C432.743988,298.013763 431.620422,298.023926 430.090973,297.810150 
	C427.150757,297.810150 424.210541,297.810150 421.209412,297.810150 
	C421.209412,334.443268 421.209412,370.625854 421.209412,406.937622 
	C424.625214,406.937622 427.763885,406.937622 431.557281,407.171814 
M64.008369,407.019806 
	C66.940140,407.019806 69.871910,407.019806 72.940872,407.019806 
	C72.940872,370.339325 72.940872,334.213165 73.267136,297.412415 
	C69.930412,296.930023 66.586555,296.131927 63.262455,296.207092 
	C62.515015,296.223999 61.224590,299.288452 61.217335,300.954437 
	C61.091137,329.937103 61.126202,358.920441 61.126373,387.903656 
	C61.126404,393.567047 61.059605,399.232269 61.215332,404.891388 
	C61.234493,405.587799 62.444862,406.251373 64.008369,407.019806 
M293.987640,252.897324 
	C293.987640,237.849609 293.987640,222.801895 293.987640,207.469925 
	C287.984100,207.469925 281.854248,207.376175 275.729675,207.515091 
	C273.207947,207.572296 270.697571,208.129990 267.304352,208.396210 
	C267.217255,222.990128 267.118622,237.584030 267.097046,252.178040 
	C267.096405,252.630722 267.894684,253.084579 268.743011,253.513977 
	C269.141663,253.422195 269.540283,253.330429 270.188141,254.310745 
	C278.308380,254.310745 286.428589,254.310745 294.798615,254.310745 
	C294.160736,253.900833 293.639008,253.565582 293.987640,252.897324 
M449.041809,423.938049 
	C315.204315,423.935669 181.366806,423.933044 47.529305,423.934784 
	C46.365406,423.934784 45.201508,423.992798 43.192314,424.026825 
	C39.367931,431.541290 41.671967,435.931305 49.444855,435.931335 
	C181.271454,435.932007 313.098053,435.931824 444.924652,435.931824 
	C445.757935,435.931824 446.727051,436.206909 447.397400,435.876343 
	C448.988037,435.091949 451.769928,433.915131 451.704285,433.083740 
	C451.465729,430.061554 454.317566,426.229095 449.041809,423.938049 
M253.500000,163.995041 
	C275.964020,163.995041 298.428070,163.995041 320.937347,163.995041 
	C316.214996,128.601471 294.315948,104.053177 260.646606,99.511703 
	C213.659286,93.173836 182.344254,114.497185 172.160767,163.995041 
	C198.887375,163.995041 225.693695,163.995041 253.500000,163.995041 
M326.500183,451.432739 
	C226.745056,451.432739 126.989944,451.432739 27.273249,451.432739 
	C27.273249,455.388550 27.273249,458.628967 27.273249,461.789001 
	C173.985779,461.789001 320.384460,461.789001 466.725769,461.789001 
	C466.725769,458.300964 466.725769,455.078857 466.725769,451.432922 
	C420.103271,451.432922 373.801758,451.432922 326.500183,451.432739 
M266.024323,377.500000 
	C266.024353,368.345734 266.033783,359.191467 266.016113,350.037262 
	C266.012787,348.314453 266.298462,346.458160 265.771240,344.892242 
	C263.480042,338.086975 258.631989,333.406860 251.752716,332.024597 
	C247.802551,331.230835 243.251312,332.026428 239.280014,333.175598 
	C236.001770,334.124268 232.373779,336.032318 230.387833,338.645386 
	C228.545822,341.069122 228.068924,344.982758 228.033142,348.251770 
	C227.834610,366.391479 227.948792,384.534637 227.974487,402.676636 
	C227.976501,404.096161 228.120148,405.515472 228.186142,406.719238 
	C241.044647,406.719238 253.444763,406.719238 266.024323,406.719238 
	C266.024323,397.107086 266.024323,387.803528 266.024323,377.500000 
M178.392868,207.420914 
	C176.286087,207.420914 174.179321,207.420914 171.936310,207.420914 
	C171.936310,222.822037 171.936310,237.874893 171.936310,253.174652 
	C174.379044,253.174652 176.559891,252.952744 178.678543,253.221405 
	C182.925934,253.760025 183.908234,252.143600 183.803040,247.931824 
	C183.468140,234.522507 183.678986,221.099548 183.678986,207.420990 
	C182.207245,207.420990 180.739273,207.420990 178.392868,207.420914 
M252.974945,211.819901 
	C252.974945,210.374069 252.974945,208.928238 252.974945,207.579041 
	C248.809464,207.579041 245.013565,207.579041 240.992279,207.579041 
	C240.992279,222.763748 240.992279,237.787537 240.992279,252.889282 
	C245.000809,252.889282 248.750931,252.889282 252.972229,252.889282 
	C252.972229,239.323532 252.972229,226.037613 252.974945,211.819901 
M270.500000,165.986557 
	C287.445068,165.986557 304.390137,165.986557 321.335205,165.986557 
	C321.333588,165.741898 321.331970,165.497238 321.330383,165.252579 
	C271.791748,165.252579 222.253113,165.252579 172.714493,165.252579 
	C172.713654,165.497238 172.712814,165.741882 172.711975,165.986542 
	C204.974655,165.986542 237.237320,165.986542 270.500000,165.986557 
M127.641968,349.379913 
	C127.462044,349.342743 127.282120,349.305542 127.102196,349.268372 
	C127.172989,349.380157 127.243790,349.491974 127.641968,349.379913 
z"/>
<path fill="#BABABA" opacity="1.000000" stroke="none" 
	d="
M33.219418,297.093933 
	C36.805973,296.427032 40.556282,296.002167 44.302967,296.032043 
	C45.167603,296.038940 46.387524,297.461731 46.780773,298.487305 
	C47.229561,299.657715 46.962608,301.112427 46.962799,302.443573 
	C46.967625,335.923309 46.984020,369.403046 46.907032,402.882629 
	C46.903748,404.311401 46.026936,405.738190 45.230461,407.048218 
	C44.903866,370.769379 44.903866,334.608276 44.903866,298.293884 
	C40.863247,298.015961 37.122551,297.758667 33.219418,297.093933 
z"/>
<path fill="#B2B2B2" opacity="1.000000" stroke="none" 
	d="
M456.627350,253.108978 
	C455.783325,253.814407 454.480133,254.904999 453.174255,254.908188 
	C415.803314,254.999588 378.432129,254.993591 341.061096,254.932098 
	C339.763428,254.929962 338.466980,254.196640 336.996765,253.368561 
	C336.823608,252.932999 336.844238,252.755508 337.177246,252.807465 
	C337.734436,252.874313 337.958618,252.889175 338.182831,252.904053 
	C377.510864,252.931824 416.838898,252.959579 456.627350,253.108978 
z"/>
<path fill="#B2B2B2" opacity="1.000000" stroke="none" 
	d="
M155.983765,254.919220 
	C116.305473,254.931732 76.627190,254.944260 36.476696,254.629028 
	C36.001041,253.903229 35.997589,253.505203 35.994141,253.107162 
	C75.737404,253.102646 115.480675,253.098114 155.525558,253.722534 
	C155.879379,254.540726 155.931564,254.729965 155.983765,254.919220 
z"/>
<path fill="#D6D6D6" opacity="1.000000" stroke="none" 
	d="
M449.113220,406.460571 
	C448.456879,406.812347 447.215179,406.792053 447.179718,406.574890 
	C446.968414,405.280029 447.012756,403.939697 447.012604,402.614655 
	C447.008362,369.261841 446.988708,335.908997 447.066498,302.556366 
	C447.070618,300.783661 447.904633,299.012878 448.759766,297.163879 
	C449.139893,333.390167 449.112518,369.693848 449.113220,406.460571 
z"/>
<path fill="#898989" opacity="1.000000" stroke="none" 
	d="
M29.894657,255.964935 
	C30.543507,255.947266 30.850601,255.968903 31.157698,255.990555 
	C26.843191,265.352753 29.956297,275.262115 29.044409,284.875946 
	C28.841066,287.019714 28.842138,289.182892 28.491823,291.659058 
	C27.836472,290.719116 27.108589,289.461212 27.093410,288.194702 
	C26.988628,279.452789 26.879314,270.704468 27.143721,261.969452 
	C27.204590,259.958588 28.711468,257.991516 29.894657,255.964935 
z"/>
<path fill="#898989" opacity="1.000000" stroke="none" 
	d="
M29.468512,410.804565 
	C29.593714,415.934814 29.249994,421.012817 29.050835,426.096466 
	C28.928761,429.212433 29.028269,432.337097 29.028269,435.782471 
	C24.940048,435.782471 21.317587,435.782471 17.364885,435.554077 
	C20.158087,434.605743 23.281528,433.885803 27.037855,433.019989 
	C27.037855,427.814545 26.872522,422.093262 27.130737,416.391113 
	C27.216959,414.487061 28.386343,412.632111 29.468512,410.804565 
z"/>
<path fill="#999999" opacity="1.000000" stroke="none" 
	d="
M475.859375,434.618774 
	C472.603271,435.390747 469.209595,435.749359 465.449310,436.146698 
	C465.012482,427.634613 464.594666,419.492615 464.399994,410.944397 
	C465.382355,412.917084 466.639069,415.263397 466.797760,417.681763 
	C467.134918,422.819763 466.900726,427.995270 466.900726,433.641907 
	C469.911957,433.834290 472.816895,434.019867 475.859375,434.618774 
z"/>
<path fill="#898989" opacity="1.000000" stroke="none" 
	d="
M483.076050,471.908691 
	C482.426239,462.943024 482.274078,453.935944 482.013672,444.932007 
	C481.963654,443.202759 481.488159,441.485779 481.145691,439.338257 
	C482.046295,440.168457 483.831665,441.415863 483.843567,442.679932 
	C483.934814,452.407562 483.682037,462.138458 483.076050,471.908691 
z"/>
<path fill="#898989" opacity="1.000000" stroke="none" 
	d="
M10.969026,441.121826 
	C11.576813,451.118958 11.732512,461.187317 11.670361,471.597961 
	C10.997583,471.563446 10.143364,471.183899 10.146002,470.810364 
	C10.215697,460.937561 10.373870,451.065369 10.969026,441.121826 
z"/>
<path fill="#B2B2B2" opacity="1.000000" stroke="none" 
	d="
M138.389587,171.226593 
	C138.421356,180.623749 138.351593,190.308868 137.762970,200.202530 
	C137.155151,191.572601 137.066193,182.734131 137.251251,173.330566 
	C137.745377,172.569977 137.907639,172.334579 138.012039,172.059296 
	C138.104050,171.877716 138.196060,171.696136 138.389587,171.226593 
z"/>
<path fill="#666666" opacity="1.000000" stroke="none" 
	d="
M336.908997,252.959244 
	C336.668396,252.489288 336.056061,251.991913 336.058044,251.497040 
	C336.115997,237.118484 336.235352,222.740204 336.784790,208.407013 
	C337.224762,208.452179 337.141418,208.451721 337.081970,208.953369 
	C336.963074,223.888504 336.903656,238.322006 336.844238,252.755508 
	C336.844238,252.755508 336.823608,252.932999 336.908997,252.959244 
z"/>
<path fill="#999999" opacity="1.000000" stroke="none" 
	d="
M337.177246,252.807465 
	C336.903656,238.322006 336.963074,223.888504 337.040436,208.949921 
	C337.378174,209.961685 337.966064,211.476807 337.975616,212.995590 
	C338.057434,225.992889 338.034485,238.990860 338.112854,252.446335 
	C337.958618,252.889175 337.734436,252.874313 337.177246,252.807465 
z"/>
<path fill="#898989" opacity="1.000000" stroke="none" 
	d="
M15.035820,436.325989 
	C14.464985,437.464935 13.599905,438.309296 12.420229,439.119568 
	C12.984281,438.067444 13.862927,437.049438 15.035820,436.325989 
z"/>
<path fill="#898989" opacity="1.000000" stroke="none" 
	d="
M33.816540,408.041412 
	C33.324577,408.682434 32.448566,409.351318 31.239126,409.964539 
	C31.747961,409.295654 32.590225,408.682465 33.816540,408.041412 
z"/>
<path fill="#999999" opacity="1.000000" stroke="none" 
	d="
M481.000427,437.667480 
	C480.201355,437.607025 479.497284,437.156494 478.869934,436.385437 
	C479.662933,436.469086 480.379211,436.873230 481.000427,437.667480 
z"/>
<path fill="#999999" opacity="1.000000" stroke="none" 
	d="
M351.213379,207.755737 
	C351.339874,207.111954 351.846130,206.555969 352.682007,206.003876 
	C352.538788,206.619690 352.065918,207.231613 351.213379,207.755737 
z"/>
<path fill="#BABABA" opacity="1.000000" stroke="none" 
	d="
M35.682098,253.042953 
	C35.997589,253.505203 36.001041,253.903229 36.009995,254.598236 
	C35.402969,254.882874 34.790447,254.870560 33.806389,254.582504 
	C34.079918,253.864090 34.724987,253.421417 35.682098,253.042953 
z"/>
<path fill="#B2B2B2" opacity="1.000000" stroke="none" 
	d="
M458.886078,253.779999 
	C458.859375,254.069733 458.361969,254.098511 458.361969,254.098511 
	C458.361969,254.098511 458.006897,253.748932 457.968567,253.503159 
	C458.257782,253.335022 458.585266,253.412643 458.886078,253.779999 
z"/>
<path fill="#BABABA" opacity="1.000000" stroke="none" 
	d="
M156.249496,254.685989 
	C155.931564,254.729965 155.879379,254.540726 155.638519,254.124954 
	C155.449875,253.898438 155.510788,253.909744 155.470581,253.906128 
	C155.791977,254.085922 156.153610,254.269333 156.249496,254.685989 
z"/>
<path fill="#999999" opacity="1.000000" stroke="none" 
	d="
M478.944214,435.736664 
	C478.634491,435.968506 478.333313,435.885803 477.960327,435.542236 
	C478.243256,435.328308 478.598022,435.375214 478.944214,435.736664 
z"/>
<path fill="#C4C4C4" opacity="1.000000" stroke="none" 
	d="
M137.748825,172.066467 
	C137.907639,172.334579 137.745377,172.569977 137.334229,172.866318 
	C137.257355,172.669312 137.371475,172.371475 137.748825,172.066467 
z"/>
<path fill="#010101" opacity="1.000000" stroke="none" 
	d="
M311.902893,406.941437 
	C302.432892,406.941437 292.962891,406.941437 282.911163,406.941437 
	C282.911163,402.712769 282.911194,398.614349 282.911194,394.515961 
	C282.911194,381.189789 282.874756,367.863464 282.923859,354.537476 
	C282.957031,345.531952 279.342377,338.275238 274.860992,330.420013 
	C270.618835,322.984161 262.662628,322.867920 258.141449,317.347931 
	C257.972290,317.141388 257.507874,317.063995 257.200989,317.099396 
	C249.333176,318.006439 241.147736,314.546753 233.606644,318.047241 
	C229.337921,320.028687 225.749985,323.510345 221.927048,326.410706 
	C216.062531,330.859894 212.873505,337.614563 212.444794,344.156036 
	C211.216019,362.905060 211.414703,381.747833 211.062561,400.553925 
	C211.025620,402.526978 211.057602,404.501343 211.057602,407.021454 
	C201.552963,407.021454 192.287582,407.021454 182.516937,406.513123 
	C182.007339,396.759186 182.051270,387.512970 181.947571,378.268463 
	C181.931641,376.849579 181.235474,375.438354 180.853912,374.023590 
	C179.606079,366.803375 177.170578,360.334686 171.517273,355.116913 
	C162.683365,346.963623 152.844467,341.555481 140.561554,343.479004 
	C135.776398,344.228333 130.536682,346.010773 126.853058,348.990448 
	C120.366814,354.237091 113.613289,359.824249 111.489594,368.615906 
	C110.658005,372.058502 110.159943,375.654541 110.085159,379.192871 
	C109.892365,388.313629 110.020622,397.441193 110.020622,406.795654 
	C103.274963,406.795654 96.865196,406.795654 89.940170,406.795654 
	C89.940170,370.821960 89.940170,334.905792 90.455315,298.498322 
	C179.127365,298.004303 267.284271,297.996552 355.441162,298.003296 
	C371.604675,298.004517 387.768158,298.064636 403.931671,298.097595 
	C403.931671,334.213562 403.931671,370.329498 403.931671,406.737305 
	C397.405609,406.737305 390.996796,406.737305 383.954498,406.737305 
	C383.954498,398.608826 383.928009,390.355591 383.961792,382.102661 
	C383.997253,373.438232 381.579529,365.579620 376.775085,358.340881 
	C368.854431,346.406921 351.321655,339.566589 338.607391,344.480469 
	C332.593475,346.804718 326.233246,349.896667 321.899933,354.428802 
	C317.722839,358.797546 315.954163,365.469086 313.020966,371.724854 
	C312.914490,372.320801 312.991638,372.803162 312.638397,373.071472 
	C312.157715,384.540314 312.030304,395.740875 311.902893,406.941437 
z"/>
<path fill="#010101" opacity="1.000000" stroke="none" 
	d="
M253.000000,163.995041 
	C225.693695,163.995041 198.887375,163.995041 172.160767,163.995041 
	C182.344254,114.497185 213.659286,93.173836 260.646606,99.511703 
	C294.315948,104.053177 316.214996,128.601471 320.937347,163.995041 
	C298.428070,163.995041 275.964020,163.995041 253.000000,163.995041 
z"/>
<path fill="#0B0B0B" opacity="1.000000" stroke="none" 
	d="
M327.000183,451.432831 
	C373.801758,451.432922 420.103271,451.432922 466.725769,451.432922 
	C466.725769,455.078857 466.725769,458.300964 466.725769,461.789001 
	C320.384460,461.789001 173.985779,461.789001 27.273249,461.789001 
	C27.273249,458.628967 27.273249,455.388550 27.273249,451.432739 
	C126.989944,451.432739 226.745056,451.432739 327.000183,451.432831 
z"/>
<path fill="#000000" opacity="1.000000" stroke="none" 
	d="
M43.144825,280.913330 
	C43.144825,277.440216 43.144825,273.967102 43.144825,269.960327 
	C45.002258,269.960327 46.771652,269.960327 48.541042,269.960327 
	C180.037506,269.960327 311.533966,269.958160 443.030426,269.965118 
	C451.926270,269.965576 450.950378,269.010803 450.992249,278.022064 
	C450.995361,278.688660 450.986481,279.355316 450.692810,280.517517 
	C450.402466,281.013123 449.960907,281.158142 449.501587,281.093597 
	C315.036682,281.019501 181.031082,281.009583 47.025467,281.006744 
	C46.029640,281.006714 45.033813,281.103058 43.818123,281.081482 
	C43.598255,281.008514 43.144825,280.913330 43.144825,280.913330 
z"/>
<path fill="#000000" opacity="1.000000" stroke="none" 
	d="
M44.037609,424.023712 
	C45.201508,423.992798 46.365406,423.934784 47.529305,423.934784 
	C181.366806,423.933044 315.204315,423.935669 449.552612,424.436340 
	C450.063446,427.868103 450.063446,430.801514 450.063446,433.735962 
	C314.386261,433.735962 179.284286,433.735962 44.037609,433.735962 
	C44.037609,430.302582 44.037609,427.163147 44.037609,424.023712 
z"/>
<path fill="#000000" opacity="1.000000" stroke="none" 
	d="
M266.024323,378.000000 
	C266.024323,387.803528 266.024323,397.107086 266.024323,406.719238 
	C253.444763,406.719238 241.044647,406.719238 228.186142,406.719238 
	C228.120148,405.515472 227.976501,404.096161 227.974487,402.676636 
	C227.948792,384.534637 227.834610,366.391479 228.033142,348.251770 
	C228.068924,344.982758 228.545822,341.069122 230.387833,338.645386 
	C232.373779,336.032318 236.001770,334.124268 239.280014,333.175598 
	C243.251312,332.026428 247.802551,331.230835 251.752716,332.024597 
	C258.631989,333.406860 263.480042,338.086975 265.771240,344.892242 
	C266.298462,346.458160 266.012787,348.314453 266.016113,350.037262 
	C266.033783,359.191467 266.024353,368.345734 266.024323,378.000000 
z"/>
<path fill="#000000" opacity="1.000000" stroke="none" 
	d="
M338.998840,191.996078 
	C305.891602,192.041367 272.784332,192.100647 239.677094,192.127518 
	C212.889633,192.149246 186.102127,192.131912 159.314651,192.131912 
	C157.685989,192.131912 156.057343,192.131912 153.959579,192.131912 
	C153.959579,188.538910 153.959579,185.262207 154.471878,181.501617 
	C216.280655,181.020996 277.577148,181.024277 338.912109,181.482346 
	C338.966675,185.290131 338.982758,188.643097 338.998840,191.996078 
z"/>
<path fill="#010101" opacity="1.000000" stroke="none" 
	d="
M126.733521,375.937317 
	C125.851044,369.625244 128.804245,366.605469 134.266373,362.556976 
	C139.816666,358.443146 145.924011,359.029633 151.033188,359.868408 
	C158.756744,361.136383 164.434433,367.374939 164.912262,376.183655 
	C165.459076,386.264130 165.038940,396.397034 165.038940,407.023315 
	C152.511490,407.023315 140.272018,407.023315 127.525528,406.517700 
	C126.923508,395.987152 126.828514,385.962250 126.733521,375.937317 
z"/>
<path fill="#000000" opacity="1.000000" stroke="none" 
	d="
M350.120392,359.819733 
	C360.411804,359.596497 366.239349,367.897644 367.064575,376.883301 
	C367.110077,377.379059 367.069458,377.882690 367.069458,378.382660 
	C367.069397,387.707306 367.069427,397.031952 367.069427,406.692474 
	C354.536530,406.692474 342.119110,406.692474 328.995514,406.692474 
	C328.995514,399.875977 329.095367,392.788330 328.957123,385.705322 
	C328.877441,381.619904 327.994415,377.510315 328.299866,373.474182 
	C328.450958,371.477814 330.473022,369.623047 332.070801,367.274109 
	C332.575775,366.702789 332.746490,366.544922 332.723541,366.423676 
	C332.671356,366.147888 332.524048,365.890106 332.415375,365.625061 
	C333.427551,364.757446 334.439728,363.889832 335.782806,362.989197 
	C336.870361,362.526215 337.626953,362.096252 338.383545,361.666321 
	C338.383545,361.666290 338.517212,361.538483 338.932922,361.340576 
	C342.939209,360.701691 346.529816,360.260712 350.120392,359.819733 
z"/>
<path fill="#000000" opacity="1.000000" stroke="none" 
	d="
M312.216675,52.138718 
	C293.753357,52.252151 275.290039,52.365585 256.413300,52.009842 
	C255.999039,42.020222 255.998215,32.499783 255.997406,22.979340 
	C256.164154,22.984703 256.330902,22.990067 257.203796,23.019236 
	C275.612122,22.987389 293.314270,22.931736 311.016388,22.876083 
	C311.016388,22.876083 311.440948,23.004713 311.675323,23.518282 
	C312.012024,33.400806 312.114349,42.769760 312.216675,52.138718 
z"/>
<path fill="#000000" opacity="1.000000" stroke="none" 
	d="
M268.182037,208.460022 
	C270.697571,208.129990 273.207947,207.572296 275.729675,207.515091 
	C281.854248,207.376175 287.984100,207.469925 293.987640,207.469925 
	C293.987640,222.801895 293.987640,237.849609 293.090485,252.942200 
	C284.775208,253.070923 277.357056,253.154800 269.938934,253.238663 
	C269.540283,253.330429 269.141663,253.422195 268.474731,253.532227 
	C268.206451,253.550476 268.096039,253.532471 268.586578,253.410278 
	C269.056976,240.028519 269.070862,226.768738 268.974274,213.509735 
	C268.961975,211.822250 268.371918,210.138977 268.082764,208.452667 
	C268.116028,208.451584 268.182037,208.460037 268.182037,208.460022 
z"/>
<path fill="#000000" opacity="1.000000" stroke="none" 
	d="
M200.912292,253.230331 
	C200.912292,253.230331 200.453522,253.129700 200.226715,252.600372 
	C199.999924,239.209625 200.035568,226.347961 199.956619,213.487000 
	C199.946289,211.804642 199.347763,210.125916 199.054138,208.444275 
	C199.086609,208.443069 199.139694,208.405594 199.139694,208.405594 
	C202.305481,208.093704 205.466248,207.597351 208.638168,207.510956 
	C214.086548,207.362549 219.541885,207.469925 224.958572,207.469925 
	C224.958572,222.809509 224.958572,237.832077 224.075439,252.920807 
	C215.765625,253.068085 208.338959,253.149216 200.912292,253.230331 
z"/>
<path fill="#000000" opacity="1.000000" stroke="none" 
	d="
M72.940872,298.087036 
	C72.940872,334.213165 72.940872,370.339325 72.940872,407.019806 
	C69.871910,407.019806 66.940140,407.019806 63.515682,406.512329 
	C63.022995,370.095886 63.022995,334.186890 63.022995,298.087036 
	C66.675575,298.087036 69.808220,298.087036 72.940872,298.087036 
z"/>
<path fill="#000000" opacity="1.000000" stroke="none" 
	d="
M430.902557,406.937622 
	C427.763885,406.937622 424.625214,406.937622 421.209412,406.937622 
	C421.209412,370.625854 421.209412,334.443268 421.209412,297.810150 
	C424.210541,297.810150 427.150757,297.810150 430.545929,298.357483 
	C430.968109,334.915741 430.935333,370.926697 430.902557,406.937622 
z"/>
<path fill="#B5B5B5" opacity="1.000000" stroke="none" 
	d="
M43.614960,424.025269 
	C44.037609,427.163147 44.037609,430.302582 44.037609,433.735962 
	C179.284286,433.735962 314.386261,433.735962 450.063446,433.735962 
	C450.063446,430.801514 450.063446,427.868103 450.015991,424.477295 
	C454.317566,426.229095 451.465729,430.061554 451.704285,433.083740 
	C451.769928,433.915131 448.988037,435.091949 447.397400,435.876343 
	C446.727051,436.206909 445.757935,435.931824 444.924652,435.931824 
	C313.098053,435.931824 181.271454,435.932007 49.444855,435.931335 
	C41.671967,435.931305 39.367931,431.541290 43.614960,424.025269 
z"/>
<path fill="#7F7F7F" opacity="1.000000" stroke="none" 
	d="
M44.037991,281.154419 
	C45.033813,281.103058 46.029640,281.006714 47.025467,281.006744 
	C181.031082,281.009583 315.036682,281.019501 449.512970,281.380981 
	C449.997711,282.117157 450.011780,282.501343 450.025818,282.885559 
	C449.030914,282.945312 448.036011,283.057434 447.041077,283.057404 
	C312.993439,283.054840 178.945786,283.044128 44.453945,282.669586 
	C44.019173,281.921722 44.028584,281.538086 44.037991,281.154419 
z"/>
<path fill="#0D0D0D" opacity="1.000000" stroke="none" 
	d="
M178.832092,207.420959 
	C180.739273,207.420990 182.207245,207.420990 183.678986,207.420990 
	C183.678986,221.099548 183.468140,234.522507 183.803040,247.931824 
	C183.908234,252.143600 182.925934,253.760025 178.678543,253.221405 
	C176.559891,252.952744 174.379044,253.174652 171.936310,253.174652 
	C171.936310,237.874893 171.936310,222.822037 171.936310,207.420914 
	C174.179321,207.420914 176.286087,207.420914 178.832092,207.420959 
z"/>
<path fill="#0D0D0D" opacity="1.000000" stroke="none" 
	d="
M252.973587,212.285797 
	C252.972229,226.037613 252.972229,239.323532 252.972229,252.889282 
	C248.750931,252.889282 245.000809,252.889282 240.992279,252.889282 
	C240.992279,237.787537 240.992279,222.763748 240.992279,207.579041 
	C245.013565,207.579041 248.809464,207.579041 252.974945,207.579041 
	C252.974945,208.928238 252.974945,210.374069 252.973587,212.285797 
z"/>
<path fill="#000000" opacity="1.000000" stroke="none" 
	d="
M311.355652,207.392822 
	C314.168091,207.413651 316.980530,207.434494 320.322510,207.851288 
	C320.852051,222.999893 320.852051,237.752548 320.852051,252.982788 
	C317.429596,252.982788 314.308777,252.982788 311.103882,252.521896 
	C310.958282,237.745804 310.896790,223.430588 310.881927,208.817078 
	C311.070923,208.143433 311.213287,207.768127 311.355652,207.392822 
z"/>
<path fill="#898989" opacity="1.000000" stroke="none" 
	d="
M89.789719,297.186035 
	C90.198196,296.796753 90.595978,296.084015 91.016884,296.070099 
	C94.010506,295.971008 97.008835,296.013275 100.005669,296.013245 
	C199.733795,296.013000 299.461914,296.010345 399.190033,296.034210 
	C400.973053,296.034637 402.756012,296.353180 403.863586,296.780304 
	C299.718536,297.025482 196.248901,297.013123 92.779243,297.009460 
	C91.782738,297.009430 90.786224,297.124634 89.789719,297.186035 
z"/>
<path fill="#B2B2B2" opacity="1.000000" stroke="none" 
	d="
M89.825211,297.414062 
	C90.786224,297.124634 91.782738,297.009430 92.779243,297.009460 
	C196.248901,297.013123 299.718536,297.025482 403.666321,297.078979 
	C404.122620,297.286377 404.100769,297.452179 404.005310,297.857788 
	C387.768158,298.064636 371.604675,298.004517 355.441162,298.003296 
	C267.284271,297.996552 179.127365,298.004303 90.507339,298.036346 
	C90.044220,298.065643 89.860703,297.642120 89.825211,297.414062 
z"/>
<path fill="#BABABA" opacity="1.000000" stroke="none" 
	d="
M73.104004,297.749725 
	C69.808220,298.087036 66.675575,298.087036 63.022995,298.087036 
	C63.022995,334.186890 63.022995,370.095886 63.063107,406.467499 
	C62.444862,406.251373 61.234493,405.587799 61.215332,404.891388 
	C61.059605,399.232269 61.126404,393.567047 61.126373,387.903656 
	C61.126202,358.920441 61.091137,329.937103 61.217335,300.954437 
	C61.224590,299.288452 62.515015,296.223999 63.262455,296.207092 
	C66.586555,296.131927 69.930412,296.930023 73.104004,297.749725 
z"/>
<path fill="#C1C1C1" opacity="1.000000" stroke="none" 
	d="
M431.229919,407.054718 
	C430.935333,370.926697 430.968109,334.915741 431.004761,298.433777 
	C431.620422,298.023926 432.743988,298.013763 432.764038,298.157440 
	C432.946228,299.464508 432.975983,300.798401 432.976257,302.124451 
	C432.983582,335.716187 432.999390,369.307953 432.921570,402.899506 
	C432.918274,404.324646 432.032135,405.747742 431.229919,407.054718 
z"/>
<path fill="#9F9F9F" opacity="1.000000" stroke="none" 
	d="
M338.873627,181.027542 
	C277.577148,181.024277 216.280655,181.020996 154.519699,181.043228 
	C154.014542,180.876190 153.973862,180.683655 154.476746,180.230881 
	C216.646103,179.954056 278.271912,179.937469 339.897736,179.920883 
	C339.962494,180.096588 340.027252,180.272308 339.770966,180.717072 
	C339.257812,180.999954 339.065735,181.013748 338.873627,181.027542 
z"/>
<path fill="#4E4E4E" opacity="1.000000" stroke="none" 
	d="
M339.705933,179.538254 
	C278.271912,179.937469 216.646103,179.954056 154.558838,179.947357 
	C155.269196,179.619370 156.440811,179.048920 157.612839,179.048111 
	C217.750046,179.006866 277.887299,179.013779 338.024536,179.021927 
	C338.521057,179.021988 339.017609,179.109131 339.705933,179.538254 
z"/>
<path fill="#9F9F9F" opacity="1.000000" stroke="none" 
	d="
M311.187988,252.982788 
	C314.308777,252.982788 317.429596,252.982788 320.852051,252.982788 
	C320.852051,237.752548 320.852051,222.999893 320.742096,207.815292 
	C321.439331,208.648743 322.931366,209.905167 322.948090,211.180908 
	C323.120117,224.307556 322.991241,237.437851 323.100830,250.565842 
	C323.125397,253.509003 322.152771,254.676147 319.142303,254.849716 
	C309.197540,255.423050 309.202789,255.516006 309.202911,245.578537 
	C309.203094,234.111511 309.159393,222.644104 309.261810,211.177994 
	C309.274109,209.803650 310.080719,208.436432 310.937408,207.229355 
	C311.213287,207.768127 311.070923,208.143433 310.523682,209.042526 
	C310.016968,223.282852 309.893127,236.999374 309.872589,250.716064 
	C309.871490,251.470978 310.729736,252.227188 311.187988,252.982788 
z"/>
<path fill="#999999" opacity="1.000000" stroke="none" 
	d="
M270.000000,165.986542 
	C237.237320,165.986542 204.974655,165.986542 172.711975,165.986542 
	C172.712814,165.741882 172.713654,165.497238 172.714493,165.252579 
	C222.253113,165.252579 271.791748,165.252579 321.330383,165.252579 
	C321.331970,165.497238 321.333588,165.741898 321.335205,165.986557 
	C304.390137,165.986557 287.445068,165.986557 270.000000,165.986542 
z"/>
<path fill="#E2E2E2" opacity="1.000000" stroke="none" 
	d="
M310.904175,22.491032 
	C293.314270,22.931736 275.612122,22.987389 257.446838,22.959560 
	C258.138794,22.252445 259.289917,21.094635 260.449738,21.085823 
	C276.214294,20.966021 291.980164,20.985126 307.745331,21.052790 
	C308.762360,21.057156 309.776520,21.739182 310.904175,22.491032 
z"/>
<path fill="#9F9F9F" opacity="1.000000" stroke="none" 
	d="
M255.818939,22.670437 
	C255.998215,32.499783 255.999039,42.020222 255.938705,52.043335 
	C255.305649,52.340874 254.234039,52.136787 254.233612,51.930470 
	C254.213806,42.408558 254.274185,32.886276 254.404312,23.365116 
	C254.408966,23.025028 255.210388,22.695820 255.818939,22.670437 
z"/>
<path fill="#B2B2B2" opacity="1.000000" stroke="none" 
	d="
M200.958405,253.640106 
	C208.338959,253.149216 215.765625,253.068085 223.654785,253.108643 
	C224.627228,253.607697 225.137192,253.985077 225.647156,254.362457 
	C225.596222,254.702560 225.545303,255.042664 225.494385,255.382782 
	C217.331085,254.938477 209.167801,254.494171 200.958405,253.640106 
z"/>
<path fill="#4E4E4E" opacity="1.000000" stroke="none" 
	d="
M268.096039,253.532471 
	C268.096039,253.532471 268.206451,253.550476 268.263489,253.544189 
	C267.894684,253.084579 267.096405,252.630722 267.097046,252.178040 
	C267.118622,237.584030 267.217255,222.990128 267.743195,208.428131 
	C268.182037,208.460037 268.116028,208.451584 268.054932,208.957169 
	C268.027924,224.152664 268.061981,238.842560 268.096039,253.532471 
z"/>
<path fill="#4E4E4E" opacity="1.000000" stroke="none" 
	d="
M198.701477,208.382690 
	C199.139694,208.405594 199.086609,208.443069 199.061630,208.951141 
	C199.002335,224.264832 198.968002,239.070450 198.933685,253.876068 
	C198.621216,253.389282 198.034760,252.901749 198.036087,252.415817 
	C198.076218,237.730362 198.174286,223.045090 198.701477,208.382690 
z"/>
<path fill="#898989" opacity="1.000000" stroke="none" 
	d="
M199.207886,253.916428 
	C198.968002,239.070450 199.002335,224.264832 199.029175,208.952362 
	C199.347763,210.125916 199.946289,211.804642 199.956619,213.487000 
	C200.035568,226.347961 199.999924,239.209625 199.999664,252.540344 
	C199.826981,253.325333 199.654526,253.641052 199.207886,253.916428 
z"/>
<path fill="#B2B2B2" opacity="1.000000" stroke="none" 
	d="
M270.063538,253.774719 
	C277.357056,253.154800 284.775208,253.070923 292.655334,253.108704 
	C293.639008,253.565582 294.160736,253.900833 294.798615,254.310745 
	C286.428589,254.310745 278.308380,254.310745 270.063538,253.774719 
z"/>
<path fill="#B2B2B2" opacity="1.000000" stroke="none" 
	d="
M180.575409,374.164429 
	C181.235474,375.438354 181.931641,376.849579 181.947571,378.268463 
	C182.051270,387.512970 182.007339,396.759186 182.056702,406.467010 
	C181.937988,406.977509 181.774292,407.025787 181.321136,406.621948 
	C181.021118,400.708893 181.116119,395.245117 180.967377,389.787933 
	C180.843216,385.232117 180.433548,380.684052 180.150299,376.132568 
	C180.199173,375.523468 180.248032,374.914337 180.575409,374.164429 
z"/>
<path fill="#666666" opacity="1.000000" stroke="none" 
	d="
M312.991638,372.803162 
	C312.991638,372.803162 312.914490,372.320801 313.025024,372.102966 
	C313.413269,378.605713 313.782379,385.324188 313.937714,392.047546 
	C314.048401,396.838745 313.871582,401.636566 313.433868,406.201538 
	C313.026978,394.915497 313.009308,383.859314 312.991638,372.803162 
z"/>
<path fill="#C1C1C1" opacity="1.000000" stroke="none" 
	d="
M312.638367,373.071472 
	C313.009308,383.859314 313.026978,394.915497 313.082214,406.431305 
	C312.917755,406.918365 312.715729,406.945770 312.208282,406.957306 
	C312.030304,395.740875 312.157715,384.540314 312.638367,373.071472 
z"/>
<path fill="#898989" opacity="1.000000" stroke="none" 
	d="
M180.110077,376.589386 
	C180.433548,380.684052 180.843216,385.232117 180.967377,389.787933 
	C181.116119,395.245117 181.021118,400.708893 181.066376,406.647400 
	C180.738876,406.212646 180.068253,405.302368 180.062210,404.387695 
	C180.001968,395.274292 180.051376,386.160126 180.110077,376.589386 
z"/>
<path fill="#9F9F9F" opacity="1.000000" stroke="none" 
	d="
M125.882339,406.844757 
	C125.597618,403.141754 125.108994,399.440735 125.073349,395.735352 
	C125.011360,389.289490 125.228958,382.840973 125.673615,376.636536 
	C125.972694,386.867920 125.927513,396.856323 125.882339,406.844757 
z"/>
<path fill="#CBCBCB" opacity="1.000000" stroke="none" 
	d="
M126.188843,406.883179 
	C125.927513,396.856323 125.972694,386.867920 126.040894,376.403687 
	C126.063927,375.927887 126.399895,375.849609 126.566711,375.893463 
	C126.828514,385.962250 126.923508,395.987152 127.065735,406.474609 
	C126.907089,406.931915 126.701218,406.926758 126.188843,406.883179 
z"/>
<path fill="#666666" opacity="1.000000" stroke="none" 
	d="
M312.856628,22.845184 
	C313.226593,23.357635 313.918335,23.869869 313.918701,24.382568 
	C313.924713,33.424782 313.846405,42.467052 313.448425,51.255356 
	C313.025909,41.615993 312.941254,32.230591 312.856628,22.845184 
z"/>
<path fill="#9F9F9F" opacity="1.000000" stroke="none" 
	d="
M312.602692,22.882200 
	C312.941254,32.230591 313.025909,41.615993 313.074188,51.462288 
	C312.925232,52.051502 312.812622,52.179821 312.458374,52.223427 
	C312.114349,42.769760 312.012024,33.400806 311.890869,23.570580 
	C312.030914,23.045946 312.189819,22.982582 312.602692,22.882200 
z"/>
<path fill="#CBCBCB" opacity="1.000000" stroke="none" 
	d="
M338.912109,181.482346 
	C339.065735,181.013748 339.257812,180.999954 339.738831,180.996124 
	C339.831451,184.848495 339.635223,188.690887 339.218933,192.264679 
	C338.982758,188.643097 338.966675,185.290131 338.912109,181.482346 
z"/>
<path fill="#898989" opacity="1.000000" stroke="none" 
	d="
M349.963440,359.477570 
	C346.529816,360.260712 342.939209,360.701691 338.977783,361.259705 
	C341.673920,357.300812 345.604034,357.537628 349.963440,359.477570 
z"/>
<path fill="#898989" opacity="1.000000" stroke="none" 
	d="
M338.124084,361.405640 
	C337.626953,362.096252 336.870361,362.526215 335.894043,362.654968 
	C336.404449,361.950806 337.134521,361.547882 338.124084,361.405640 
z"/>
<path fill="#666666" opacity="1.000000" stroke="none" 
	d="
M450.339630,282.823669 
	C450.011780,282.501343 449.997711,282.117157 449.972290,281.445557 
	C449.960907,281.158142 450.402466,281.013123 450.629578,280.963959 
	C450.788940,281.530457 450.721191,282.146088 450.339630,282.823669 
z"/>
<path fill="#898989" opacity="1.000000" stroke="none" 
	d="
M332.158813,365.658813 
	C332.524048,365.890106 332.671356,366.147888 332.723541,366.423676 
	C332.746490,366.544922 332.575775,366.702789 332.132202,366.917328 
	C331.815002,366.557953 331.858612,366.125275 332.158813,365.658813 
z"/>
<path fill="#666666" opacity="1.000000" stroke="none" 
	d="
M43.818123,281.081482 
	C44.028584,281.538086 44.019173,281.921722 43.991520,282.592896 
	C43.661846,282.435699 43.350414,281.991028 43.091904,281.229858 
	C43.144825,280.913330 43.598255,281.008514 43.818123,281.081482 
z"/>
<path fill="#010101" opacity="1.000000" stroke="none" 
	d="
M127.478271,349.491821 
	C127.243790,349.491974 127.172989,349.380157 127.102188,349.268372 
	C127.282120,349.305542 127.462044,349.342743 127.478271,349.491821 
z"/>
<path fill="#848484" opacity="1.000000" stroke="none" 
	d="
M268.586578,253.410278 
	C268.061981,238.842560 268.027924,224.152664 268.021698,208.958252 
	C268.371918,210.138977 268.961975,211.822250 268.974274,213.509735 
	C269.070862,226.768738 269.056976,240.028519 268.586578,253.410278 
z"/>
<path fill="#FCFCFC" opacity="1.000000" stroke="none" 
	d="
M311.103882,252.521912 
	C310.729736,252.227188 309.871490,251.470978 309.872589,250.716064 
	C309.893127,236.999374 310.016968,223.282852 310.477051,209.340851 
	C310.896790,223.430588 310.958282,237.745804 311.103882,252.521912 
z"/>
</svg>