<svg width="105" height="72" viewBox="0 0 105 72" fill="none" xmlns="http://www.w3.org/2000/svg">
<path d="M24.8155 64.6179C20.2189 66.0447 14.0075 68.4402 6.24893 71.9996L0 56.305C8.75751 54.0897 15.059 51.5816 19.2725 49.5466C25.221 45.514 37.441 40.0622 37.441 40.0622C37.441 40.0622 37.9517 39.9345 38.7253 39.8895C39.0333 39.8219 39.3412 39.7919 39.6717 39.7919H65.3358C65.3358 39.7919 65.3734 39.7919 65.3959 39.7919C68.1298 39.8294 69.3991 43.2312 67.4689 45.1611L66.5751 46.0547C66.0569 46.4827 65.4635 46.7906 64.8702 47.1511C64.5547 47.2938 64.2393 47.4364 63.9238 47.5791C63.6084 47.7293 63.2554 47.8044 62.9174 47.932C62.5869 48.0597 62.2189 48.1198 61.8584 48.2099L61.3176 48.3376L60.7543 48.4127C60.0182 48.5403 59.2446 48.5703 58.5011 48.6229C57.735 48.6229 56.9989 48.6605 56.2704 48.6229C55.5569 48.6079 54.8584 48.5703 54.2124 48.5328C52.9206 48.4577 51.8316 48.3676 51.0579 48.3075C50.2843 48.2474 49.8487 48.2099 49.8487 48.2099C48.7146 48.1273 47.6556 48.9083 47.4453 50.0497C47.22 51.2737 48.0311 52.4527 49.2554 52.678C49.2554 52.678 49.691 52.7606 50.4496 52.9033C51.2082 53.0459 52.3047 53.2487 53.6567 53.4665C54.3251 53.5791 55.0612 53.6917 55.8573 53.7894C56.6384 53.9095 57.5097 53.9696 58.3959 54.0522C59.3122 54.0822 60.2511 54.1423 61.2425 54.0822L61.9861 54.0522L62.7446 53.9621C63.2554 53.8945 63.7661 53.857 64.2843 53.7293C64.7951 53.6091 65.3208 53.5265 65.824 53.3688C66.3273 53.2036 66.8305 53.0384 67.3337 52.8732C68.2951 52.4527 69.264 52.0397 70.0976 51.5065C70.9839 51.0259 71.7049 50.4327 72.441 49.8995C72.8015 49.6066 73.1395 49.3138 73.4624 49.0209L80.8004 42.7205C81.4464 42.1648 82.2801 41.8645 83.1363 41.8795L84.2178 41.902C85.9603 41.932 87.4174 43.2537 87.6127 44.9809C87.7479 46.1673 87.2747 47.3388 86.3434 48.0973L67.9195 63.0184C67.1234 63.7018 66.1695 64.0772 65.2006 64.1523C64.8101 64.1824 64.412 64.1598 64.0215 64.0922L35.9839 61.9446C35.1202 61.7944 34.2414 61.7568 33.3702 61.8244L24.7929 64.6254L24.8155 64.6179ZM86.8466 8.65044L81.7167 12.2399C81.1534 12.4577 80.5601 12.6079 79.9592 12.683L60.9045 16.9108C60.6341 16.9483 60.3637 17.0159 60.1084 17.1135C59.4775 17.3613 58.9217 17.8044 58.5311 18.4126L49.3079 32.0422C48.8423 32.7255 48.7597 33.6041 49.0976 34.3626C49.5783 35.474 50.8101 36.0522 51.9743 35.7218L52.6953 35.519C53.2661 35.3538 53.7618 34.9934 54.0773 34.4902L57.6749 28.8282C57.8326 28.5728 57.9979 28.31 58.1781 28.0397C58.5612 27.5441 58.9142 26.9959 59.4099 26.5003C59.8605 25.9746 60.4163 25.509 60.9721 25.0359C61.2725 24.8257 61.573 24.6154 61.8734 24.4051C62.1738 24.1949 62.5043 24.0372 62.8197 23.857C63.1352 23.6692 63.4657 23.5416 63.7961 23.3914L64.2843 23.1811L64.7725 23.0084C65.426 22.7681 66.0569 22.6179 66.6727 22.4527C67.2811 22.325 67.867 22.1899 68.4152 22.1148C68.9635 22.0172 69.4743 21.9496 69.9474 21.8895C70.8863 21.7618 71.6599 21.6792 72.1856 21.6192C72.7189 21.5591 73.0268 21.5215 73.0268 21.5215C73.8831 21.4239 74.6642 22.0397 74.7618 22.9033C74.8519 23.7068 74.3112 24.4352 73.5376 24.6079C73.5376 24.6079 73.2371 24.6755 72.7114 24.7881C72.1856 24.9008 71.4421 25.066 70.5708 25.2762C70.1352 25.3814 69.6695 25.494 69.1889 25.6292C68.7007 25.7493 68.22 25.922 67.7092 26.0797C67.2285 26.2675 66.7178 26.4402 66.2597 26.673L65.9067 26.8382L65.5762 27.0259C65.3584 27.1536 65.1255 27.2662 64.9303 27.4239C64.735 27.5741 64.5172 27.6942 64.3294 27.8595C64.1491 28.0172 63.9689 28.1749 63.7811 28.3325C63.4582 28.6855 63.1277 29.0159 62.8723 29.4064L62.4592 30.1799C61.5655 31.8544 63.0976 33.8519 64.9152 33.3263C64.9303 33.3263 64.9453 33.3188 64.9528 33.3113L81.9946 28.1373C82.2124 28.0697 82.4152 27.9871 82.603 27.882C83.1062 27.6943 83.4217 27.5065 83.4217 27.5065C83.4217 27.5065 90.4367 21.4239 93.5762 17.5491C95.9646 15.3488 99.6449 12.4126 105.015 9.1761L97.6996 0.0146484C93.2682 3.94206 89.6255 6.78812 86.8616 8.66546L86.8466 8.65044Z" fill="url(#paint0_linear_3020_4313)"/>
<defs>
<linearGradient id="paint0_linear_3020_4313" x1="52.5" y1="71.9996" x2="52.5" y2="-0.000371934" gradientUnits="userSpaceOnUse">
<stop stop-color="#AED68A"/>
<stop offset="0.49" stop-color="#D6D864"/>
<stop offset="1" stop-color="#FEDA41"/>
</linearGradient>
</defs>
</svg>
