<svg width="94" height="80" viewBox="0 0 94 80" fill="none" xmlns="http://www.w3.org/2000/svg">
<path d="M67.3645 10.0939V22.4374C67.3645 23.8377 66.1326 24.9691 64.6148 24.9691H62.7916C61.2739 24.9691 60.042 23.8344 60.042 22.4374V10.0939C60.042 8.69686 61.2739 7.56221 62.7916 7.56221H64.6148C66.1326 7.56221 67.3645 8.69686 67.3645 10.0939ZM46.3332 12.2287C46.711 12.2287 47.0658 12.2714 47.4009 12.3435V4.23365C47.4009 2.88912 46.215 1.79709 44.7564 1.79709H43.0021C41.5403 1.79709 40.3576 2.88912 40.3576 4.23365V12.4222C42.8773 12.2386 45.1736 12.232 46.3201 12.232H46.3332V12.2287ZM51.9278 16.5247C52.092 17.8233 51.8226 19.9418 50.2425 20.9781C50.5349 22.1488 51.4843 22.5259 52.8443 22.5259H54.7431C56.3232 22.5259 57.6044 21.3454 57.6044 19.8893V7.04079C57.6044 5.58475 56.3232 4.40418 54.7431 4.40418H52.8443C51.2642 4.40418 49.983 5.58475 49.983 7.04079V13.3732C51.1032 14.1472 51.7799 15.3376 51.9278 16.5247ZM62.6931 27.258C60.2621 27.258 58.2844 25.3888 58.2844 23.09V22.8276C57.4763 23.8147 56.2148 24.4542 54.7957 24.4542H52.7786C50.8043 24.4542 48.8726 23.4966 48.3141 21.8045C48.1039 21.8799 40.7223 24.3263 40.7223 24.3263L53.4783 30.2915C54.5328 30.744 53.2385 32.833 52.6472 33.0855C52.299 33.233 51.6518 33.0494 51.3069 32.8854L50.9094 32.7018L36.2447 24.0541C36.018 23.9459 35.88 23.7098 35.8997 23.4605C35.9227 23.2113 36.0968 22.9982 36.3399 22.9326L45.893 20.3091C46.1 20.2566 48.8069 19.4827 48.4357 17.2068C48.0645 14.9276 47.1414 14.8194 46.0113 14.6161C44.8812 14.4161 41.9542 14.5046 39.5889 14.6751C35.5614 14.9276 33.3176 15.3376 31.409 16.1968C29.5036 17.0592 26.2974 20.7715 27.03 26.0972C28.2684 35.1121 34.1126 42.7038 34.1126 42.7038V79.9967H61.7437V41.5757C64.7331 38.4144 66.2311 32.1509 66.9867 26.6481C66.3198 27.0318 65.5412 27.2548 64.7068 27.2548H62.6898L62.6931 27.258ZM31.4648 13.6946C33.2355 13.0289 35.5811 12.6419 37.8708 12.4222V2.69891C37.8708 1.21008 36.5765 0 34.9832 0H33.4228C31.8328 0 30.5352 1.21008 30.5352 2.69891V13.5438C30.5352 13.7274 30.5549 13.9045 30.591 14.0783C30.867 13.9373 31.156 13.8061 31.4616 13.6946H31.4648ZM92.5317 29.9471H91.5593C90.7478 29.9471 90.0941 30.5505 90.0941 31.2982V37.8832C90.0941 38.6309 90.7511 39.2343 91.5593 39.2343H92.5317C93.3398 39.2343 93.9968 38.6309 93.9968 37.8832V31.2982C93.9968 30.5538 93.3398 29.9471 92.5317 29.9471ZM82.7815 32.4394C82.9851 32.4394 83.1724 32.4624 83.3531 32.5017V28.1763C83.3531 27.4581 82.7223 26.8776 81.9438 26.8776H81.0075C80.2289 26.8776 79.5982 27.4581 79.5982 28.1763V32.5444C80.9418 32.446 82.1671 32.4427 82.7782 32.4427H82.7847L82.7815 32.4394ZM85.7643 34.7284C85.8498 35.4204 85.7085 36.5518 84.8642 37.106C85.0186 37.729 85.5278 37.9324 86.2505 37.9324H87.2624C88.1066 37.9324 88.7899 37.3027 88.7899 36.5255V29.6717C88.7899 28.8944 88.1066 28.2648 87.2624 28.2648H86.2505C85.4063 28.2648 84.7263 28.8944 84.7263 29.6717V33.0494C85.3241 33.4626 85.6855 34.0955 85.7643 34.7317V34.7284ZM91.5067 40.4542C90.2091 40.4542 89.1546 39.4573 89.1546 38.2308V38.0898C88.7242 38.6177 88.0508 38.9588 87.2952 38.9588H86.221C85.1697 38.9588 84.1382 38.4472 83.8393 37.5454C83.7276 37.5848 79.792 38.8899 79.792 38.8899L86.5955 42.0709C87.1572 42.3103 86.4674 43.4253 86.152 43.5597C85.968 43.6385 85.6198 43.5401 85.4391 43.4548L85.2289 43.3564L77.407 38.7456C77.2855 38.6899 77.2132 38.562 77.2231 38.4275C77.2362 38.2931 77.3282 38.1816 77.4563 38.1455L82.5515 36.7452C82.6632 36.719 84.1054 36.3058 83.9083 35.0892C83.7111 33.8725 83.2184 33.8168 82.6139 33.7085C82.0128 33.6003 80.449 33.6495 79.1876 33.7381C77.0391 33.8725 75.8433 34.089 74.8249 34.5513C73.8066 35.0105 72.0983 36.9912 72.4892 39.8311C73.1495 44.6387 76.2671 48.6887 76.2671 48.6887V68.5813H91.0041V48.0885C92.5974 46.403 93.3989 43.0613 93.7997 40.1263C93.4449 40.3296 93.0277 40.4509 92.5842 40.4509H91.51L91.5067 40.4542ZM74.8512 33.2199C75.7973 32.8658 77.0457 32.6592 78.2677 32.5411V27.3564C78.2677 26.5628 77.5779 25.9168 76.727 25.9168H75.8926C75.045 25.9168 74.3519 26.5628 74.3519 27.3564V33.1412C74.3519 33.2396 74.3617 33.3347 74.3815 33.4265C74.5293 33.3511 74.6837 33.2822 74.8447 33.2199H74.8512ZM20.0984 29.9471H19.126C18.3146 29.9471 17.6608 30.5505 17.6608 31.2982V37.8832C17.6608 38.6309 18.3179 39.2343 19.126 39.2343H20.0984C20.9065 39.2343 21.5635 38.6309 21.5635 37.8832V31.2982C21.5635 30.5538 20.9065 29.9471 20.0984 29.9471ZM10.3482 32.4394C10.5519 32.4394 10.7391 32.4624 10.9198 32.5017V28.1763C10.9198 27.4581 10.2891 26.8776 9.51049 26.8776H8.57423C7.79566 26.8776 7.16492 27.4581 7.16492 28.1763V32.5444C8.50853 32.446 9.73387 32.4427 10.3449 32.4427H10.3515L10.3482 32.4394ZM13.3343 34.7284C13.4198 35.4204 13.2785 36.5518 12.4342 37.106C12.5886 37.729 13.0978 37.9324 13.8205 37.9324H14.8324C15.6766 37.9324 16.3599 37.3027 16.3599 36.5255V29.6717C16.3599 28.8944 15.6766 28.2648 14.8324 28.2648H13.8205C12.9763 28.2648 12.2963 28.8944 12.2963 29.6717V33.0494C12.8941 33.4626 13.2555 34.0955 13.3343 34.7317V34.7284ZM19.0767 40.4542C17.7791 40.4542 16.7246 39.4573 16.7246 38.2308V38.0898C16.2942 38.6177 15.6208 38.9588 14.8652 38.9588H13.791C12.7397 38.9588 11.7082 38.4472 11.4093 37.5454C11.2976 37.5848 7.36203 38.8899 7.36203 38.8899L14.1655 42.0709C14.7272 42.3103 14.0374 43.4253 13.722 43.5597C13.538 43.6385 13.1898 43.5401 13.0091 43.4548L12.7989 43.3564L4.97704 38.7456C4.85549 38.6899 4.78322 38.562 4.79308 38.4275C4.80622 38.2931 4.8982 38.1816 5.02632 38.1455L10.1215 36.7452C10.2332 36.719 11.6754 36.3058 11.4783 35.0892C11.2812 33.8725 10.7884 33.8168 10.1839 33.7085C9.58276 33.6003 8.01905 33.6495 6.75757 33.7381C4.60911 33.8725 3.41333 34.089 2.39495 34.5513C1.37657 35.0105 -0.331688 36.9912 0.0592399 39.8311C0.719546 44.6387 3.83711 48.6887 3.83711 48.6887V68.5813H18.5741V48.0885C20.1674 46.403 20.9689 43.0613 21.3697 40.1263C21.0149 40.3296 20.5977 40.4509 20.1542 40.4509H19.08L19.0767 40.4542ZM2.41795 33.2199C3.36406 32.8658 4.6124 32.6592 5.83445 32.5411V27.3564C5.83445 26.5628 5.14458 25.9168 4.29374 25.9168H3.45932C2.61177 25.9168 1.91861 26.5628 1.91861 27.3564V33.1412C1.91861 33.2396 1.92846 33.3347 1.94818 33.4265C2.096 33.3511 2.2504 33.2822 2.41138 33.2199H2.41795Z" fill="url(#paint0_linear_3020_4305)"/>
<defs>
<linearGradient id="paint0_linear_3020_4305" x1="47.0001" y1="80" x2="47.0001" y2="0" gradientUnits="userSpaceOnUse">
<stop stop-color="#AED68A"/>
<stop offset="0.49" stop-color="#D6D864"/>
<stop offset="1" stop-color="#FEDA41"/>
</linearGradient>
</defs>
</svg>
