<svg width="81" height="78" viewBox="0 0 81 78" fill="none" xmlns="http://www.w3.org/2000/svg">
<path d="M21.4472 17.9088C21.4472 21.7736 18.3252 24.9056 14.4728 24.9056C10.6205 24.9056 7.49845 21.7736 7.49845 17.9088C7.49845 14.044 10.6205 10.9119 14.4728 10.9119C18.3252 10.9119 21.4472 14.044 21.4472 17.9088ZM19.273 44.1456V28.2167H6.14929C2.75408 28.2167 0 30.9796 0 34.3858V48.8828C0 50.0014 0.813958 51.0026 1.92339 51.1088C3.19451 51.2319 4.27049 50.2307 4.27049 48.9779V36.5503C4.27049 35.7784 4.84472 35.0905 5.61408 35.0457C6.43362 35.001 7.1082 35.6554 7.1082 36.4664V75.1923C7.1082 76.6633 8.23993 77.9497 9.70617 77.9944C11.2226 78.0391 12.4714 76.8199 12.4714 75.3042V56.6739C12.4714 55.6224 13.2352 54.6828 14.2777 54.5821C15.4764 54.4702 16.4799 55.4099 16.4799 56.5844V75.1867C16.4799 76.6577 17.6116 77.9441 19.0778 77.9888C20.5943 78.0336 21.8431 76.8143 21.8431 75.2986V48.9723C20.2932 47.9264 19.2674 46.1255 19.2674 44.1344L19.273 44.1456ZM59.5528 17.9088C59.5528 21.7736 62.6748 24.9056 66.5272 24.9056C70.3795 24.9056 73.5016 21.7736 73.5016 17.9088C73.5016 14.044 70.3795 10.9119 66.5272 10.9119C62.6748 10.9119 59.5528 14.044 59.5528 17.9088ZM59.1569 48.9891V75.3154C59.1569 76.8311 60.4002 78.0503 61.9222 78.0056C63.3884 77.9608 64.5201 76.6745 64.5201 75.2035V56.6012C64.5201 55.4266 65.5292 54.4814 66.7223 54.5989C67.7648 54.6996 68.5286 55.6392 68.5286 56.6907V75.3209C68.5286 76.8366 69.7718 78.0559 71.2938 78.0112C72.7601 77.9664 73.8918 76.68 73.8918 75.2091V36.4832C73.8918 35.6722 74.5664 35.0178 75.3859 35.0625C76.1553 35.1017 76.7295 35.7952 76.7295 36.567V48.9947C76.7295 50.2475 77.7999 51.2487 79.0766 51.1256C80.1861 51.0194 81 50.0182 81 48.8996V34.4025C81 30.9964 78.2459 28.2335 74.8507 28.2335H61.7326V44.1623C61.7326 46.159 60.7068 47.9544 59.1569 49.0003V48.9891ZM50.1811 20.118H30.8189C26.8718 20.118 23.6661 23.3284 23.6661 27.2938V44.1512C23.6661 45.4543 24.6139 46.6121 25.9073 46.7351C27.3903 46.8749 28.6335 45.7116 28.6335 44.2574V29.8107C28.6335 28.9158 29.3025 28.1104 30.1945 28.0657C31.1478 28.0153 31.9339 28.776 31.9339 29.7212V74.7505C31.9339 76.4619 33.2496 77.9553 34.9556 78.0056C36.7229 78.0615 38.1668 76.6409 38.1668 74.8791V53.2174C38.1668 51.9981 39.0589 50.9019 40.2686 50.79C41.6568 50.6558 42.8276 51.752 42.8276 53.1167V74.7449C42.8276 76.4563 44.1433 77.9497 45.8493 78C47.6166 78.0559 49.0605 76.6353 49.0605 74.8735V29.8107C49.0605 28.9158 49.7295 28.1104 50.6215 28.0657C51.5749 28.0153 52.3609 28.776 52.3609 29.7212V44.1567C52.3609 45.4599 53.3087 46.6177 54.6021 46.7407C56.0851 46.8805 57.3283 45.7172 57.3283 44.263V27.2994C57.3283 23.3396 54.1282 20.1236 50.1755 20.1236L50.1811 20.118ZM40.5028 0C36.026 0 32.3967 3.64104 32.3967 8.13222C32.3967 12.6234 36.026 16.2644 40.5028 16.2644C44.9796 16.2644 48.6089 12.6234 48.6089 8.13222C48.6089 3.64104 44.9796 0 40.5028 0Z" fill="url(#paint0_linear_3020_4309)"/>
<defs>
<linearGradient id="paint0_linear_3020_4309" x1="40.5028" y1="78" x2="40.5028" y2="0" gradientUnits="userSpaceOnUse">
<stop stop-color="#AED68A"/>
<stop offset="0.49" stop-color="#D6D864"/>
<stop offset="1" stop-color="#FEDA41"/>
</linearGradient>
</defs>
</svg>
