<svg width="86" height="86" viewBox="0 0 86 86" fill="none" xmlns="http://www.w3.org/2000/svg">
<path d="M38.196 64.7004C39.0358 58.236 42.8642 51.6952 48.1879 47.6356C53.386 43.6702 59.4866 42.6868 65.5087 42.0177C65.4369 41.7909 65.3493 41.5686 65.237 41.3575C64.4512 39.8845 62.6885 38.9976 61.0359 39.2446C59.6303 39.4557 58.447 40.3695 57.1447 40.9421C55.6134 41.6157 53.8328 41.8043 52.2498 41.261C50.6668 40.7176 49.3286 39.3861 48.9693 37.7514C48.6101 36.1168 49.3533 34.2464 50.833 33.465C51.5964 33.0631 52.5574 32.9037 53.0447 32.1919C53.5387 31.4734 53.3523 30.4428 53.8418 29.7197C54.4278 28.853 55.6695 28.8149 56.7136 28.8867C57.7577 28.9586 58.9814 28.9765 59.6326 28.157C60.4724 27.0972 59.7404 25.3727 60.5262 24.2702C61.2942 23.1947 62.9243 23.4035 64.2019 23.7426C65.8635 24.1849 67.433 24.6205 69.016 25.0898C70.7584 29.136 71.7239 33.593 71.7239 38.2701C71.7239 39.303 71.6768 40.3269 71.5847 41.3373C73.2912 41.1128 74.9348 40.8321 76.4819 40.4302C76.5223 39.7161 76.5447 38.9954 76.5447 38.2701C76.5425 17.1681 59.3744 0 38.2701 0C17.1659 0 0 17.1681 0 38.2701C0 59.3721 17.1681 76.5403 38.2701 76.5403C38.47 76.5403 38.6698 76.5358 38.8674 76.5335C37.8457 72.3122 37.7604 68.0595 38.196 64.7004ZM40.9062 5.097C40.9578 5.04311 41.0117 4.98922 41.0656 4.93757C48.1026 5.52137 54.5266 8.29216 59.6573 12.5696C59.5518 12.8301 59.4305 13.0748 59.2958 13.2881C58.6805 14.2536 57.6118 14.916 56.4734 15.0373C55.9165 15.0956 55.3507 15.0328 54.7983 15.1226C54.2459 15.2124 53.6756 15.4998 53.4713 16.0207C53.2378 16.6158 53.5499 17.2759 53.5521 17.9158C53.5521 18.8252 52.8942 19.638 52.0814 20.0489C51.2686 20.4576 50.33 20.5294 49.4206 20.5137C47.4762 20.48 45.5406 20.0759 43.7443 19.3327C43.0056 19.0273 42.2759 18.6523 41.7347 18.0663C41.1936 17.4802 40.8703 16.6427 41.0656 15.868C41.4181 14.4804 43.2616 13.6945 43.2301 12.262C43.2122 11.4828 42.6149 10.8451 41.993 10.3759C41.371 9.90658 40.6659 9.50017 40.255 8.84003C39.532 7.68366 39.9766 6.09169 40.9084 5.097H40.9062ZM34.6708 42.1322C33.2966 43.7039 32.7779 45.828 32.3042 47.8624C31.7541 50.2222 31.2017 52.5978 31.0939 55.0161C31.049 55.9951 31.0759 56.9898 30.8267 57.9373C30.5775 58.8849 29.9914 59.8077 29.0798 60.1692C28.0402 60.5824 26.8681 60.185 25.8397 59.7426C24.5711 59.1992 23.2643 58.5279 22.548 57.3491C21.468 55.5752 22.0563 53.3164 22.3931 51.2663C22.676 49.5374 22.7501 47.7366 22.2584 46.0548C21.7666 44.373 20.6484 42.8148 19.0475 42.0985C17.5049 41.4069 15.5335 41.4608 14.4333 40.1787C13.2522 38.8 13.7731 36.6624 14.66 35.0794C15.5492 33.4965 15.7445 31.9382 15.8456 30.1262C15.9826 27.6315 15.0058 25.6489 13.2499 23.8706C12.2597 22.8669 11.0652 21.4006 10.3399 19.885C14.5433 13.5216 20.8595 8.67163 28.2827 6.34318C28.2625 8.2742 28.5746 10.2389 29.4907 11.8264C30.1149 12.9086 30.939 14.1795 30.3821 15.3C29.8702 16.3328 28.514 16.5304 27.3666 16.6539C26.2215 16.7797 24.8495 17.1569 24.5554 18.2728C24.0075 20.3476 27.8224 21.6701 27.2813 23.7448C26.9243 25.1167 25.0875 25.2604 23.783 25.8128C22.0653 26.5403 20.9673 28.4736 21.1537 30.3305C21.34 32.1874 22.7591 33.84 24.5442 34.3744C26.3292 34.9088 28.386 34.3385 29.6906 33.0047C30.7526 31.918 31.3858 30.3619 32.7308 29.6569C34.4822 28.7363 36.741 29.7355 37.9154 31.3274C39.6533 33.6806 39.5006 37.244 37.5673 39.44C36.6961 40.4302 35.5375 41.1352 34.6708 42.1277V42.1322ZM42.5678 65.2685C43.2616 59.92 46.5735 54.4099 50.8622 51.1406C60.14 44.0632 74.5329 48.2643 84.1902 41.8874C84.4844 41.6921 84.8728 41.8582 84.9132 42.2085C85.744 49.1153 86.5142 56.1029 85.5577 62.9849C84.5675 70.1207 81.4958 77.252 75.7993 81.6619C70.3789 85.8585 62.8255 87.1294 56.3252 84.9581C56.1568 84.902 56.0265 84.7561 55.9861 84.5832C54.9061 79.7893 55.0318 74.6339 57.1335 70.1971C59.2778 65.6726 62.9939 61.9116 67.4936 59.7134C61.8488 60.6273 56.7855 62.7514 53.0716 67.0962C49.6407 71.1109 47.4919 77.0724 47.164 82.4658C47.1371 82.9126 46.5668 83.1012 46.3086 82.733C42.6508 77.5394 41.9189 70.2667 42.5678 65.2685Z" fill="url(#paint0_linear_3020_4301)"/>
<defs>
<linearGradient id="paint0_linear_3020_4301" x1="43.0011" y1="86" x2="43.0011" y2="0" gradientUnits="userSpaceOnUse">
<stop stop-color="#AED68A"/>
<stop offset="0.49" stop-color="#D6D864"/>
<stop offset="1" stop-color="#FEDA41"/>
</linearGradient>
</defs>
</svg>
