<svg width="1440" height="818" viewBox="0 0 1440 818" fill="none" xmlns="http://www.w3.org/2000/svg">
<rect y="1" width="1440" height="816" fill="#FEE69C"/>
<path opacity="0.8" d="M1262.37 330.849C1313.59 406.035 1441 330.849 1441 330.849V442.415C1441 442.415 1263.62 553.981 1192.42 442.415C1121.22 330.849 1080 1 1080 1H1152.45C1152.45 1 1211.16 255.662 1262.37 330.849Z" fill="#FFF4CC" stroke="#FFEEA9"/>
<path opacity="0.8" d="M836.183 330.849C950.529 406.035 1235 330.849 1235 330.849V442.415C1235 442.415 838.972 553.981 680.003 442.415C521.035 330.849 429 1 429 1H590.758C590.758 1 721.837 255.662 836.183 330.849Z" fill="#FFF4CC" stroke="#FFEEA9"/>
<path opacity="0.8" d="M304.018 190.512C307.954 88.7082 191.862 1 191.862 1H1V817H1441C1441 817 1368.44 680.769 1255.19 652.037C1141.95 623.305 996.665 718.699 845.156 682.676C693.647 646.653 534.576 629.688 438.161 584.268C341.746 538.847 162.558 517.798 162.558 426.958C162.558 336.117 300.083 292.317 304.018 190.512Z" fill="#FFF4CC" stroke="#FFEEA9"/>
</svg>
