<svg width="1440" height="320" viewBox="0 0 1440 320" fill="none" xmlns="http://www.w3.org/2000/svg">
<rect width="1440" height="319.003" transform="matrix(-1 0 0 1 1440 0.99707)" fill="#E2B100" fill-opacity="0.39"/>
<path opacity="0.8" d="M1440 85.6301L1439.95 85.1325L1440.5 85.0787V85.6301V113.578V114.029L1440.05 114.076L1440 113.578C1440.05 114.076 1440.05 114.076 1440.05 114.076L1440.04 114.077L1440 114.081L1439.86 114.096C1439.73 114.109 1439.53 114.129 1439.28 114.155C1438.77 114.207 1438.01 114.284 1437.02 114.383C1435.03 114.581 1432.1 114.868 1428.33 115.223C1420.8 115.932 1409.91 116.915 1396.52 118.007C1369.73 120.191 1332.89 122.812 1292.69 124.559C1212.32 128.052 1118.43 128.058 1064.6 114.062C1010.76 100.064 968.264 72.375 939.232 48.1928C924.715 36.1008 913.561 24.8827 906.035 16.6858C902.272 12.5873 899.415 9.24374 897.498 6.92354C896.54 5.76343 895.817 4.85913 895.332 4.24417C895.09 3.93669 894.908 3.70154 894.786 3.54292C894.725 3.4636 894.679 3.40342 894.648 3.3629L894.613 3.31691L894.604 3.3051L894.602 3.30201C894.601 3.30125 894.601 3.3008 895 3L894.601 3.3008L893.997 2.5H895H1004.38H1004.54L1004.67 2.59419L1004.38 3C1004.67 2.59419 1004.67 2.59439 1004.67 2.59484L1004.67 2.59695L1004.68 2.6055L1004.73 2.63987C1004.78 2.67039 1004.84 2.71607 1004.92 2.7765C1005.09 2.89735 1005.35 3.07717 1005.68 3.31265C1006.35 3.7836 1007.34 4.47717 1008.62 5.3668C1011.19 7.14608 1014.95 9.70956 1019.71 12.8449C1029.22 19.1157 1042.71 27.6731 1058.61 36.8186C1090.42 55.1145 1131.86 75.7438 1170.45 85.1443C1209.03 94.5424 1276.37 94.5483 1334.14 92.1935C1363.01 91.0167 1389.46 89.2513 1408.7 87.7802C1418.32 87.0446 1426.13 86.3826 1431.54 85.9045C1434.24 85.6655 1436.35 85.4725 1437.77 85.3392C1438.49 85.2725 1439.03 85.2208 1439.4 85.1858L1439.81 85.146L1439.92 85.1359L1439.94 85.1333L1439.95 85.1327C1439.95 85.1325 1439.95 85.1325 1440 85.6301Z" fill="#FFF4CC" stroke="#FFEEA9"/>
<path opacity="0.8" d="M367.761 74.8526C334 32.355 231.642 0.99707 231.642 0.99707H0V319.003H1440C1440 319.003 1287.16 304.965 1217.91 290.926C1148.66 276.887 1241.79 235.992 1057.91 221.953C874.03 207.915 758.515 278.415 641.5 260.714C524.485 243.014 464.239 187.669 427.5 170.33C390.761 152.991 401.522 117.35 367.761 74.8526Z" fill="#FDF0C2" stroke="#FFEEA9"/>
<path opacity="0.8" d="M208.238 167.049C160.911 127.854 0 71.7759 0 71.7759V319.003H1257C1257 319.003 1137.74 250.865 1003.33 243.629C868.92 236.393 752.315 259.813 703.5 243.629C654.685 227.445 633.5 190.95 521 167.049C408.5 143.148 255.565 206.243 208.238 167.049Z" fill="#F6CB46" stroke="#FFF4CC"/>
</svg>
