<svg width="79" height="53" viewBox="0 0 79 53" fill="none" xmlns="http://www.w3.org/2000/svg">
<path d="M12.2872 26.3945C12.2872 19.3943 15.128 12.6807 20.1846 7.73079C25.2412 2.78085 32.0995 0 39.2507 0C46.4018 0 53.2601 2.78085 58.3167 7.73078C63.3734 12.6807 66.2141 19.3943 66.2141 26.3945H64.2322C64.2322 19.9088 61.6002 13.6888 56.9153 9.10268C52.2303 4.51659 45.8762 1.94015 39.2507 1.94016C32.6252 1.94016 26.271 4.51659 21.5861 9.10268C16.9011 13.6888 14.2692 19.9088 14.2692 26.3945H12.2872Z" fill="#FFC700"/>
<path d="M18.4306 26.7287C18.4306 21.2348 20.6241 15.9659 24.5286 12.0812C28.4331 8.19639 33.7287 6.01395 39.2505 6.01395C44.7723 6.01395 50.0679 8.19639 53.9724 12.0812C57.8769 15.9659 60.0704 21.2348 60.0704 26.7287H58.54C58.54 21.6386 56.5077 16.757 52.8903 13.1578C49.2728 9.55862 44.3664 7.53661 39.2505 7.53661C34.1346 7.53661 29.2282 9.55862 25.6108 13.1578C21.9933 16.757 19.961 21.6386 19.961 26.7287H18.4306Z" fill="#FFC700"/>
<path d="M54.6096 26.3945C54.6096 22.5843 53.0274 18.9301 50.211 16.2358C47.3947 13.5415 43.5749 12.0279 39.5919 12.0279C35.609 12.0279 31.7892 13.5415 28.9729 16.2358C26.1565 18.93 24.5743 22.5843 24.5743 26.3945L39.5919 26.3945H54.6096Z" fill="#FFC700"/>
<line y1="26.2286" x2="77.8186" y2="26.2286" stroke="#FFC700"/>
<path d="M0.758523 39V30.2727H4.2017C4.86364 30.2727 5.42756 30.3991 5.89347 30.652C6.35938 30.902 6.71449 31.25 6.95881 31.696C7.20597 32.1392 7.32955 32.6506 7.32955 33.2301C7.32955 33.8097 7.20455 34.321 6.95455 34.7642C6.70455 35.2074 6.34233 35.5526 5.8679 35.7997C5.39631 36.0469 4.82528 36.1705 4.15483 36.1705H1.96023V34.6918H3.85653C4.21165 34.6918 4.50426 34.6307 4.73438 34.5085C4.96733 34.3835 5.14063 34.2116 5.25426 33.9929C5.37074 33.7713 5.42898 33.517 5.42898 33.2301C5.42898 32.9403 5.37074 32.6875 5.25426 32.4716C5.14063 32.2528 4.96733 32.0838 4.73438 31.9645C4.50142 31.8423 4.20597 31.7812 3.84801 31.7812H2.60369V39H0.758523ZM16.5479 34.6364C16.5479 35.5881 16.3675 36.3977 16.0067 37.0653C15.6488 37.733 15.1602 38.2429 14.5408 38.5952C13.9244 38.9446 13.2312 39.1193 12.4613 39.1193C11.6857 39.1193 10.9897 38.9432 10.3732 38.5909C9.75675 38.2386 9.26953 37.7287 8.91158 37.0611C8.55362 36.3935 8.37464 35.5852 8.37464 34.6364C8.37464 33.6847 8.55362 32.875 8.91158 32.2074C9.26953 31.5398 9.75675 31.0312 10.3732 30.6818C10.9897 30.3295 11.6857 30.1534 12.4613 30.1534C13.2312 30.1534 13.9244 30.3295 14.5408 30.6818C15.1602 31.0312 15.6488 31.5398 16.0067 32.2074C16.3675 32.875 16.5479 33.6847 16.5479 34.6364ZM14.6772 34.6364C14.6772 34.0199 14.5849 33.5 14.4002 33.0767C14.2184 32.6534 13.9613 32.3324 13.6289 32.1136C13.2965 31.8949 12.9073 31.7855 12.4613 31.7855C12.0153 31.7855 11.6261 31.8949 11.2937 32.1136C10.9613 32.3324 10.7028 32.6534 10.5181 33.0767C10.3363 33.5 10.2454 34.0199 10.2454 34.6364C10.2454 35.2528 10.3363 35.7727 10.5181 36.196C10.7028 36.6193 10.9613 36.9403 11.2937 37.1591C11.6261 37.3778 12.0153 37.4872 12.4613 37.4872C12.9073 37.4872 13.2965 37.3778 13.6289 37.1591C13.9613 36.9403 14.2184 36.6193 14.4002 36.196C14.5849 35.7727 14.6772 35.2528 14.6772 34.6364ZM19.5511 39L17.054 30.2727H19.0696L20.5142 36.3366H20.5866L22.1804 30.2727H23.9062L25.4957 36.3494H25.5724L27.017 30.2727H29.0327L26.5355 39H24.7372L23.0753 33.294H23.0071L21.3494 39H19.5511ZM30.0202 39V30.2727H35.9009V31.794H31.8654V33.8736H35.5984V35.3949H31.8654V37.4787H35.918V39H30.0202ZM37.3679 39V30.2727H40.8111C41.4702 30.2727 42.0327 30.3906 42.4986 30.6264C42.9673 30.8594 43.3239 31.1903 43.5682 31.6193C43.8153 32.0455 43.9389 32.5469 43.9389 33.1236C43.9389 33.7031 43.8139 34.2017 43.5639 34.6193C43.3139 35.0341 42.9517 35.3523 42.4773 35.5739C42.0057 35.7955 41.4347 35.9062 40.7642 35.9062H38.4588V34.4233H40.4659C40.8182 34.4233 41.1108 34.375 41.3438 34.2784C41.5767 34.1818 41.75 34.0369 41.8636 33.8438C41.9801 33.6506 42.0384 33.4105 42.0384 33.1236C42.0384 32.8338 41.9801 32.5895 41.8636 32.3906C41.75 32.1918 41.5753 32.0412 41.3395 31.9389C41.1065 31.8338 40.8125 31.7812 40.4574 31.7812H39.2131V39H37.3679ZM42.081 35.0284L44.25 39H42.2131L40.0909 35.0284H42.081Z" fill="#FFC700"/>
<path d="M45.2429 39V30.2727H47.0881V37.4787H50.8295V39H45.2429ZM53.8967 30.2727V39H52.0515V30.2727H53.8967ZM62.7145 30.2727V39H61.1207L57.3239 33.5071H57.2599V39H55.4148V30.2727H57.0341L60.8011 35.7614H60.8778V30.2727H62.7145ZM64.239 39V30.2727H70.1197V31.794H66.0842V33.8736H69.8171V35.3949H66.0842V37.4787H70.1367V39H64.239ZM76.321 32.7827C76.2869 32.4389 76.1406 32.1719 75.8821 31.9815C75.6236 31.7912 75.2727 31.696 74.8295 31.696C74.5284 31.696 74.2741 31.7386 74.0668 31.8239C73.8594 31.9062 73.7003 32.0213 73.5895 32.169C73.4815 32.3168 73.4276 32.4844 73.4276 32.6719C73.4219 32.8281 73.4545 32.9645 73.5256 33.081C73.5994 33.1974 73.7003 33.2983 73.8281 33.3835C73.956 33.4659 74.1037 33.5384 74.2713 33.6009C74.4389 33.6605 74.6179 33.7116 74.8082 33.7543L75.5923 33.9418C75.973 34.027 76.3224 34.1406 76.6406 34.2827C76.9588 34.4247 77.2344 34.5994 77.4673 34.8068C77.7003 35.0142 77.8807 35.2585 78.0085 35.5398C78.1392 35.821 78.206 36.1435 78.2088 36.5071C78.206 37.0412 78.0696 37.5043 77.7997 37.8963C77.5327 38.2855 77.1463 38.5881 76.6406 38.804C76.1378 39.017 75.5313 39.1236 74.821 39.1236C74.1165 39.1236 73.5028 39.0156 72.9801 38.7997C72.4602 38.5838 72.054 38.2642 71.7614 37.8409C71.4716 37.4148 71.3196 36.8878 71.3054 36.2599H73.0909C73.1108 36.5526 73.1946 36.7969 73.3423 36.9929C73.4929 37.1861 73.6932 37.3324 73.9432 37.4318C74.196 37.5284 74.4815 37.5767 74.7997 37.5767C75.1122 37.5767 75.3835 37.5312 75.6136 37.4403C75.8466 37.3494 76.027 37.223 76.1548 37.0611C76.2827 36.8991 76.3466 36.7131 76.3466 36.5028C76.3466 36.3068 76.2884 36.142 76.1719 36.0085C76.0582 35.875 75.8906 35.7614 75.669 35.6676C75.4503 35.5739 75.1818 35.4886 74.8636 35.4119L73.9134 35.1733C73.1776 34.9943 72.5966 34.7145 72.1705 34.3338C71.7443 33.9531 71.5327 33.4403 71.5355 32.7955C71.5327 32.267 71.6733 31.8054 71.9574 31.4105C72.2443 31.0156 72.6378 30.7074 73.1378 30.4858C73.6378 30.2642 74.206 30.1534 74.8423 30.1534C75.4901 30.1534 76.0554 30.2642 76.5384 30.4858C77.0241 30.7074 77.402 31.0156 77.6719 31.4105C77.9418 31.8054 78.081 32.2628 78.0895 32.7827H76.321Z" fill="black"/>
</svg>
