<svg width="1440" height="1473" viewBox="0 0 1440 1473" fill="none" xmlns="http://www.w3.org/2000/svg">
<rect y="1" width="1440" height="1471" fill="#FEF2C2" fill-opacity="0.5"/>
<path opacity="0.8" d="M257.301 544.477C183.529 668.358 0 544.477 0 544.477V728.301C0 728.301 255.502 912.124 358.062 728.301C460.623 544.477 520 1 520 1H415.64C415.64 1 331.073 420.597 257.301 544.477Z" fill="#F6D980" fill-opacity="0.3" stroke="#FFEEA9"/>
<path opacity="0.8" d="M1136.98 342.633C1133.05 159.111 1249.14 1 1249.14 1H1440V1472H0C0 1472 72.5597 1226.42 185.806 1174.62C299.053 1122.83 444.335 1294.79 595.844 1229.85C747.353 1164.92 658.166 916.736 754.581 834.857C850.996 752.978 1336.77 879.368 1336.77 715.61C1336.77 551.852 1140.92 526.155 1136.98 342.633Z" fill="#F9D252" fill-opacity="0.21" stroke="#FFEEA9"/>
<path opacity="0.8" d="M1142.89 798.283C1197.11 649.418 1440 533 1440 533V1472H0C0 1472 154.452 1252.54 308.428 1225.06C462.404 1197.58 712.12 1264.71 762 1287.61C811.88 1310.51 955.12 1274.32 1005 1207.91C1054.88 1141.49 1088.67 947.149 1142.89 798.283Z" fill="#F5CB26" fill-opacity="0.2" stroke="#FFF4CC"/>
</svg>
