<svg width="56" height="80" viewBox="0 0 56 80" fill="none" xmlns="http://www.w3.org/2000/svg">
<path d="M53.7982 17.0639C52.3873 13.7364 50.3694 10.7486 47.7982 8.18289C45.227 5.61715 42.2329 3.60359 38.8983 2.19569C35.4463 0.738643 31.7786 0 27.9993 0C24.22 0 20.5522 0.738643 17.1003 2.19569C13.7657 3.60359 10.7715 5.61715 8.20032 8.18289C5.62912 10.7486 3.61127 13.7364 2.20037 17.0639C0.740216 20.51 0 24.1685 0 27.9398C0 32.4135 1.02848 36.6893 3.05647 40.647C3.31431 41.1501 3.60113 41.6675 3.90967 42.185C4.22691 42.717 4.56442 43.2446 4.91642 43.7548L27.9993 79.7214L51.0966 43.7331L52.9189 40.6918L52.9421 40.647C54.9701 36.6893 55.9985 32.4135 55.9985 27.9398C55.9985 24.1685 55.2583 20.51 53.7982 17.0639ZM27.9993 43.5091C19.8786 43.5091 13.2964 36.9408 13.2964 28.8374C13.2964 20.734 19.8786 14.1658 27.9993 14.1658C36.1199 14.1658 42.7022 20.734 42.7022 28.8374C42.7022 36.9408 36.1199 43.5091 27.9993 43.5091Z" fill="url(#paint0_linear_1574_465)"/>
<defs>
<linearGradient id="paint0_linear_1574_465" x1="27.9993" y1="0" x2="27.9993" y2="79.7214" gradientUnits="userSpaceOnUse">
<stop offset="0.151" stop-color="#264D70"/>
<stop offset="1" stop-color="#264E71"/>
</linearGradient>
</defs>
</svg>
