<svg width="72" height="64" viewBox="0 0 72 64" fill="none" xmlns="http://www.w3.org/2000/svg">
<path d="M5.97461 13V12.2617L6.92969 12.0977V5.37695L5.97461 5.21289V4.47461H9.77734C10.3984 4.47461 10.9219 4.56836 11.3477 4.75586C11.7773 4.93945 12.1035 5.20703 12.3262 5.55859C12.5488 5.91016 12.6602 6.33984 12.6602 6.84766C12.6602 7.34766 12.5508 7.76758 12.332 8.10742C12.1172 8.44727 11.8105 8.70508 11.4121 8.88086C11.0137 9.05273 10.541 9.14453 9.99414 9.15625L8.08398 9.19141V12.0977L9.03906 12.2617V13H5.97461ZM11.6055 13L9.70703 8.74023L10.8613 8.72852L12.4375 12.1387L13.0293 12.2441V13H11.6055ZM8.08398 8.2832H9.66016C10.3047 8.2832 10.7734 8.16016 11.0664 7.91406C11.3594 7.66797 11.5059 7.30859 11.5059 6.83594C11.5059 6.38672 11.3652 6.03125 11.084 5.76953C10.8027 5.50781 10.3672 5.37695 9.77734 5.37695H8.08398V8.2832ZM16.9434 13.123C16.3574 13.123 15.8477 12.9902 15.4141 12.7246C14.9805 12.4551 14.6445 12.082 14.4062 11.6055C14.1719 11.1289 14.0547 10.5781 14.0547 9.95312V9.69531C14.0547 9.09375 14.1777 8.55664 14.4238 8.08398C14.6738 7.60742 15.0039 7.23242 15.4141 6.95898C15.8281 6.68164 16.2793 6.54297 16.7676 6.54297C17.3379 6.54297 17.8145 6.66016 18.1973 6.89453C18.584 7.12891 18.875 7.45898 19.0703 7.88477C19.2656 8.30664 19.3633 8.80469 19.3633 9.37891V10.0996H15.25L15.2324 10.1289C15.2402 10.5352 15.3105 10.8965 15.4434 11.2129C15.5801 11.5254 15.7754 11.7715 16.0293 11.9512C16.2832 12.1309 16.5879 12.2207 16.9434 12.2207C17.334 12.2207 17.6758 12.166 17.9688 12.0566C18.2656 11.9434 18.5215 11.7891 18.7363 11.5938L19.1875 12.3438C18.9609 12.5625 18.6602 12.748 18.2852 12.9004C17.9141 13.0488 17.4668 13.123 16.9434 13.123ZM15.2852 9.19727H18.209V9.04492C18.209 8.74023 18.1543 8.46875 18.0449 8.23047C17.9395 7.98828 17.7793 7.79883 17.5645 7.66211C17.3535 7.52148 17.0879 7.45117 16.7676 7.45117C16.5098 7.45117 16.2754 7.52734 16.0645 7.67969C15.8535 7.82812 15.6797 8.03125 15.543 8.28906C15.4062 8.54688 15.3164 8.83984 15.2734 9.16797L15.2852 9.19727ZM22.4102 13.123C21.75 13.123 21.248 12.9629 20.9043 12.6426C20.5605 12.3184 20.3887 11.8633 20.3887 11.2773C20.3887 10.875 20.498 10.5254 20.7168 10.2285C20.9395 9.92773 21.2598 9.69531 21.6777 9.53125C22.0957 9.36328 22.5957 9.2793 23.1777 9.2793H24.3086V8.6582C24.3086 8.27539 24.1914 7.97852 23.957 7.76758C23.7266 7.55664 23.4004 7.45117 22.9785 7.45117C22.7129 7.45117 22.4824 7.48438 22.2871 7.55078C22.0918 7.61328 21.9141 7.70117 21.7539 7.81445L21.6309 8.69922H20.7402V7.24609C21.0254 7.01562 21.3574 6.8418 21.7363 6.72461C22.1152 6.60352 22.5352 6.54297 22.9961 6.54297C23.7656 6.54297 24.3691 6.72656 24.8066 7.09375C25.2441 7.46094 25.4629 7.98633 25.4629 8.66992V11.7227C25.4629 11.8047 25.4629 11.8848 25.4629 11.9629C25.4668 12.041 25.4727 12.1191 25.4805 12.1973L26.0957 12.2617V13H24.4375C24.4023 12.8281 24.375 12.6738 24.3555 12.5371C24.3359 12.4004 24.3223 12.2637 24.3145 12.127C24.0918 12.4121 23.8125 12.6504 23.4766 12.8418C23.1445 13.0293 22.7891 13.123 22.4102 13.123ZM22.5801 12.1562C22.9629 12.1562 23.3125 12.0645 23.6289 11.8809C23.9453 11.6973 24.1719 11.4766 24.3086 11.2188V10.0703H23.1367C22.6055 10.0703 22.207 10.1973 21.9414 10.4512C21.6758 10.7051 21.543 10.9883 21.543 11.3008C21.543 11.5781 21.6289 11.791 21.8008 11.9395C21.9727 12.084 22.2324 12.1562 22.5801 12.1562ZM29.4824 13.123C28.9668 13.123 28.5234 12.9961 28.1523 12.7422C27.7852 12.4844 27.5039 12.127 27.3086 11.6699C27.1133 11.2129 27.0156 10.6797 27.0156 10.0703V9.94727C27.0156 9.26758 27.1133 8.67188 27.3086 8.16016C27.5039 7.64844 27.7871 7.25195 28.1582 6.9707C28.5293 6.68555 28.9746 6.54297 29.4941 6.54297C29.8691 6.54297 30.1992 6.61328 30.4844 6.75391C30.7734 6.89062 31.0195 7.08984 31.2227 7.35156V4.76758L30.2676 4.60352V3.85938H31.2227H32.377V12.0977L33.332 12.2617V13H31.375L31.2812 12.2441C31.0742 12.5332 30.8203 12.752 30.5195 12.9004C30.2227 13.0488 29.877 13.123 29.4824 13.123ZM29.7754 12.1855C30.1191 12.1855 30.4082 12.1074 30.6426 11.9512C30.877 11.7949 31.0703 11.5742 31.2227 11.2891V8.34766C31.0742 8.08203 30.8809 7.87109 30.6426 7.71484C30.4043 7.55859 30.1191 7.48047 29.7871 7.48047C29.4199 7.48047 29.1172 7.58594 28.8789 7.79688C28.6406 8.00391 28.4629 8.29297 28.3457 8.66406C28.2285 9.03125 28.1699 9.45898 28.1699 9.94727V10.0703C28.1699 10.707 28.3008 11.2188 28.5625 11.6055C28.8242 11.9922 29.2285 12.1855 29.7754 12.1855ZM37.2344 13V12.2617L38.1895 12.0977V5.37695L37.2344 5.21289V4.46875H38.1895H39.7305L42.4785 10.9434H42.5137L45.1738 4.46875H47.7461V5.21289L46.791 5.37695V12.0977L47.7461 12.2617V13H44.6816V12.2617L45.6895 12.0977V9.625V6.04492L45.6602 6.03906L42.8887 12.6953H42.1211L39.2559 6.05078L39.2266 6.05664L39.2676 9.625V12.0977L40.2988 12.2617V13H37.2344ZM51.5957 13.123C51.0098 13.123 50.5039 12.9863 50.0781 12.7129C49.6562 12.4355 49.3301 12.0547 49.0996 11.5703C48.8691 11.082 48.7539 10.5254 48.7539 9.90039V9.77148C48.7539 9.14648 48.8691 8.5918 49.0996 8.10742C49.3301 7.61914 49.6562 7.23633 50.0781 6.95898C50.5039 6.68164 51.0059 6.54297 51.584 6.54297C52.1699 6.54297 52.6738 6.68164 53.0957 6.95898C53.5215 7.23633 53.8496 7.61719 54.0801 8.10156C54.3105 8.58594 54.4258 9.14258 54.4258 9.77148V9.90039C54.4258 10.5293 54.3105 11.0879 54.0801 11.5762C53.8496 12.0605 53.5234 12.4395 53.1016 12.7129C52.6797 12.9863 52.1777 13.123 51.5957 13.123ZM51.5957 12.2207C51.9629 12.2207 52.2695 12.1211 52.5156 11.9219C52.7656 11.7188 52.9531 11.4434 53.0781 11.0957C53.207 10.7441 53.2715 10.3457 53.2715 9.90039V9.77148C53.2715 9.32617 53.207 8.92969 53.0781 8.58203C52.9531 8.23047 52.7656 7.95508 52.5156 7.75586C52.2656 7.55273 51.9551 7.45117 51.584 7.45117C51.2168 7.45117 50.9082 7.55273 50.6582 7.75586C50.4082 7.95508 50.2207 8.23047 50.0957 8.58203C49.9707 8.92969 49.9082 9.32617 49.9082 9.77148V9.90039C49.9082 10.3457 49.9707 10.7441 50.0957 11.0957C50.2207 11.4434 50.4082 11.7188 50.6582 11.9219C50.9121 12.1211 51.2246 12.2207 51.5957 12.2207ZM55.3047 13V12.2617L56.2598 12.0977V7.56836L55.3047 7.4043V6.66016H57.291L57.3906 7.46875L57.4023 7.58008C57.582 7.25586 57.8027 7.00195 58.0645 6.81836C58.3301 6.63477 58.6328 6.54297 58.9727 6.54297C59.0938 6.54297 59.2168 6.55469 59.3418 6.57812C59.4707 6.59766 59.5625 6.61719 59.6172 6.63672L59.4648 7.70898L58.6621 7.66211C58.3574 7.64258 58.1016 7.71289 57.8945 7.87305C57.6875 8.0293 57.5273 8.24023 57.4141 8.50586V12.0977L58.3691 12.2617V13H55.3047ZM63.0918 13.123C62.5059 13.123 61.9961 12.9902 61.5625 12.7246C61.1289 12.4551 60.793 12.082 60.5547 11.6055C60.3203 11.1289 60.2031 10.5781 60.2031 9.95312V9.69531C60.2031 9.09375 60.3262 8.55664 60.5723 8.08398C60.8223 7.60742 61.1523 7.23242 61.5625 6.95898C61.9766 6.68164 62.4277 6.54297 62.916 6.54297C63.4863 6.54297 63.9629 6.66016 64.3457 6.89453C64.7324 7.12891 65.0234 7.45898 65.2188 7.88477C65.4141 8.30664 65.5117 8.80469 65.5117 9.37891V10.0996H61.3984L61.3809 10.1289C61.3887 10.5352 61.459 10.8965 61.5918 11.2129C61.7285 11.5254 61.9238 11.7715 62.1777 11.9512C62.4316 12.1309 62.7363 12.2207 63.0918 12.2207C63.4824 12.2207 63.8242 12.166 64.1172 12.0566C64.4141 11.9434 64.6699 11.7891 64.8848 11.5938L65.3359 12.3438C65.1094 12.5625 64.8086 12.748 64.4336 12.9004C64.0625 13.0488 63.6152 13.123 63.0918 13.123ZM61.4336 9.19727H64.3574V9.04492C64.3574 8.74023 64.3027 8.46875 64.1934 8.23047C64.0879 7.98828 63.9277 7.79883 63.7129 7.66211C63.502 7.52148 63.2363 7.45117 62.916 7.45117C62.6582 7.45117 62.4238 7.52734 62.2129 7.67969C62.002 7.82812 61.8281 8.03125 61.6914 8.28906C61.5547 8.54688 61.4648 8.83984 61.4219 9.16797L61.4336 9.19727Z" fill="white"/>
<mask id="mask0_1337_699" style="mask-type:alpha" maskUnits="userSpaceOnUse" x="19" y="22" width="34" height="35">
<rect x="52.9871" y="22.7308" width="33.9744" height="33.9744" transform="rotate(90 52.9871 22.7308)" fill="#D9D9D9"/>
</mask>
<g mask="url(#mask0_1337_699)">
<path d="M21.8438 34.0909L24.3565 31.5782L35.9998 43.2215L47.6431 31.5782L50.1558 34.0909L35.9998 48.2469L21.8438 34.0909Z" fill="white"/>
</g>
</svg>
