<svg width="58" height="63" viewBox="0 0 58 63" fill="none" xmlns="http://www.w3.org/2000/svg">
<circle cx="29" cy="19.5" r="19.5" fill="#FFDE6B"/>
<mask id="mask0_11_24" style="mask-type:alpha" maskUnits="userSpaceOnUse" x="16" y="9" width="26" height="25">
<rect x="41.5" y="9" width="25" height="25" transform="rotate(90 41.5 9)" fill="#D9D9D9"/>
</mask>
<g mask="url(#mask0_11_24)">
<path d="M18.5834 17.3593L20.4323 15.5104L29 24.0781L37.5677 15.5104L39.4167 17.3593L29 27.776L18.5834 17.3593Z" fill="white"/>
</g>
<path d="M0.504 51.504C0.672 51.512 0.892 51.52 1.164 51.528C1.436 51.536 1.704 51.54 1.968 51.54C2.344 51.54 2.704 51.536 3.048 51.528C3.392 51.52 3.636 51.516 3.78 51.516C4.428 51.516 4.964 51.608 5.388 51.792C5.82 51.976 6.14 52.228 6.348 52.548C6.564 52.86 6.672 53.212 6.672 53.604C6.672 53.844 6.624 54.1 6.528 54.372C6.432 54.644 6.264 54.9 6.024 55.14C5.792 55.38 5.472 55.58 5.064 55.74C4.656 55.892 4.14 55.968 3.516 55.968H2.364V55.728H3.396C3.964 55.728 4.396 55.64 4.692 55.464C4.996 55.28 5.2 55.04 5.304 54.744C5.416 54.44 5.472 54.104 5.472 53.736C5.472 53.104 5.32 52.616 5.016 52.272C4.72 51.92 4.208 51.744 3.48 51.744C3.112 51.744 2.872 51.812 2.76 51.948C2.648 52.084 2.592 52.36 2.592 52.776V58.728C2.592 59.016 2.616 59.232 2.664 59.376C2.712 59.52 2.804 59.616 2.94 59.664C3.084 59.712 3.292 59.744 3.564 59.76V60C3.38 59.984 3.148 59.976 2.868 59.976C2.596 59.968 2.32 59.964 2.04 59.964C1.728 59.964 1.436 59.968 1.164 59.976C0.892 59.976 0.672 59.984 0.504 60V59.76C0.776 59.744 0.98 59.712 1.116 59.664C1.26 59.616 1.356 59.52 1.404 59.376C1.452 59.232 1.476 59.016 1.476 58.728V52.776C1.476 52.48 1.452 52.264 1.404 52.128C1.356 51.984 1.26 51.888 1.116 51.84C0.98 51.784 0.776 51.752 0.504 51.744V51.504ZM2.412 55.764C2.844 55.78 3.184 55.8 3.432 55.824C3.68 55.84 3.88 55.856 4.032 55.872C4.192 55.888 4.344 55.908 4.488 55.932C5.024 56.02 5.408 56.184 5.64 56.424C5.88 56.656 6.056 57.02 6.168 57.516L6.468 58.74C6.548 59.092 6.628 59.348 6.708 59.508C6.796 59.66 6.928 59.732 7.104 59.724C7.24 59.716 7.352 59.672 7.44 59.592C7.536 59.512 7.636 59.404 7.74 59.268L7.92 59.4C7.752 59.648 7.576 59.84 7.392 59.976C7.216 60.104 6.964 60.168 6.636 60.168C6.34 60.168 6.08 60.08 5.856 59.904C5.632 59.728 5.464 59.384 5.352 58.872L5.088 57.672C5.016 57.328 4.932 57.032 4.836 56.784C4.748 56.528 4.62 56.328 4.452 56.184C4.292 56.04 4.052 55.968 3.732 55.968H2.436L2.412 55.764ZM11.0453 53.652C11.7493 53.652 12.2973 53.868 12.6893 54.3C13.0893 54.724 13.2893 55.388 13.2893 56.292H9.05325L9.04125 56.064H12.1373C12.1533 55.672 12.1213 55.312 12.0413 54.984C11.9613 54.648 11.8333 54.38 11.6573 54.18C11.4893 53.98 11.2693 53.88 10.9973 53.88C10.6293 53.88 10.3013 54.064 10.0133 54.432C9.73325 54.8 9.56525 55.384 9.50925 56.184L9.54525 56.232C9.52925 56.352 9.51725 56.484 9.50925 56.628C9.50125 56.772 9.49725 56.916 9.49725 57.06C9.49725 57.604 9.58525 58.072 9.76125 58.464C9.93725 58.856 10.1653 59.156 10.4453 59.364C10.7333 59.564 11.0293 59.664 11.3333 59.664C11.5733 59.664 11.8013 59.628 12.0173 59.556C12.2333 59.476 12.4333 59.348 12.6173 59.172C12.8013 58.996 12.9613 58.76 13.0973 58.464L13.3373 58.56C13.2493 58.824 13.1053 59.08 12.9053 59.328C12.7053 59.576 12.4533 59.78 12.1493 59.94C11.8453 60.092 11.4933 60.168 11.0933 60.168C10.5173 60.168 10.0213 60.036 9.60525 59.772C9.19725 59.508 8.88125 59.144 8.65725 58.68C8.44125 58.208 8.33325 57.668 8.33325 57.06C8.33325 56.356 8.44525 55.752 8.66925 55.248C8.89325 54.736 9.20925 54.344 9.61725 54.072C10.0253 53.792 10.5013 53.652 11.0453 53.652ZM15.9036 60.084C15.5756 60.084 15.2916 60.024 15.0516 59.904C14.8116 59.776 14.6276 59.6 14.4996 59.376C14.3796 59.152 14.3196 58.892 14.3196 58.596C14.3196 58.244 14.3996 57.956 14.5596 57.732C14.7276 57.508 14.9396 57.328 15.1956 57.192C15.4516 57.056 15.7196 56.944 15.9996 56.856C16.2876 56.76 16.5596 56.672 16.8156 56.592C17.0716 56.504 17.2796 56.404 17.4396 56.292C17.6076 56.18 17.6916 56.032 17.6916 55.848V55.104C17.6916 54.768 17.6396 54.512 17.5356 54.336C17.4396 54.16 17.3076 54.044 17.1396 53.988C16.9716 53.924 16.7836 53.892 16.5756 53.892C16.3756 53.892 16.1596 53.92 15.9276 53.976C15.7036 54.032 15.5236 54.148 15.3876 54.324C15.5396 54.356 15.6716 54.436 15.7836 54.564C15.8956 54.692 15.9516 54.856 15.9516 55.056C15.9516 55.256 15.8876 55.416 15.7596 55.536C15.6316 55.648 15.4676 55.704 15.2676 55.704C15.0356 55.704 14.8636 55.632 14.7516 55.488C14.6476 55.336 14.5956 55.168 14.5956 54.984C14.5956 54.776 14.6476 54.608 14.7516 54.48C14.8556 54.352 14.9876 54.232 15.1476 54.12C15.3316 53.992 15.5676 53.884 15.8556 53.796C16.1516 53.7 16.4836 53.652 16.8516 53.652C17.1796 53.652 17.4596 53.692 17.6916 53.772C17.9236 53.844 18.1156 53.952 18.2676 54.096C18.4756 54.288 18.6116 54.524 18.6756 54.804C18.7396 55.076 18.7716 55.404 18.7716 55.788V59.124C18.7716 59.324 18.7996 59.468 18.8556 59.556C18.9196 59.644 19.0156 59.688 19.1436 59.688C19.2316 59.688 19.3156 59.668 19.3956 59.628C19.4756 59.588 19.5716 59.524 19.6836 59.436L19.8156 59.64C19.6476 59.768 19.4876 59.876 19.3356 59.964C19.1836 60.044 18.9796 60.084 18.7236 60.084C18.4916 60.084 18.2996 60.044 18.1476 59.964C17.9956 59.884 17.8796 59.768 17.7996 59.616C17.7276 59.456 17.6916 59.256 17.6916 59.016C17.4756 59.376 17.2156 59.644 16.9116 59.82C16.6156 59.996 16.2796 60.084 15.9036 60.084ZM16.3356 59.604C16.5996 59.604 16.8436 59.528 17.0676 59.376C17.2996 59.224 17.5076 58.996 17.6916 58.692V56.34C17.5956 56.476 17.4556 56.592 17.2716 56.688C17.0876 56.776 16.8876 56.868 16.6716 56.964C16.4556 57.052 16.2476 57.16 16.0476 57.288C15.8556 57.408 15.6956 57.568 15.5676 57.768C15.4396 57.968 15.3756 58.228 15.3756 58.548C15.3756 58.868 15.4596 59.124 15.6276 59.316C15.8036 59.508 16.0396 59.604 16.3356 59.604ZM25.6361 50.592V58.692C25.6361 59.052 25.7001 59.32 25.8281 59.496C25.9641 59.664 26.2041 59.748 26.5481 59.748V60C26.3001 59.976 26.0521 59.964 25.8041 59.964C25.5721 59.964 25.3481 59.976 25.1321 60C24.9241 60.024 24.7321 60.068 24.5561 60.132V52.032C24.5561 51.672 24.4921 51.408 24.3641 51.24C24.2361 51.064 23.9961 50.976 23.6441 50.976V50.724C23.9001 50.748 24.1481 50.76 24.3881 50.76C24.6201 50.76 24.8401 50.748 25.0481 50.724C25.2641 50.692 25.4601 50.648 25.6361 50.592ZM23.1161 53.652C23.4681 53.652 23.7961 53.736 24.1001 53.904C24.4121 54.072 24.6201 54.36 24.7241 54.768L24.5681 54.888C24.4561 54.552 24.2801 54.308 24.0401 54.156C23.8081 54.004 23.5321 53.928 23.2121 53.928C22.7401 53.928 22.3441 54.172 22.0241 54.66C21.7121 55.148 21.5601 55.9 21.5681 56.916C21.5681 57.564 21.6281 58.104 21.7481 58.536C21.8761 58.96 22.0601 59.28 22.3001 59.496C22.5481 59.704 22.8481 59.808 23.2001 59.808C23.5361 59.808 23.8401 59.664 24.1121 59.376C24.3841 59.088 24.5481 58.664 24.6041 58.104L24.7481 58.272C24.6841 58.88 24.4881 59.348 24.1601 59.676C23.8401 60.004 23.4041 60.168 22.8521 60.168C22.3561 60.168 21.9201 60.048 21.5441 59.808C21.1761 59.568 20.8921 59.208 20.6921 58.728C20.5001 58.248 20.4041 57.644 20.4041 56.916C20.4041 56.188 20.5281 55.584 20.7761 55.104C21.0321 54.616 21.3641 54.252 21.7721 54.012C22.1881 53.772 22.6361 53.652 23.1161 53.652ZM39.7371 51.504V51.744C39.4651 51.752 39.2571 51.784 39.1131 51.84C38.9771 51.888 38.8851 51.984 38.8371 52.128C38.7891 52.264 38.7651 52.48 38.7651 52.776V58.728C38.7651 59.016 38.7891 59.232 38.8371 59.376C38.8851 59.52 38.9771 59.616 39.1131 59.664C39.2571 59.712 39.4651 59.744 39.7371 59.76V60C39.5531 59.984 39.3211 59.976 39.0411 59.976C38.7691 59.968 38.4931 59.964 38.2131 59.964C37.9011 59.964 37.6091 59.968 37.3371 59.976C37.0651 59.976 36.8451 59.984 36.6771 60V59.76C36.9491 59.744 37.1531 59.712 37.2891 59.664C37.4331 59.616 37.5291 59.52 37.5771 59.376C37.6251 59.232 37.6491 59.016 37.6491 58.728V52.128L37.6971 52.164L34.7571 60.06H34.5651L31.5411 52.272V58.608C31.5411 58.896 31.5651 59.124 31.6131 59.292C31.6691 59.452 31.7731 59.568 31.9251 59.64C32.0851 59.704 32.3211 59.744 32.6331 59.76V60C32.4891 59.984 32.3011 59.976 32.0691 59.976C31.8371 59.968 31.6171 59.964 31.4091 59.964C31.2091 59.964 31.0051 59.968 30.7971 59.976C30.5971 59.976 30.4291 59.984 30.2931 60V59.76C30.5651 59.744 30.7691 59.704 30.9051 59.64C31.0491 59.568 31.1451 59.452 31.1931 59.292C31.2411 59.124 31.2651 58.896 31.2651 58.608V52.776C31.2651 52.48 31.2411 52.264 31.1931 52.128C31.1451 51.984 31.0491 51.888 30.9051 51.84C30.7691 51.784 30.5651 51.752 30.2931 51.744V51.504C30.4291 51.512 30.5971 51.52 30.7971 51.528C31.0051 51.536 31.2091 51.54 31.4091 51.54C31.5851 51.54 31.7651 51.536 31.9491 51.528C32.1411 51.52 32.3011 51.512 32.4291 51.504L35.1531 58.68L34.9491 58.776L37.6491 51.54C37.7451 51.54 37.8371 51.54 37.9251 51.54C38.0211 51.54 38.1171 51.54 38.2131 51.54C38.4931 51.54 38.7691 51.536 39.0411 51.528C39.3211 51.52 39.5531 51.512 39.7371 51.504ZM43.3193 53.652C43.8313 53.652 44.2913 53.764 44.6993 53.988C45.1073 54.212 45.4313 54.564 45.6713 55.044C45.9193 55.524 46.0433 56.148 46.0433 56.916C46.0433 57.684 45.9193 58.308 45.6713 58.788C45.4313 59.26 45.1073 59.608 44.6993 59.832C44.2913 60.056 43.8313 60.168 43.3193 60.168C42.8153 60.168 42.3553 60.056 41.9393 59.832C41.5313 59.608 41.2033 59.26 40.9553 58.788C40.7153 58.308 40.5953 57.684 40.5953 56.916C40.5953 56.148 40.7153 55.524 40.9553 55.044C41.2033 54.564 41.5313 54.212 41.9393 53.988C42.3553 53.764 42.8153 53.652 43.3193 53.652ZM43.3193 53.892C42.8633 53.892 42.4873 54.128 42.1913 54.6C41.9033 55.072 41.7593 55.844 41.7593 56.916C41.7593 57.988 41.9033 58.76 42.1913 59.232C42.4873 59.696 42.8633 59.928 43.3193 59.928C43.7753 59.928 44.1473 59.696 44.4353 59.232C44.7313 58.76 44.8793 57.988 44.8793 56.916C44.8793 55.844 44.7313 55.072 44.4353 54.6C44.1473 54.128 43.7753 53.892 43.3193 53.892ZM50.6855 53.652C50.9015 53.652 51.0895 53.696 51.2495 53.784C51.4175 53.872 51.5455 53.988 51.6335 54.132C51.7295 54.268 51.7775 54.424 51.7775 54.6C51.7775 54.8 51.7135 54.976 51.5855 55.128C51.4655 55.28 51.3015 55.356 51.0935 55.356C50.9255 55.356 50.7775 55.304 50.6495 55.2C50.5215 55.088 50.4575 54.932 50.4575 54.732C50.4575 54.58 50.4975 54.452 50.5775 54.348C50.6655 54.236 50.7615 54.148 50.8655 54.084C50.8095 54.004 50.7255 53.964 50.6135 53.964C50.3655 53.964 50.1375 54.04 49.9295 54.192C49.7215 54.336 49.5455 54.524 49.4015 54.756C49.2575 54.988 49.1455 55.236 49.0655 55.5C48.9855 55.756 48.9455 55.996 48.9455 56.22V58.764C48.9455 59.156 49.0575 59.42 49.2815 59.556C49.5135 59.684 49.8255 59.748 50.2175 59.748V60C50.0335 59.992 49.7735 59.984 49.4375 59.976C49.1015 59.96 48.7455 59.952 48.3695 59.952C48.0975 59.952 47.8255 59.96 47.5535 59.976C47.2895 59.984 47.0895 59.992 46.9535 60V59.748C47.2815 59.748 47.5135 59.688 47.6495 59.568C47.7935 59.448 47.8655 59.22 47.8655 58.884V55.128C47.8655 54.768 47.8015 54.504 47.6735 54.336C47.5455 54.16 47.3055 54.072 46.9535 54.072V53.82C47.2095 53.844 47.4575 53.856 47.6975 53.856C47.9295 53.856 48.1495 53.844 48.3575 53.82C48.5735 53.788 48.7695 53.744 48.9455 53.688V55.188C49.0335 54.956 49.1575 54.724 49.3175 54.492C49.4855 54.252 49.6855 54.052 49.9175 53.892C50.1495 53.732 50.4055 53.652 50.6855 53.652ZM54.9788 53.652C55.6828 53.652 56.2308 53.868 56.6228 54.3C57.0228 54.724 57.2228 55.388 57.2228 56.292H52.9868L52.9748 56.064H56.0708C56.0868 55.672 56.0548 55.312 55.9748 54.984C55.8948 54.648 55.7668 54.38 55.5908 54.18C55.4228 53.98 55.2028 53.88 54.9308 53.88C54.5628 53.88 54.2348 54.064 53.9468 54.432C53.6668 54.8 53.4988 55.384 53.4428 56.184L53.4788 56.232C53.4628 56.352 53.4508 56.484 53.4428 56.628C53.4348 56.772 53.4308 56.916 53.4308 57.06C53.4308 57.604 53.5188 58.072 53.6948 58.464C53.8708 58.856 54.0988 59.156 54.3788 59.364C54.6668 59.564 54.9628 59.664 55.2668 59.664C55.5068 59.664 55.7348 59.628 55.9508 59.556C56.1668 59.476 56.3668 59.348 56.5508 59.172C56.7348 58.996 56.8948 58.76 57.0308 58.464L57.2708 58.56C57.1828 58.824 57.0388 59.08 56.8388 59.328C56.6388 59.576 56.3868 59.78 56.0828 59.94C55.7788 60.092 55.4268 60.168 55.0268 60.168C54.4508 60.168 53.9548 60.036 53.5388 59.772C53.1308 59.508 52.8148 59.144 52.5908 58.68C52.3748 58.208 52.2668 57.668 52.2668 57.06C52.2668 56.356 52.3788 55.752 52.6028 55.248C52.8268 54.736 53.1428 54.344 53.5508 54.072C53.9588 53.792 54.4348 53.652 54.9788 53.652Z" fill="black"/>
</svg>
