<svg width="39" height="39" viewBox="0 0 39 39" fill="none" xmlns="http://www.w3.org/2000/svg">
<circle cx="19.5" cy="19.5" r="19.5" fill="#FFC700"/>
<path d="M11.1237 18.3168C11.0757 17.3739 11.2158 16.4939 11.3939 15.7943C12.3021 16.6306 13.3591 17.3243 14.521 17.8467C16.2302 18.615 18.1199 18.9916 20.0232 18.9476C20.5663 18.935 21 18.4911 21 17.9478V17.0547L20.9999 17.0397C20.9911 16.4531 21.1833 15.8666 21.5691 15.359C21.9564 14.8494 22.523 14.4419 23.2047 14.2095C23.8867 13.9771 24.6368 13.9365 25.3489 14.0956C26.0609 14.2547 26.6847 14.6019 27.1436 15.0731C27.3964 15.3327 27.7698 15.4352 28.1197 15.3411C28.2861 15.2964 28.4512 15.2484 28.6151 15.1972C28.5019 15.3138 28.3832 15.4269 28.259 15.5362C27.9876 15.7753 27.8664 16.1423 27.9421 16.496C27.9799 16.6724 27.9992 16.851 28 17.0297C27.9994 21.7543 25.4937 25.0996 21.9457 26.7862C19.4515 27.9718 16.4255 28.3411 13.3849 27.7448C14.4872 27.4207 15.5425 26.9592 16.5184 26.3676C16.843 26.1708 17.0282 25.8072 16.9965 25.429C16.9648 25.0507 16.7217 24.723 16.3689 24.583C14.2659 23.7482 12.9976 22.6844 12.2376 21.6127C11.4769 20.5401 11.1785 19.393 11.1237 18.3168Z" fill="white" stroke="white" stroke-width="2" stroke-linecap="round" stroke-linejoin="round"/>
</svg>
