<svg width="1440" height="654" viewBox="0 0 1440 654" fill="none" xmlns="http://www.w3.org/2000/svg">
<rect y="1" width="1440" height="653" fill="#F7F7F7"/>
<path opacity="0.8" d="M1172.31 214.629C1249.06 263.324 1440 214.629 1440 214.629V286.886C1440 286.886 1174.18 359.143 1067.48 286.886C960.775 214.629 899 1 899 1H1007.57C1007.57 1 1095.56 165.934 1172.31 214.629Z" fill="#F6D980" fill-opacity="0.52" stroke="#FFEEA9"/>
<path opacity="0.8" d="M293.549 153.495C297.361 72.6507 184.898 3 184.898 3H0V651H1395C1395 651 1324.71 542.817 1215 520C1105.29 497.183 964.55 572.938 817.776 544.331C671.001 515.724 516.902 502.252 423.5 466.183C330.098 430.114 156.51 413.399 156.51 341.261C156.51 269.122 289.737 234.34 293.549 153.495Z" fill="#F9D252" fill-opacity="0.21" stroke="#FFEEA9"/>
<path opacity="0.8" d="M238.554 371.956C184.337 299.98 0 197 0 197V651H1440C1440 651 1285.55 544.895 1131.57 531.607C977.596 518.319 702.651 560.2 652.771 571.273C602.892 582.346 346.988 592.312 297.108 560.2C247.229 528.088 292.771 443.932 238.554 371.956Z" fill="#F5CB26" fill-opacity="0.42" stroke="#FFF4CC"/>
</svg>
